SplineFontDB: 3.0
FontName: MeieScript-Regular
FullName: Meie Script
FamilyName: Meie Script
Weight: Book
Copyright: Copyright (c) 2011, 2012 Johan Kallas (johankallas@gmail.com), Mihkel Virkus (mihkelvirkus@gmail.com), with Reserved Font Name 'Meie Script'
Version: 1.001
ItalicAngle: 0
UnderlinePosition: -100
UnderlineWidth: 100
Ascent: 1638
Descent: 410
sfntRevision: 0x00010000
LayerCount: 2
Layer: 0 1 "Back"  1
Layer: 1 1 "Fore"  0
XUID: [1021 17 1407418750 16330351]
FSType: 0
OS2Version: 3
OS2_WeightWidthSlopeOnly: 0
OS2_UseTypoMetrics: 1
CreationTime: 1321186788
ModificationTime: 1323381702
PfmFamily: 81
TTFWeight: 400
TTFWidth: 5
LineGap: 0
VLineGap: 0
Panose: 0 0 0 0 0 0 0 0 0 0
OS2TypoAscent: 1814
OS2TypoAOffset: 0
OS2TypoDescent: -780
OS2TypoDOffset: 0
OS2TypoLinegap: 0
OS2WinAscent: 1814
OS2WinAOffset: 0
OS2WinDescent: 780
OS2WinDOffset: 0
HheadAscent: 1814
HheadAOffset: 0
HheadDescent: -780
HheadDOffset: 0
OS2SubXSize: 1434
OS2SubYSize: 1331
OS2SubXOff: 0
OS2SubYOff: 287
OS2SupXSize: 1434
OS2SupYSize: 1331
OS2SupXOff: 0
OS2SupYOff: 977
OS2StrikeYSize: 102
OS2StrikeYPos: 512
OS2Vendor: 'pyrs'
OS2CodePages: 20000111.40000000
OS2UnicodeRanges: 80000027.00000043.00000000.00000000
DEI: 91125
TtTable: prep
PUSHW_1
 511
SCANCTRL
PUSHB_1
 1
SCANTYPE
SVTCA[y-axis]
MPPEM
PUSHB_1
 8
LT
IF
PUSHB_2
 1
 1
INSTCTRL
EIF
PUSHB_2
 70
 6
CALL
IF
POP
PUSHB_1
 16
EIF
MPPEM
PUSHB_1
 20
GT
IF
POP
PUSHB_1
 128
EIF
SCVTCI
PUSHB_1
 6
CALL
NOT
IF
EIF
PUSHB_1
 20
CALL
EndTTInstrs
TtTable: fpgm
PUSHB_1
 0
FDEF
PUSHB_1
 0
SZP0
MPPEM
PUSHB_1
 42
LT
IF
PUSHB_1
 74
SROUND
EIF
PUSHB_1
 0
SWAP
MIAP[rnd]
RTG
PUSHB_1
 6
CALL
IF
RTDG
EIF
MPPEM
PUSHB_1
 42
LT
IF
RDTG
EIF
DUP
MDRP[rp0,rnd,grey]
PUSHB_1
 1
SZP0
MDAP[no-rnd]
RTG
ENDF
PUSHB_1
 1
FDEF
DUP
MDRP[rp0,min,white]
PUSHB_1
 12
CALL
ENDF
PUSHB_1
 2
FDEF
MPPEM
GT
IF
RCVT
SWAP
EIF
POP
ENDF
PUSHB_1
 3
FDEF
ROUND[Black]
RTG
DUP
PUSHB_1
 64
LT
IF
POP
PUSHB_1
 64
EIF
ENDF
PUSHB_1
 4
FDEF
PUSHB_1
 6
CALL
IF
POP
SWAP
POP
ROFF
IF

StartChar: .notdef
Encoding: 65536 -1 0
Width: 614
Flags: W
LayerCount: 2
Fore
SplineSet
100 818 m 1,0,-1
 474 818 l 1,1,-1
 474 118 l 1,2,-1
 100 118 l 1,3,-1
 100 818 l 1,0,-1
150 166 m 1,4,-1
 424 166 l 1,5,-1
 424 768 l 1,6,-1
 150 768 l 1,7,-1
 150 166 l 1,4,-1
EndSplineSet
EndChar

StartChar: exclam
Encoding: 33 33 4
Width: 688
Flags: W
LayerCount: 2
Fore
SplineSet
1314 1240 m 0,0,1
 1158 1060 1158 1060 1038.5 923 c 128,-1,2
 919 786 919 786 831 684 c 128,-1,3
 743 582 743 582 682 512 c 128,-1,4
 621 442 621 442 581.5 396 c 128,-1,5
 542 350 542 350 520 325 c 128,-1,6
 498 300 498 300 487 287.5 c 128,-1,7
 476 275 476 275 473.5 272 c 128,-1,8
 471 269 471 269 470 268 c 0,9,10
 442 240 442 240 416 240 c 0,11,12
 395 240 395 240 379.5 253 c 128,-1,13
 364 266 364 266 364 286 c 0,14,15
 364 297 364 297 370.5 308.5 c 128,-1,16
 377 320 377 320 388 334 c 0,17,18
 457 422 457 422 528.5 510 c 128,-1,19
 600 598 600 598 675 687.5 c 128,-1,20
 750 777 750 777 828.5 870 c 128,-1,21
 907 963 907 963 990 1062 c 0,22,23
 1008 1084 1008 1084 1033.5 1114 c 128,-1,24
 1059 1144 1059 1144 1087.5 1176.5 c 128,-1,25
 1116 1209 1116 1209 1145.5 1240 c 128,-1,26
 1175 1271 1175 1271 1201.5 1296 c 128,-1,27
 1228 1321 1228 1321 1249 1336.5 c 128,-1,28
 1270 1352 1270 1352 1282 1352 c 0,29,30
 1290 1352 1290 1352 1304 1349 c 128,-1,31
 1318 1346 1318 1346 1331.5 1340.5 c 128,-1,32
 1345 1335 1345 1335 1354.5 1326.5 c 128,-1,33
 1364 1318 1364 1318 1364 1308 c 0,34,35
 1364 1297 1364 1297 1349.5 1280 c 128,-1,36
 1335 1263 1335 1263 1314 1240 c 0,0,1
336 82 m 1,37,38
 336 65 336 65 327 50 c 128,-1,39
 318 35 318 35 303.5 24 c 128,-1,40
 289 13 289 13 270 6.5 c 128,-1,41
 251 0 251 0 232 0 c 0,42,43
 218 0 218 0 204.5 3 c 128,-1,44
 191 6 191 6 179.5 14 c 128,-1,45
 168 22 168 22 161 35.5 c 128,-1,46
 154 49 154 49 154 70 c 0,47,48
 154 88 154 88 164 101 c 128,-1,49
 174 114 174 114 189 122 c 128,-1,50
 204 130 204 130 223 134 c 128,-1,51
 242 138 242 138 260 138 c 0,52,53
 290 138 290 138 310.5 124.5 c 128,-1,54
 331 111 331 111 336 82 c 1,37,38
EndSplineSet
EndChar

StartChar: quotedbl
Encoding: 34 34 5
Width: 680
Flags: W
LayerCount: 2
Fore
SplineSet
382 1448 m 0,0,1
 418 1448 418 1448 436 1435 c 128,-1,2
 454 1422 454 1422 454 1402 c 0,3,4
 454 1371 454 1371 412 1338 c 0,5,6
 383 1314 383 1314 342 1287.5 c 128,-1,7
 301 1261 301 1261 261 1239 c 128,-1,8
 221 1217 221 1217 187.5 1202.5 c 128,-1,9
 154 1188 154 1188 140 1188 c 0,10,11
 134 1188 134 1188 134 1194 c 0,12,13
 134 1204 134 1204 152 1228 c 0,14,15
 160 1239 160 1239 172.5 1257.5 c 128,-1,16
 185 1276 185 1276 196 1290 c 0,17,18
 225 1323 225 1323 252.5 1360 c 128,-1,19
 280 1397 280 1397 318 1426 c 0,20,21
 332 1437 332 1437 347 1442.5 c 128,-1,22
 362 1448 362 1448 382 1448 c 0,0,1
680 1448 m 0,23,24
 716 1448 716 1448 734 1435 c 128,-1,25
 752 1422 752 1422 752 1402 c 0,26,27
 752 1371 752 1371 710 1338 c 0,28,29
 681 1314 681 1314 640 1287.5 c 128,-1,30
 599 1261 599 1261 559 1239 c 128,-1,31
 519 1217 519 1217 485.5 1202.5 c 128,-1,32
 452 1188 452 1188 438 1188 c 0,33,34
 432 1188 432 1188 432 1194 c 0,35,36
 432 1204 432 1204 450 1228 c 0,37,38
 458 1239 458 1239 470.5 1257.5 c 128,-1,39
 483 1276 483 1276 494 1290 c 0,40,41
 523 1323 523 1323 550.5 1360 c 128,-1,42
 578 1397 578 1397 616 1426 c 0,43,44
 630 1437 630 1437 645 1442.5 c 128,-1,45
 660 1448 660 1448 680 1448 c 0,23,24
EndSplineSet
EndChar

StartChar: numbersign
Encoding: 35 35 6
Width: 1312
Flags: W
LayerCount: 2
Fore
SplineSet
358 130 m 1,0,-1
 94 130 l 1,1,-1
 182 230 l 1,2,-1
 438 220 l 1,3,-1
 506 298 l 1,4,-1
 242 298 l 1,5,-1
 330 398 l 1,6,-1
 586 388 l 1,7,-1
 816 650 l 1,8,-1
 980 650 l 1,9,-1
 712 384 l 1,10,-1
 840 378 l 1,11,-1
 1078 650 l 1,12,-1
 1242 650 l 1,13,-1
 964 374 l 1,14,-1
 1258 364 l 1,15,-1
 1200 298 l 1,16,-1
 888 298 l 1,17,-1
 796 208 l 1,18,-1
 1110 196 l 1,19,-1
 1052 130 l 1,20,-1
 718 130 l 1,21,-1
 420 -168 l 1,22,-1
 358 -168 l 1,23,-1
 620 130 l 1,24,-1
 458 130 l 1,25,-1
 158 -168 l 1,26,-1
 96 -168 l 1,27,-1
 358 130 l 1,0,-1
544 218 m 1,28,-1
 692 212 l 1,29,-1
 768 298 l 1,30,-1
 626 298 l 1,31,-1
 544 218 l 1,28,-1
EndSplineSet
EndChar

StartChar: dollar
Encoding: 36 36 7
Width: 998
Flags: W
LayerCount: 2
Fore
SplineSet
552 452 m 1,0,1
 603 488 603 488 652.5 523 c 128,-1,2
 702 558 702 558 745 588.5 c 128,-1,3
 788 619 788 619 821.5 642.5 c 128,-1,4
 855 666 855 666 874 680 c 1,5,-1
 892 650 l 1,6,7
 869 627 869 627 853.5 605.5 c 128,-1,8
 838 584 838 584 829 563.5 c 128,-1,9
 820 543 820 543 816 523 c 128,-1,10
 812 503 812 503 812 482 c 0,11,12
 812 384 812 384 789.5 310 c 128,-1,13
 767 236 767 236 729.5 182 c 128,-1,14
 692 128 692 128 643 92.5 c 128,-1,15
 594 57 594 57 540 36 c 1,16,-1
 524 -398 l 1,17,-1
 460 -398 l 1,18,-1
 446 10 l 1,19,20
 416 5 416 5 386.5 2.5 c 128,-1,21
 357 0 357 0 330 0 c 0,22,23
 297 0 297 0 257.5 8.5 c 128,-1,24
 218 17 218 17 184 34.5 c 128,-1,25
 150 52 150 52 127 79 c 128,-1,26
 104 106 104 106 104 144 c 0,27,28
 104 175 104 175 118 203.5 c 128,-1,29
 132 232 132 232 155.5 254.5 c 128,-1,30
 179 277 179 277 209.5 290.5 c 128,-1,31
 240 304 240 304 272 304 c 0,32,33
 287 304 287 304 300 300 c 128,-1,34
 313 296 313 296 322 290 c 1,35,36
 346 308 346 308 376 328.5 c 128,-1,37
 406 349 406 349 436 370 c 1,38,-1
 412 1000 l 1,39,-1
 572 1000 l 1,40,-1
 552 452 l 1,0,1
678 494 m 1,41,42
 635 465 635 465 597.5 440 c 128,-1,43
 560 415 560 415 521 388 c 128,-1,44
 482 361 482 361 439 331 c 128,-1,45
 396 301 396 301 344 264 c 1,46,47
 350 255 350 255 350 246 c 0,48,49
 350 225 350 225 340.5 209.5 c 128,-1,50
 331 194 331 194 316.5 183.5 c 128,-1,51
 302 173 302 173 285 165 c 128,-1,52
 268 157 268 157 253.5 150 c 128,-1,53
 239 143 239 143 229.5 135.5 c 128,-1,54
 220 128 220 128 220 118 c 0,55,56
 220 105 220 105 227 95.5 c 128,-1,57
 234 86 234 86 245 80 c 128,-1,58
 256 74 256 74 269 71 c 128,-1,59
 282 68 282 68 294 68 c 0,60,61
 318 68 318 68 343.5 74 c 128,-1,62
 369 80 369 80 392 88 c 0,63,64
 444 104 444 104 492.5 136.5 c 128,-1,65
 541 169 541 169 580 219 c 128,-1,66
 619 269 619 269 645 337 c 128,-1,67
 671 405 671 405 678 494 c 1,41,42
EndSplineSet
EndChar

StartChar: percent
Encoding: 37 37 8
Width: 1060
Flags: W
LayerCount: 2
Fore
SplineSet
1014 504 m 1,0,1
 1014 465 1014 465 993.5 431 c 128,-1,2
 973 397 973 397 940 372 c 128,-1,3
 907 347 907 347 865 332.5 c 128,-1,4
 823 318 823 318 780 318 c 0,5,6
 749 318 749 318 717.5 325 c 128,-1,7
 686 332 686 332 660.5 350 c 128,-1,8
 635 368 635 368 618.5 399 c 128,-1,9
 602 430 602 430 602 478 c 0,10,11
 602 518 602 518 624.5 547 c 128,-1,12
 647 576 647 576 681.5 594.5 c 128,-1,13
 716 613 716 613 758.5 621.5 c 128,-1,14
 801 630 801 630 842 630 c 0,15,16
 910 630 910 630 956.5 599.5 c 128,-1,17
 1003 569 1003 569 1014 504 c 1,0,1
932 492 m 1,18,19
 926 533 926 533 897 551.5 c 128,-1,20
 868 570 868 570 826 570 c 0,21,22
 801 570 801 570 775 564.5 c 128,-1,23
 749 559 749 559 728 547.5 c 128,-1,24
 707 536 707 536 693.5 518.5 c 128,-1,25
 680 501 680 501 680 476 c 0,26,27
 680 447 680 447 690 428 c 128,-1,28
 700 409 700 409 715.5 398 c 128,-1,29
 731 387 731 387 750 382.5 c 128,-1,30
 769 378 769 378 788 378 c 0,31,32
 815 378 815 378 841 387 c 128,-1,33
 867 396 867 396 887 411 c 128,-1,34
 907 426 907 426 919.5 447 c 128,-1,35
 932 468 932 468 932 492 c 1,18,19
460 892 m 1,36,37
 460 853 460 853 439.5 819 c 128,-1,38
 419 785 419 785 386 760 c 128,-1,39
 353 735 353 735 310.5 720.5 c 128,-1,40
 268 706 268 706 224 706 c 0,41,42
 193 706 193 706 162 713 c 128,-1,43
 131 720 131 720 105.5 738 c 128,-1,44
 80 756 80 756 64 786.5 c 128,-1,45
 48 817 48 817 48 864 c 0,46,47
 48 904 48 904 70.5 933.5 c 128,-1,48
 93 963 93 963 127.5 981.5 c 128,-1,49
 162 1000 162 1000 204.5 1009 c 128,-1,50
 247 1018 247 1018 288 1018 c 0,51,52
 356 1018 356 1018 402.5 987.5 c 128,-1,53
 449 957 449 957 460 892 c 1,36,37
378 880 m 1,54,55
 372 919 372 919 343 938.5 c 128,-1,56
 314 958 314 958 272 958 c 0,57,58
 246 958 246 958 220 952.5 c 128,-1,59
 194 947 194 947 172.5 935.5 c 128,-1,60
 151 924 151 924 137.5 905.5 c 128,-1,61
 124 887 124 887 124 862 c 0,62,63
 124 833 124 833 134 814.5 c 128,-1,64
 144 796 144 796 159.5 785.5 c 128,-1,65
 175 775 175 775 194 770.5 c 128,-1,66
 213 766 213 766 232 766 c 0,67,68
 259 766 259 766 285 775 c 128,-1,69
 311 784 311 784 332 799 c 128,-1,70
 353 814 353 814 365.5 835 c 128,-1,71
 378 856 378 856 378 880 c 1,54,55
786 1078 m 1,72,-1
 944 1068 l 1,73,-1
 206 278 l 1,74,-1
 138 266 l 1,75,-1
 786 1078 l 1,72,-1
EndSplineSet
EndChar

StartChar: ampersand
Encoding: 38 38 9
Width: 1808
Flags: W
LayerCount: 2
Fore
SplineSet
1208 6 m 1,0,1
 1135 48 1135 48 1074 122 c 1,2,3
 1025 80 1025 80 979 55 c 128,-1,4
 933 30 933 30 892.5 17 c 128,-1,5
 852 4 852 4 817 0 c 128,-1,6
 782 -4 782 -4 756 -4 c 0,7,8
 689 -4 689 -4 639 15 c 128,-1,9
 589 34 589 34 555.5 67 c 128,-1,10
 522 100 522 100 505 144.5 c 128,-1,11
 488 189 488 189 488 240 c 0,12,13
 488 312 488 312 516.5 372 c 128,-1,14
 545 432 545 432 595.5 475 c 128,-1,15
 646 518 646 518 715 542 c 128,-1,16
 784 566 784 566 864 566 c 0,17,18
 876 566 876 566 888 565 c 128,-1,19
 900 564 900 564 914 562 c 1,20,-1
 914 576 l 2,21,22
 914 648 914 648 932 713 c 128,-1,23
 950 778 950 778 988 827.5 c 128,-1,24
 1026 877 1026 877 1085.5 906.5 c 128,-1,25
 1145 936 1145 936 1228 936 c 0,26,27
 1274 936 1274 936 1313 920 c 128,-1,28
 1352 904 1352 904 1380.5 877 c 128,-1,29
 1409 850 1409 850 1424.5 814 c 128,-1,30
 1440 778 1440 778 1440 738 c 0,31,32
 1440 680 1440 680 1421.5 628.5 c 128,-1,33
 1403 577 1403 577 1362.5 538 c 128,-1,34
 1322 499 1322 499 1258.5 476.5 c 128,-1,35
 1195 454 1195 454 1104 454 c 0,36,37
 1064 454 1064 454 1022 460 c 1,38,39
 1031 379 1031 379 1051.5 316 c 128,-1,40
 1072 253 1072 253 1102 200 c 1,41,42
 1135 232 1135 232 1168.5 272 c 128,-1,43
 1202 312 1202 312 1232 362 c 1,44,-1
 1264 350 l 1,45,46
 1228 293 1228 293 1192.5 248 c 128,-1,47
 1157 203 1157 203 1122 168 c 1,48,49
 1146 130 1146 130 1175.5 97 c 128,-1,50
 1205 64 1205 64 1238 34 c 1,51,-1
 1208 6 l 1,0,1
794 52 m 0,52,53
 816 52 816 52 844.5 57.5 c 128,-1,54
 873 63 873 63 906 75.5 c 128,-1,55
 939 88 939 88 975.5 107.5 c 128,-1,56
 1012 127 1012 127 1050 156 c 1,57,58
 1002 222 1002 222 969 303 c 128,-1,59
 936 384 936 384 922 472 c 1,60,-1
 910 472 l 2,61,62
 841 472 841 472 780 449 c 128,-1,63
 719 426 719 426 674 388.5 c 128,-1,64
 629 351 629 351 602.5 303 c 128,-1,65
 576 255 576 255 576 206 c 0,66,67
 576 185 576 185 583 158.5 c 128,-1,68
 590 132 590 132 613 108 c 128,-1,69
 636 84 636 84 679 68 c 128,-1,70
 722 52 722 52 794 52 c 0,52,53
1016 544 m 1,71,72
 1037 542 1037 542 1058 541 c 128,-1,73
 1079 540 1079 540 1102 540 c 0,74,75
 1151 540 1151 540 1198 549 c 128,-1,76
 1245 558 1245 558 1282.5 580.5 c 128,-1,77
 1320 603 1320 603 1343 642.5 c 128,-1,78
 1366 682 1366 682 1366 744 c 0,79,80
 1366 760 1366 760 1361.5 781 c 128,-1,81
 1357 802 1357 802 1342 821 c 128,-1,82
 1327 840 1327 840 1300 853 c 128,-1,83
 1273 866 1273 866 1228 866 c 0,84,85
 1181 866 1181 866 1142 838.5 c 128,-1,86
 1103 811 1103 811 1075 769 c 128,-1,87
 1047 727 1047 727 1031.5 675.5 c 128,-1,88
 1016 624 1016 624 1016 576 c 2,89,-1
 1016 544 l 1,71,72
EndSplineSet
EndChar

StartChar: quotesingle
Encoding: 39 39 10
Width: 292
Flags: W
LayerCount: 2
Fore
SplineSet
278 1448 m 0,0,1
 314 1448 314 1448 332 1435 c 128,-1,2
 350 1422 350 1422 350 1402 c 0,3,4
 350 1371 350 1371 308 1338 c 0,5,6
 279 1314 279 1314 238 1287.5 c 128,-1,7
 197 1261 197 1261 157 1239 c 128,-1,8
 117 1217 117 1217 83.5 1202.5 c 128,-1,9
 50 1188 50 1188 36 1188 c 0,10,11
 30 1188 30 1188 30 1194 c 0,12,13
 30 1204 30 1204 48 1228 c 0,14,15
 56 1239 56 1239 68.5 1257.5 c 128,-1,16
 81 1276 81 1276 92 1290 c 0,17,18
 121 1323 121 1323 148.5 1360 c 128,-1,19
 176 1397 176 1397 214 1426 c 0,20,21
 228 1437 228 1437 243 1442.5 c 128,-1,22
 258 1448 258 1448 278 1448 c 0,0,1
EndSplineSet
EndChar

StartChar: parenleft
Encoding: 40 40 11
Width: 1054
Flags: W
LayerCount: 2
Fore
SplineSet
580 996 m 0,0,1
 742 1167 742 1167 904.5 1287.5 c 128,-1,2
 1067 1408 1067 1408 1218.5 1489 c 128,-1,3
 1370 1570 1370 1570 1504 1618 c 128,-1,4
 1638 1666 1638 1666 1740.5 1691 c 128,-1,5
 1843 1716 1843 1716 1908.5 1723.5 c 128,-1,6
 1974 1731 1974 1731 1990 1732 c 1,7,8
 1977 1731 1977 1731 1932 1724.5 c 128,-1,9
 1887 1718 1887 1718 1814 1696.5 c 128,-1,10
 1741 1675 1741 1675 1642.5 1634 c 128,-1,11
 1544 1593 1544 1593 1425 1524.5 c 128,-1,12
 1306 1456 1306 1456 1168 1354.5 c 128,-1,13
 1030 1253 1030 1253 878 1110 c 0,14,15
 720 961 720 961 611.5 822 c 128,-1,16
 503 683 503 683 436 555.5 c 128,-1,17
 369 428 369 428 339.5 313 c 128,-1,18
 310 198 310 198 310 98 c 0,19,20
 310 -18 310 -18 345.5 -112.5 c 128,-1,21
 381 -207 381 -207 438 -270 c 1,22,23
 370 -216 370 -216 317 -142 c 0,24,25
 294 -111 294 -111 272.5 -71.5 c 128,-1,26
 251 -32 251 -32 234 14.5 c 128,-1,27
 217 61 217 61 206.5 114.5 c 128,-1,28
 196 168 196 168 196 228 c 0,29,30
 196 303 196 303 214.5 389 c 128,-1,31
 233 475 233 475 277.5 571.5 c 128,-1,32
 322 668 322 668 396 774 c 128,-1,33
 470 880 470 880 580 996 c 0,0,1
EndSplineSet
EndChar

StartChar: parenright
Encoding: 41 41 12
Width: 940
Flags: W
LayerCount: 2
Fore
SplineSet
892 466 m 0,0,1
 731 296 731 296 568 175 c 128,-1,2
 405 54 405 54 253.5 -27 c 128,-1,3
 102 -108 102 -108 -32 -156 c 128,-1,4
 -166 -204 -166 -204 -268.5 -229 c 128,-1,5
 -371 -254 -371 -254 -437 -261.5 c 128,-1,6
 -503 -269 -503 -269 -518 -270 c 1,7,8
 -505 -269 -505 -269 -460 -262.5 c 128,-1,9
 -415 -256 -415 -256 -342 -234.5 c 128,-1,10
 -269 -213 -269 -213 -170.5 -172 c 128,-1,11
 -72 -131 -72 -131 47 -62.5 c 128,-1,12
 166 6 166 6 304 107.5 c 128,-1,13
 442 209 442 209 594 352 c 0,14,15
 752 500 752 500 860.5 639.5 c 128,-1,16
 969 779 969 779 1036 906.5 c 128,-1,17
 1103 1034 1103 1034 1132.5 1149 c 128,-1,18
 1162 1264 1162 1264 1162 1364 c 0,19,20
 1162 1480 1162 1480 1126.5 1574.5 c 128,-1,21
 1091 1669 1091 1669 1034 1732 c 1,22,23
 1101 1678 1101 1678 1155 1604 c 1,24,25
 1177 1572 1177 1572 1199 1533 c 128,-1,26
 1221 1494 1221 1494 1238 1447.5 c 128,-1,27
 1255 1401 1255 1401 1265.5 1347.5 c 128,-1,28
 1276 1294 1276 1294 1276 1234 c 0,29,30
 1276 1159 1276 1159 1257.5 1073 c 128,-1,31
 1239 987 1239 987 1194.5 890.5 c 128,-1,32
 1150 794 1150 794 1076 687.5 c 128,-1,33
 1002 581 1002 581 892 466 c 0,0,1
EndSplineSet
EndChar

StartChar: asterisk
Encoding: 42 42 13
Width: 1158
Flags: W
LayerCount: 2
Fore
SplineSet
356 638 m 1,0,-1
 106 538 l 1,1,-1
 150 664 l 1,2,-1
 420 756 l 1,3,-1
 262 810 l 1,4,-1
 302 902 l 1,5,-1
 538 796 l 1,6,-1
 894 1102 l 1,7,-1
 894 1038 l 1,8,-1
 702 852 l 1,9,-1
 1032 964 l 1,10,-1
 1010 904 l 1,11,-1
 634 752 l 1,12,-1
 782 686 l 1,13,-1
 804 626 l 1,14,-1
 556 710 l 1,15,-1
 194 360 l 1,16,-1
 188 494 l 1,17,-1
 356 638 l 1,0,-1
EndSplineSet
EndChar

StartChar: plus
Encoding: 43 43 14
Width: 802
Flags: W
LayerCount: 2
Fore
SplineSet
280 284 m 1,0,-1
 64 284 l 1,1,-1
 152 384 l 1,2,-1
 352 366 l 1,3,-1
 466 494 l 1,4,-1
 630 494 l 1,5,-1
 468 354 l 1,6,-1
 716 332 l 1,7,-1
 674 284 l 1,8,-1
 386 284 l 1,9,-1
 208 130 l 1,10,-1
 146 130 l 1,11,-1
 280 284 l 1,0,-1
EndSplineSet
EndChar

StartChar: comma
Encoding: 44 44 15
Width: 642
Flags: W
LayerCount: 2
Fore
SplineSet
312 138 m 0,0,1
 324 138 324 138 337.5 134.5 c 128,-1,2
 351 131 351 131 362 123.5 c 128,-1,3
 373 116 373 116 380.5 104 c 128,-1,4
 388 92 388 92 388 76 c 0,5,6
 388 55 388 55 374.5 31.5 c 128,-1,7
 361 8 361 8 340.5 -14.5 c 128,-1,8
 320 -37 320 -37 294 -57.5 c 128,-1,9
 268 -78 268 -78 243 -93.5 c 128,-1,10
 218 -109 218 -109 196 -118.5 c 128,-1,11
 174 -128 174 -128 162 -128 c 0,12,13
 154 -128 154 -128 154 -122 c 256,14,15
 154 -116 154 -116 169.5 -105 c 128,-1,16
 185 -94 185 -94 203 -80 c 128,-1,17
 221 -66 221 -66 236.5 -49.5 c 128,-1,18
 252 -33 252 -33 252 -16 c 0,19,20
 252 -4 252 -4 245 4 c 128,-1,21
 238 12 238 12 229 20.5 c 128,-1,22
 220 29 220 29 213 40 c 128,-1,23
 206 51 206 51 206 70 c 0,24,25
 206 88 206 88 216 101 c 128,-1,26
 226 114 226 114 241 122 c 128,-1,27
 256 130 256 130 275 134 c 128,-1,28
 294 138 294 138 312 138 c 0,0,1
EndSplineSet
EndChar

StartChar: hyphen
Encoding: 45 45 16
Width: 886
Flags: W
LayerCount: 2
Fore
SplineSet
768 272 m 1,0,-1
 726 224 l 1,1,-1
 116 224 l 1,2,-1
 204 324 l 1,3,-1
 768 272 l 1,0,-1
EndSplineSet
EndChar

StartChar: period
Encoding: 46 46 17
Width: 506
Flags: W
LayerCount: 2
Fore
SplineSet
314 82 m 1,0,1
 314 65 314 65 305 50 c 128,-1,2
 296 35 296 35 281.5 24 c 128,-1,3
 267 13 267 13 248 6.5 c 128,-1,4
 229 0 229 0 210 0 c 0,5,6
 196 0 196 0 182.5 3 c 128,-1,7
 169 6 169 6 157.5 14 c 128,-1,8
 146 22 146 22 139 35.5 c 128,-1,9
 132 49 132 49 132 70 c 0,10,11
 132 88 132 88 142 101 c 128,-1,12
 152 114 152 114 167 122 c 128,-1,13
 182 130 182 130 201 134 c 128,-1,14
 220 138 220 138 238 138 c 0,15,16
 268 138 268 138 288.5 124.5 c 128,-1,17
 309 111 309 111 314 82 c 1,0,1
EndSplineSet
EndChar

StartChar: slash
Encoding: 47 47 18
Width: 666
Flags: W
LayerCount: 2
Fore
SplineSet
944 1400 m 1,0,-1
 1102 1390 l 1,1,-1
 -106 12 l 1,2,-1
 -174 0 l 1,3,-1
 944 1400 l 1,0,-1
EndSplineSet
EndChar

StartChar: zero
Encoding: 48 48 19
Width: 852
Flags: W
LayerCount: 2
Fore
SplineSet
736 486 m 0,0,1
 736 438 736 438 717.5 384 c 128,-1,2
 699 330 699 330 666.5 277.5 c 128,-1,3
 634 225 634 225 590.5 177.5 c 128,-1,4
 547 130 547 130 497 93.5 c 128,-1,5
 447 57 447 57 393 35.5 c 128,-1,6
 339 14 339 14 286 14 c 0,7,8
 241 14 241 14 211.5 24.5 c 128,-1,9
 182 35 182 35 164 53.5 c 128,-1,10
 146 72 146 72 139 96.5 c 128,-1,11
 132 121 132 121 132 150 c 0,12,13
 132 204 132 204 155.5 257.5 c 128,-1,14
 179 311 179 311 218.5 359 c 128,-1,15
 258 407 258 407 309.5 449 c 128,-1,16
 361 491 361 491 417.5 521 c 128,-1,17
 474 551 474 551 531.5 568.5 c 128,-1,18
 589 586 589 586 640 586 c 0,19,20
 668 586 668 586 687 578.5 c 128,-1,21
 706 571 706 571 716.5 557.5 c 128,-1,22
 727 544 727 544 731.5 526 c 128,-1,23
 736 508 736 508 736 486 c 0,0,1
326 70 m 0,24,25
 366 70 366 70 408.5 87.5 c 128,-1,26
 451 105 451 105 491 134.5 c 128,-1,27
 531 164 531 164 567 203 c 128,-1,28
 603 242 603 242 630 284.5 c 128,-1,29
 657 327 657 327 672.5 370.5 c 128,-1,30
 688 414 688 414 688 454 c 0,31,32
 688 477 688 477 680 492 c 128,-1,33
 672 507 672 507 652 518 c 0,34,35
 647 521 647 521 638 523.5 c 128,-1,36
 629 526 629 526 612 526 c 0,37,38
 580 526 580 526 536 504 c 128,-1,39
 492 482 492 482 447 444.5 c 128,-1,40
 402 407 402 407 361 357 c 128,-1,41
 320 307 320 307 294 252 c 0,42,43
 283 231 283 231 271.5 198 c 128,-1,44
 260 165 260 165 260 136 c 0,45,46
 260 110 260 110 275 90 c 128,-1,47
 290 70 290 70 326 70 c 0,24,25
EndSplineSet
EndChar

StartChar: one
Encoding: 49 49 20
Width: 656
Flags: W
LayerCount: 2
Fore
SplineSet
278 406 m 0,0,1
 353 427 353 427 426.5 466.5 c 128,-1,2
 500 506 500 506 566 556 c 1,3,4
 589 576 589 576 606 588 c 128,-1,5
 623 600 623 600 634 600 c 0,6,7
 642 600 642 600 656 597 c 128,-1,8
 670 594 670 594 683.5 588.5 c 128,-1,9
 697 583 697 583 706.5 574.5 c 128,-1,10
 716 566 716 566 716 556 c 0,11,12
 716 545 716 545 701.5 528 c 128,-1,13
 687 511 687 511 666 488 c 2,14,-1
 500 300 l 2,15,16
 492 291 492 291 466 261 c 128,-1,17
 440 231 440 231 408 193 c 128,-1,18
 376 155 376 155 344 115.5 c 128,-1,19
 312 76 312 76 292 48 c 0,20,21
 288 43 288 43 282 35 c 128,-1,22
 276 27 276 27 267 19.5 c 128,-1,23
 258 12 258 12 246.5 6 c 128,-1,24
 235 0 235 0 222 0 c 0,25,26
 214 0 214 0 201.5 4 c 128,-1,27
 189 8 189 8 177 14.5 c 128,-1,28
 165 21 165 21 156.5 30 c 128,-1,29
 148 39 148 39 148 50 c 0,30,31
 148 62 148 62 158 75.5 c 128,-1,32
 168 89 168 89 174 98 c 0,33,34
 189 120 189 120 212 149.5 c 128,-1,35
 235 179 235 179 259 209 c 128,-1,36
 283 239 283 239 305.5 266 c 128,-1,37
 328 293 328 293 342 310 c 0,38,39
 357 328 357 328 378.5 353.5 c 128,-1,40
 400 379 400 379 424 406 c 1,41,42
 382 392 382 392 342.5 383 c 128,-1,43
 303 374 303 374 270 374 c 0,44,45
 250 374 250 374 238 382 c 128,-1,46
 226 390 226 390 228 392 c 1,47,48
 234 393 234 393 242 396 c 0,49,50
 249 398 249 398 258 400.5 c 128,-1,51
 267 403 267 403 278 406 c 0,0,1
EndSplineSet
EndChar

StartChar: two
Encoding: 50 50 21
Width: 832
Flags: W
LayerCount: 2
Fore
SplineSet
586 608 m 0,0,1
 649 608 649 608 687.5 583 c 128,-1,2
 726 558 726 558 726 504 c 0,3,4
 726 498 726 498 726 491 c 128,-1,5
 726 484 726 484 724 478 c 0,6,7
 719 452 719 452 700.5 426.5 c 128,-1,8
 682 401 682 401 652.5 375.5 c 128,-1,9
 623 350 623 350 585 325 c 128,-1,10
 547 300 547 300 504 276 c 0,11,12
 439 238 439 238 379.5 202 c 128,-1,13
 320 166 320 166 270 134 c 1,14,15
 278 136 278 136 285.5 137 c 128,-1,16
 293 138 293 138 302 138 c 0,17,18
 322 138 322 138 339.5 127 c 128,-1,19
 357 116 357 116 373 103 c 128,-1,20
 389 90 389 90 404 79 c 128,-1,21
 419 68 419 68 436 68 c 0,22,23
 455 68 455 68 478 75.5 c 128,-1,24
 501 83 501 83 525 94 c 128,-1,25
 549 105 549 105 571.5 117.5 c 128,-1,26
 594 130 594 130 614 140 c 1,27,-1
 620 100 l 1,28,29
 584 79 584 79 548.5 60.5 c 128,-1,30
 513 42 513 42 477 28 c 128,-1,31
 441 14 441 14 403 6 c 128,-1,32
 365 -2 365 -2 324 -2 c 0,33,34
 312 -2 312 -2 298.5 6 c 128,-1,35
 285 14 285 14 270 23 c 128,-1,36
 255 32 255 32 238 40 c 128,-1,37
 221 48 221 48 202 48 c 0,38,39
 184 48 184 48 162 39.5 c 128,-1,40
 140 31 140 31 120 21 c 0,41,42
 97 9 97 9 74 -6 c 1,43,-1
 48 24 l 1,44,45
 103 66 103 66 161 103.5 c 128,-1,46
 219 141 219 141 276 177 c 128,-1,47
 333 213 333 213 388.5 248.5 c 128,-1,48
 444 284 444 284 496 322 c 0,49,50
 535 351 535 351 562.5 393.5 c 128,-1,51
 590 436 590 436 590 490 c 0,52,53
 590 513 590 513 579.5 530.5 c 128,-1,54
 569 548 569 548 536 548 c 0,55,56
 515 548 515 548 491.5 541.5 c 128,-1,57
 468 535 468 535 444 524.5 c 128,-1,58
 420 514 420 514 397.5 500.5 c 128,-1,59
 375 487 375 487 356 472 c 1,60,-1
 344 500 l 1,61,62
 397 548 397 548 459 578 c 128,-1,63
 521 608 521 608 586 608 c 0,0,1
EndSplineSet
EndChar

StartChar: three
Encoding: 51 51 22
Width: 820
Flags: W
LayerCount: 2
Fore
SplineSet
444 234 m 0,0,1
 444 251 444 251 431.5 263.5 c 128,-1,2
 419 276 419 276 401 284 c 128,-1,3
 383 292 383 292 362 296 c 128,-1,4
 341 300 341 300 324 300 c 256,5,6
 307 300 307 300 290 298.5 c 128,-1,7
 273 297 273 297 258 294 c 1,8,-1
 254 312 l 1,9,10
 280 326 280 326 314.5 335 c 128,-1,11
 349 344 349 344 385.5 352.5 c 128,-1,12
 422 361 422 361 458 370.5 c 128,-1,13
 494 380 494 380 522 394.5 c 128,-1,14
 550 409 550 409 567 431 c 128,-1,15
 584 453 584 453 584 486 c 0,16,17
 584 506 584 506 571.5 516 c 128,-1,18
 559 526 559 526 530 526 c 0,19,20
 488 526 488 526 444.5 510 c 128,-1,21
 401 494 401 494 360 464 c 1,22,-1
 352 492 l 1,23,24
 409 540 409 540 476 570 c 128,-1,25
 543 600 543 600 608 600 c 0,26,27
 665 600 665 600 694.5 575 c 128,-1,28
 724 550 724 550 724 514 c 0,29,30
 724 470 724 470 706 439 c 128,-1,31
 688 408 688 408 657.5 387.5 c 128,-1,32
 627 367 627 367 586.5 355 c 128,-1,33
 546 343 546 343 502 336 c 1,34,35
 515 331 515 331 527.5 322.5 c 128,-1,36
 540 314 540 314 550 301.5 c 128,-1,37
 560 289 560 289 566 271 c 128,-1,38
 572 253 572 253 572 228 c 0,39,40
 572 175 572 175 540 131.5 c 128,-1,41
 508 88 508 88 458 57 c 128,-1,42
 408 26 408 26 347.5 9 c 128,-1,43
 287 -8 287 -8 230 -8 c 0,44,45
 196 -8 196 -8 164 1.5 c 128,-1,46
 132 11 132 11 106.5 28 c 128,-1,47
 81 45 81 45 65.5 69.5 c 128,-1,48
 50 94 50 94 50 124 c 0,49,50
 50 169 50 169 75.5 197.5 c 128,-1,51
 101 226 101 226 136 226 c 0,52,53
 174 226 174 226 174 188 c 0,54,55
 174 165 174 165 160 155 c 128,-1,56
 146 145 146 145 129.5 140.5 c 128,-1,57
 113 136 113 136 99.5 132 c 128,-1,58
 86 128 86 128 86 116 c 256,59,60
 86 104 86 104 92 90.5 c 128,-1,61
 98 77 98 77 111.5 66 c 128,-1,62
 125 55 125 55 145 47.5 c 128,-1,63
 165 40 165 40 194 40 c 0,64,65
 232 40 232 40 276 51 c 128,-1,66
 320 62 320 62 357.5 85.5 c 128,-1,67
 395 109 395 109 419.5 145.5 c 128,-1,68
 444 182 444 182 444 234 c 0,0,1
EndSplineSet
EndChar

StartChar: four
Encoding: 52 52 23
Width: 798
Flags: W
LayerCount: 2
Fore
SplineSet
688 284 m 1,0,1
 641 260 641 260 575 248.5 c 128,-1,2
 509 237 509 237 432 234 c 1,3,4
 414 212 414 212 393 187 c 128,-1,5
 372 162 372 162 351.5 137 c 128,-1,6
 331 112 331 112 313 89 c 128,-1,7
 295 66 295 66 282 48 c 0,8,9
 278 43 278 43 272 35 c 128,-1,10
 266 27 266 27 257 19.5 c 128,-1,11
 248 12 248 12 236.5 6 c 128,-1,12
 225 0 225 0 212 0 c 0,13,14
 204 0 204 0 191.5 4 c 128,-1,15
 179 8 179 8 167 14.5 c 128,-1,16
 155 21 155 21 146.5 30 c 128,-1,17
 138 39 138 39 138 50 c 0,18,19
 138 62 138 62 148 75.5 c 128,-1,20
 158 89 158 89 164 98 c 0,21,22
 184 125 184 125 211.5 159.5 c 128,-1,23
 239 194 239 194 272 232 c 1,24,25
 237 234 237 234 204 238 c 128,-1,26
 171 242 171 242 141 249.5 c 128,-1,27
 111 257 111 257 86 267.5 c 128,-1,28
 61 278 61 278 42 294 c 1,29,30
 124 308 124 308 202.5 340.5 c 128,-1,31
 281 373 281 373 348.5 411.5 c 128,-1,32
 416 450 416 450 469.5 489 c 128,-1,33
 523 528 523 528 556 556 c 0,34,35
 579 576 579 576 596 588 c 128,-1,36
 613 600 613 600 624 600 c 0,37,38
 632 600 632 600 646 597 c 128,-1,39
 660 594 660 594 673.5 588.5 c 128,-1,40
 687 583 687 583 696.5 574.5 c 128,-1,41
 706 566 706 566 706 556 c 0,42,43
 706 545 706 545 691.5 528 c 128,-1,44
 677 511 677 511 656 488 c 2,45,-1
 490 300 l 2,46,47
 485 295 485 295 478 287.5 c 128,-1,48
 471 280 471 280 462 268 c 1,49,50
 490 270 490 270 518 273.5 c 128,-1,51
 546 277 546 277 577 282.5 c 128,-1,52
 608 288 608 288 642 296 c 128,-1,53
 676 304 676 304 716 316 c 1,54,-1
 688 284 l 1,0,1
484 462 m 1,55,56
 424 415 424 415 369.5 383.5 c 128,-1,57
 315 352 315 352 268 331 c 128,-1,58
 221 310 221 310 183 299 c 128,-1,59
 145 288 145 288 118 284 c 1,60,61
 160 276 160 276 209.5 271 c 128,-1,62
 259 266 259 266 300 266 c 1,63,64
 344 316 344 316 390.5 365.5 c 128,-1,65
 437 415 437 415 484 462 c 1,55,56
EndSplineSet
EndChar

StartChar: five
Encoding: 53 53 24
Width: 808
Flags: W
LayerCount: 2
Fore
SplineSet
458 584 m 1,0,1
 487 566 487 566 528 558 c 128,-1,2
 569 550 569 550 616 550 c 0,3,4
 678 550 678 550 740.5 563 c 128,-1,5
 803 576 803 576 850 600 c 1,6,-1
 862 586 l 1,7,8
 835 554 835 554 794 529 c 128,-1,9
 753 504 753 504 705 486.5 c 128,-1,10
 657 469 657 469 604.5 459.5 c 128,-1,11
 552 450 552 450 502 450 c 0,12,13
 476 450 476 450 452.5 451.5 c 128,-1,14
 429 453 429 453 406 458 c 1,15,-1
 306 336 l 1,16,17
 324 342 324 342 343 346 c 128,-1,18
 362 350 362 350 382 350 c 0,19,20
 405 350 405 350 428 344 c 128,-1,21
 451 338 451 338 474 324 c 0,22,23
 498 309 498 309 507 285.5 c 128,-1,24
 516 262 516 262 516 226 c 0,25,26
 516 202 516 202 509.5 178 c 128,-1,27
 503 154 503 154 492 134 c 0,28,29
 466 85 466 85 430 55.5 c 128,-1,30
 394 26 394 26 353.5 9.5 c 128,-1,31
 313 -7 313 -7 269 -12.5 c 128,-1,32
 225 -18 225 -18 182 -18 c 0,33,34
 153 -18 153 -18 124 -9 c 128,-1,35
 95 0 95 0 72.5 17 c 128,-1,36
 50 34 50 34 36 58 c 128,-1,37
 22 82 22 82 22 112 c 0,38,39
 22 157 22 157 47.5 185.5 c 128,-1,40
 73 214 73 214 108 214 c 0,41,42
 146 214 146 214 146 176 c 0,43,44
 146 153 146 153 132 143 c 128,-1,45
 118 133 118 133 101.5 128.5 c 128,-1,46
 85 124 85 124 71.5 120 c 128,-1,47
 58 116 58 116 58 104 c 256,48,49
 58 92 58 92 64 78.5 c 128,-1,50
 70 65 70 65 83.5 54 c 128,-1,51
 97 43 97 43 117 35.5 c 128,-1,52
 137 28 137 28 166 28 c 0,53,54
 204 28 204 28 242.5 43 c 128,-1,55
 281 58 281 58 312 85 c 128,-1,56
 343 112 343 112 362.5 149 c 128,-1,57
 382 186 382 186 382 230 c 0,58,59
 382 247 382 247 375 258.5 c 128,-1,60
 368 270 368 270 356 276.5 c 128,-1,61
 344 283 344 283 328.5 285.5 c 128,-1,62
 313 288 313 288 296 288 c 256,63,64
 279 288 279 288 262 286.5 c 128,-1,65
 245 285 245 285 230 282 c 1,66,-1
 226 300 l 1,67,-1
 368 472 l 1,68,-1
 458 584 l 1,0,1
EndSplineSet
EndChar

StartChar: six
Encoding: 54 54 25
Width: 668
Flags: W
LayerCount: 2
Fore
SplineSet
700 600 m 1,0,1
 677 566 677 566 642.5 540.5 c 128,-1,2
 608 515 608 515 565.5 494 c 128,-1,3
 523 473 523 473 477 454 c 128,-1,4
 431 435 431 435 385.5 414 c 128,-1,5
 340 393 340 393 298 367.5 c 128,-1,6
 256 342 256 342 224 308 c 1,7,8
 274 332 274 332 320 337 c 128,-1,9
 366 342 366 342 398 342 c 0,10,11
 458 342 458 342 486 315.5 c 128,-1,12
 514 289 514 289 514 250 c 0,13,14
 514 212 514 212 489.5 167.5 c 128,-1,15
 465 123 465 123 420 85.5 c 128,-1,16
 375 48 375 48 310.5 23 c 128,-1,17
 246 -2 246 -2 166 -2 c 0,18,19
 109 -2 109 -2 71.5 30.5 c 128,-1,20
 34 63 34 63 34 126 c 0,21,22
 34 168 34 168 47.5 211 c 128,-1,23
 61 254 61 254 82 286 c 0,24,25
 119 341 119 341 183 389 c 128,-1,26
 247 437 247 437 328 477.5 c 128,-1,27
 409 518 409 518 500 551 c 128,-1,28
 591 584 591 584 682 610 c 1,29,-1
 700 600 l 1,0,1
186 38 m 0,30,31
 213 38 213 38 247.5 61.5 c 128,-1,32
 282 85 282 85 313 119 c 128,-1,33
 344 153 344 153 365 190.5 c 128,-1,34
 386 228 386 228 386 256 c 0,35,36
 386 273 386 273 369 287.5 c 128,-1,37
 352 302 352 302 310 302 c 0,38,39
 269 302 269 302 241.5 293.5 c 128,-1,40
 214 285 214 285 196 274 c 1,41,42
 172 239 172 239 159 196.5 c 128,-1,43
 146 154 146 154 146 100 c 0,44,45
 146 91 146 91 148.5 80 c 128,-1,46
 151 69 151 69 155.5 60 c 128,-1,47
 160 51 160 51 167.5 44.5 c 128,-1,48
 175 38 175 38 186 38 c 0,30,31
EndSplineSet
EndChar

StartChar: seven
Encoding: 55 55 26
Width: 702
Flags: W
LayerCount: 2
Fore
SplineSet
146 294 m 1,0,1
 239 276 239 276 314 276 c 1,2,3
 322 285 322 285 329 293.5 c 128,-1,4
 336 302 336 302 342 310 c 0,5,6
 347 316 347 316 361 332 c 128,-1,7
 375 348 375 348 393.5 369 c 128,-1,8
 412 390 412 390 433.5 413.5 c 128,-1,9
 455 437 455 437 474.5 459 c 128,-1,10
 494 481 494 481 510 499 c 128,-1,11
 526 517 526 517 534 526 c 1,12,13
 514 528 514 528 496 528 c 128,-1,14
 478 528 478 528 460 528 c 0,15,16
 382 528 382 528 319.5 521.5 c 128,-1,17
 257 515 257 515 198 506 c 1,18,19
 206 518 206 518 222 534 c 0,20,21
 230 542 230 542 242 552 c 1,22,23
 259 557 259 557 290 562.5 c 128,-1,24
 321 568 321 568 359 573.5 c 128,-1,25
 397 579 397 579 438 583.5 c 128,-1,26
 479 588 479 588 517 592 c 128,-1,27
 555 596 555 596 586 598 c 128,-1,28
 617 600 617 600 634 600 c 0,29,30
 642 600 642 600 656 597 c 128,-1,31
 670 594 670 594 683.5 588.5 c 128,-1,32
 697 583 697 583 706.5 574.5 c 128,-1,33
 716 566 716 566 716 556 c 0,34,35
 716 545 716 545 701.5 528 c 128,-1,36
 687 511 687 511 666 488 c 2,37,-1
 500 300 l 2,38,39
 497 297 497 297 492.5 291.5 c 128,-1,40
 488 286 488 286 480 278 c 1,41,42
 513 281 513 281 546 285 c 128,-1,43
 579 289 579 289 618 294 c 1,44,-1
 590 262 l 1,45,46
 521 250 521 250 452 244 c 1,47,48
 433 222 433 222 411 196 c 128,-1,49
 389 170 389 170 367 143 c 128,-1,50
 345 116 345 116 325 91.5 c 128,-1,51
 305 67 305 67 292 48 c 0,52,53
 288 43 288 43 282 35 c 128,-1,54
 276 27 276 27 267 19.5 c 128,-1,55
 258 12 258 12 246.5 6 c 128,-1,56
 235 0 235 0 222 0 c 0,57,58
 214 0 214 0 201.5 4 c 128,-1,59
 189 8 189 8 177 14.5 c 128,-1,60
 165 21 165 21 156.5 30 c 128,-1,61
 148 39 148 39 148 50 c 0,62,63
 148 62 148 62 158 75.5 c 128,-1,64
 168 89 168 89 174 98 c 0,65,66
 184 112 184 112 197 129.5 c 128,-1,67
 210 147 210 147 225 166 c 128,-1,68
 240 185 240 185 255.5 204.5 c 128,-1,69
 271 224 271 224 286 242 c 1,70,71
 238 245 238 245 198.5 252 c 128,-1,72
 159 259 159 259 130 268 c 1,73,-1
 146 294 l 1,0,1
EndSplineSet
EndChar

StartChar: eight
Encoding: 56 56 27
Width: 738
Flags: W
LayerCount: 2
Fore
SplineSet
574 596 m 0,0,1
 597 596 597 596 620.5 592 c 128,-1,2
 644 588 644 588 663 577.5 c 128,-1,3
 682 567 682 567 694 548.5 c 128,-1,4
 706 530 706 530 706 500 c 0,5,6
 706 466 706 466 690.5 440.5 c 128,-1,7
 675 415 675 415 649.5 395.5 c 128,-1,8
 624 376 624 376 589.5 362 c 128,-1,9
 555 348 555 348 518 338 c 1,10,11
 558 313 558 313 558 270 c 0,12,13
 558 208 558 208 523.5 157 c 128,-1,14
 489 106 489 106 436.5 68.5 c 128,-1,15
 384 31 384 31 320 10.5 c 128,-1,16
 256 -10 256 -10 198 -10 c 0,17,18
 172 -10 172 -10 147 -3 c 128,-1,19
 122 4 122 4 101.5 18 c 128,-1,20
 81 32 81 32 68.5 54 c 128,-1,21
 56 76 56 76 56 106 c 0,22,23
 56 166 56 166 83 205.5 c 128,-1,24
 110 245 110 245 153.5 270.5 c 128,-1,25
 197 296 197 296 252.5 311.5 c 128,-1,26
 308 327 308 327 364 340 c 1,27,28
 349 355 349 355 340.5 373 c 128,-1,29
 332 391 332 391 332 414 c 0,30,31
 332 460 332 460 354 494 c 128,-1,32
 376 528 376 528 410.5 550.5 c 128,-1,33
 445 573 445 573 488 584.5 c 128,-1,34
 531 596 531 596 574 596 c 0,0,1
408 304 m 0,35,36
 404 308 404 308 400 310 c 1,37,38
 365 301 365 301 335 293 c 128,-1,39
 305 285 305 285 282 274 c 0,40,41
 222 247 222 247 191 205 c 128,-1,42
 160 163 160 163 160 124 c 0,43,44
 160 86 160 86 179 70 c 128,-1,45
 198 54 198 54 234 54 c 0,46,47
 266 54 266 54 300.5 72.5 c 128,-1,48
 335 91 335 91 363.5 120.5 c 128,-1,49
 392 150 392 150 410 186.5 c 128,-1,50
 428 223 428 223 428 260 c 0,51,52
 428 272 428 272 423.5 284 c 128,-1,53
 419 296 419 296 408 304 c 0,35,36
436 408 m 0,54,55
 436 394 436 394 444 383.5 c 128,-1,56
 452 373 452 373 464 364 c 1,57,58
 496 373 496 373 524 384.5 c 128,-1,59
 552 396 552 396 572.5 411.5 c 128,-1,60
 593 427 593 427 605 447.5 c 128,-1,61
 617 468 617 468 618 496 c 0,62,63
 618 511 618 511 608 521.5 c 128,-1,64
 598 532 598 532 578 532 c 256,65,66
 558 532 558 532 533 524 c 128,-1,67
 508 516 508 516 486.5 500.5 c 128,-1,68
 465 485 465 485 450.5 462 c 128,-1,69
 436 439 436 439 436 408 c 0,54,55
EndSplineSet
EndChar

StartChar: nine
Encoding: 57 57 28
Width: 624
Flags: W
LayerCount: 2
Fore
SplineSet
404 302 m 1,0,1
 418 321 418 321 433.5 343.5 c 128,-1,2
 449 366 449 366 461.5 390.5 c 128,-1,3
 474 415 474 415 482 441.5 c 128,-1,4
 490 468 490 468 490 494 c 0,5,6
 490 514 490 514 481.5 526 c 128,-1,7
 473 538 473 538 458 538 c 0,8,9
 427 538 427 538 397.5 520 c 128,-1,10
 368 502 368 502 345 473.5 c 128,-1,11
 322 445 322 445 308 411 c 128,-1,12
 294 377 294 377 294 346 c 0,13,14
 294 319 294 319 319 309.5 c 128,-1,15
 344 300 344 300 374 300 c 0,16,17
 382 300 382 300 389 300 c 128,-1,18
 396 300 396 300 404 302 c 1,0,1
104 8 m 1,19,20
 148 39 148 39 179.5 62.5 c 128,-1,21
 211 86 211 86 234.5 105.5 c 128,-1,22
 258 125 258 125 274.5 142 c 128,-1,23
 291 159 291 159 306.5 177.5 c 128,-1,24
 322 196 322 196 338 217 c 128,-1,25
 354 238 354 238 376 266 c 1,26,27
 347 257 347 257 318 251.5 c 128,-1,28
 289 246 289 246 262 246 c 0,29,30
 220 246 220 246 192 263 c 128,-1,31
 164 280 164 280 164 324 c 0,32,33
 164 385 164 385 198.5 436 c 128,-1,34
 233 487 233 487 286.5 523.5 c 128,-1,35
 340 560 340 560 403.5 580 c 128,-1,36
 467 600 467 600 526 600 c 0,37,38
 559 600 559 600 579.5 592 c 128,-1,39
 600 584 600 584 612 572 c 128,-1,40
 624 560 624 560 628 545.5 c 128,-1,41
 632 531 632 531 632 518 c 0,42,43
 632 490 632 490 616 445 c 128,-1,44
 600 400 600 400 570 348 c 128,-1,45
 540 296 540 296 496 241.5 c 128,-1,46
 452 187 452 187 395.5 138.5 c 128,-1,47
 339 90 339 90 270.5 52.5 c 128,-1,48
 202 15 202 15 124 -2 c 1,49,-1
 104 8 l 1,19,20
EndSplineSet
EndChar

StartChar: colon
Encoding: 58 58 29
Width: 424
Flags: W
LayerCount: 2
Fore
SplineSet
308 544 m 1,0,1
 308 527 308 527 299 512 c 128,-1,2
 290 497 290 497 275.5 486 c 128,-1,3
 261 475 261 475 242 468.5 c 128,-1,4
 223 462 223 462 204 462 c 0,5,6
 190 462 190 462 176.5 465 c 128,-1,7
 163 468 163 468 151.5 476 c 128,-1,8
 140 484 140 484 133 497.5 c 128,-1,9
 126 511 126 511 126 532 c 0,10,11
 126 550 126 550 136 563 c 128,-1,12
 146 576 146 576 161 584 c 128,-1,13
 176 592 176 592 195 596 c 128,-1,14
 214 600 214 600 232 600 c 0,15,16
 262 600 262 600 282.5 586.5 c 128,-1,17
 303 573 303 573 308 544 c 1,0,1
306 94 m 1,18,19
 306 77 306 77 297 62 c 128,-1,20
 288 47 288 47 273.5 36 c 128,-1,21
 259 25 259 25 240 18.5 c 128,-1,22
 221 12 221 12 202 12 c 0,23,24
 188 12 188 12 174.5 15 c 128,-1,25
 161 18 161 18 149.5 26 c 128,-1,26
 138 34 138 34 131 47.5 c 128,-1,27
 124 61 124 61 124 82 c 0,28,29
 124 100 124 100 134 113 c 128,-1,30
 144 126 144 126 159 134 c 128,-1,31
 174 142 174 142 193 146 c 128,-1,32
 212 150 212 150 230 150 c 0,33,34
 260 150 260 150 280.5 136.5 c 128,-1,35
 301 123 301 123 306 94 c 1,18,19
EndSplineSet
EndChar

StartChar: semicolon
Encoding: 59 59 30
Width: 402
Flags: W
LayerCount: 2
Fore
SplineSet
230 152 m 0,0,1
 242 152 242 152 255.5 148.5 c 128,-1,2
 269 145 269 145 280 137.5 c 128,-1,3
 291 130 291 130 298.5 118 c 128,-1,4
 306 106 306 106 306 90 c 0,5,6
 306 69 306 69 292.5 45.5 c 128,-1,7
 279 22 279 22 258.5 -0.5 c 128,-1,8
 238 -23 238 -23 212 -43.5 c 128,-1,9
 186 -64 186 -64 161 -79.5 c 128,-1,10
 136 -95 136 -95 114 -104.5 c 128,-1,11
 92 -114 92 -114 80 -114 c 0,12,13
 72 -114 72 -114 72 -108 c 256,14,15
 72 -102 72 -102 87.5 -91 c 128,-1,16
 103 -80 103 -80 121 -66 c 128,-1,17
 139 -52 139 -52 154.5 -35.5 c 128,-1,18
 170 -19 170 -19 170 -2 c 0,19,20
 170 10 170 10 163 18 c 128,-1,21
 156 26 156 26 147 34.5 c 128,-1,22
 138 43 138 43 131 54 c 128,-1,23
 124 65 124 65 124 84 c 0,24,25
 124 102 124 102 134 115 c 128,-1,26
 144 128 144 128 159 136 c 128,-1,27
 174 144 174 144 193 148 c 128,-1,28
 212 152 212 152 230 152 c 0,0,1
306 544 m 1,29,30
 306 527 306 527 297 512 c 128,-1,31
 288 497 288 497 273.5 486 c 128,-1,32
 259 475 259 475 240 468.5 c 128,-1,33
 221 462 221 462 202 462 c 0,34,35
 188 462 188 462 174.5 465 c 128,-1,36
 161 468 161 468 149.5 476 c 128,-1,37
 138 484 138 484 131 497.5 c 128,-1,38
 124 511 124 511 124 532 c 0,39,40
 124 550 124 550 134 563 c 128,-1,41
 144 576 144 576 159 584 c 128,-1,42
 174 592 174 592 193 596 c 128,-1,43
 212 600 212 600 230 600 c 0,44,45
 260 600 260 600 280.5 586.5 c 128,-1,46
 301 573 301 573 306 544 c 1,29,30
EndSplineSet
EndChar

StartChar: less
Encoding: 60 60 31
Width: 1062
Flags: W
LayerCount: 2
Fore
SplineSet
68 254 m 1,0,-1
 112 380 l 1,1,-1
 994 680 l 1,2,-1
 972 620 l 1,3,-1
 196 306 l 1,4,-1
 588 130 l 1,5,-1
 610 70 l 1,6,-1
 68 254 l 1,0,-1
EndSplineSet
EndChar

StartChar: equal
Encoding: 61 61 32
Width: 1336
Flags: W
LayerCount: 2
Fore
SplineSet
896 180 m 1,0,-1
 854 132 l 1,1,-1
 244 132 l 1,2,-1
 332 232 l 1,3,-1
 896 180 l 1,0,-1
1050 370 m 1,4,-1
 1008 322 l 1,5,-1
 398 322 l 1,6,-1
 486 422 l 1,7,-1
 1050 370 l 1,4,-1
EndSplineSet
EndChar

StartChar: greater
Encoding: 62 62 33
Width: 1062
Flags: W
LayerCount: 2
Fore
SplineSet
974 496 m 1,0,-1
 930 370 l 1,1,-1
 48 70 l 1,2,-1
 70 130 l 1,3,-1
 844 444 l 1,4,-1
 454 620 l 1,5,-1
 432 680 l 1,6,-1
 974 496 l 1,0,-1
EndSplineSet
EndChar

StartChar: question
Encoding: 63 63 34
Width: 1000
Flags: W
LayerCount: 2
Fore
SplineSet
356 82 m 1,0,1
 356 65 356 65 347 50 c 128,-1,2
 338 35 338 35 323.5 24 c 128,-1,3
 309 13 309 13 290 6.5 c 128,-1,4
 271 0 271 0 252 0 c 0,5,6
 238 0 238 0 224.5 3 c 128,-1,7
 211 6 211 6 199.5 14 c 128,-1,8
 188 22 188 22 181 35.5 c 128,-1,9
 174 49 174 49 174 70 c 0,10,11
 174 88 174 88 184 101 c 128,-1,12
 194 114 194 114 209 122 c 128,-1,13
 224 130 224 130 243 134 c 128,-1,14
 262 138 262 138 280 138 c 0,15,16
 310 138 310 138 330.5 124.5 c 128,-1,17
 351 111 351 111 356 82 c 1,0,1
930 984 m 1,18,19
 909 973 909 973 881.5 968.5 c 128,-1,20
 854 964 854 964 824 964 c 256,21,22
 794 964 794 964 767 972.5 c 128,-1,23
 740 981 740 981 719 997.5 c 128,-1,24
 698 1014 698 1014 686 1037.5 c 128,-1,25
 674 1061 674 1061 674 1090 c 256,26,27
 674 1119 674 1119 689 1152 c 128,-1,28
 704 1185 704 1185 737 1212.5 c 128,-1,29
 770 1240 770 1240 823 1258 c 128,-1,30
 876 1276 876 1276 952 1276 c 0,31,32
 1011 1276 1011 1276 1054 1264 c 128,-1,33
 1097 1252 1097 1252 1127.5 1233.5 c 128,-1,34
 1158 1215 1158 1215 1177.5 1192.5 c 128,-1,35
 1197 1170 1197 1170 1207.5 1147.5 c 128,-1,36
 1218 1125 1218 1125 1222 1106 c 128,-1,37
 1226 1087 1226 1087 1226 1076 c 0,38,39
 1226 1017 1226 1017 1191 962 c 128,-1,40
 1156 907 1156 907 1098.5 855.5 c 128,-1,41
 1041 804 1041 804 967.5 755.5 c 128,-1,42
 894 707 894 707 817 661 c 128,-1,43
 740 615 740 615 666.5 572 c 128,-1,44
 593 529 593 529 535.5 488 c 128,-1,45
 478 447 478 447 443 408.5 c 128,-1,46
 408 370 408 370 408 334 c 0,47,48
 408 311 408 311 415 296.5 c 128,-1,49
 422 282 422 282 432.5 274.5 c 128,-1,50
 443 267 443 267 456 264.5 c 128,-1,51
 469 262 469 262 482 262 c 0,52,53
 517 262 517 262 563.5 279 c 128,-1,54
 610 296 610 296 658 322 c 1,55,-1
 666 312 l 1,56,57
 650 296 650 296 628 280 c 128,-1,58
 606 264 606 264 580 250.5 c 128,-1,59
 554 237 554 237 524.5 228.5 c 128,-1,60
 495 220 495 220 464 220 c 0,61,62
 442 220 442 220 418 225.5 c 128,-1,63
 394 231 394 231 373.5 245 c 128,-1,64
 353 259 353 259 339.5 282.5 c 128,-1,65
 326 306 326 306 326 342 c 0,66,67
 326 399 326 399 370.5 452 c 128,-1,68
 415 505 415 505 484.5 557 c 128,-1,69
 554 609 554 609 639 660 c 128,-1,70
 724 711 724 711 805.5 763 c 128,-1,71
 887 815 887 815 955.5 869.5 c 128,-1,72
 1024 924 1024 924 1060 982 c 1,73,74
 1090 1033 1090 1033 1090 1076 c 0,75,76
 1090 1102 1090 1102 1082.5 1123.5 c 128,-1,77
 1075 1145 1075 1145 1057 1160 c 128,-1,78
 1039 1175 1039 1175 1009 1183.5 c 128,-1,79
 979 1192 979 1192 934 1192 c 0,80,81
 899 1192 899 1192 863.5 1185.5 c 128,-1,82
 828 1179 828 1179 799.5 1165.5 c 128,-1,83
 771 1152 771 1152 753.5 1129.5 c 128,-1,84
 736 1107 736 1107 736 1076 c 0,85,86
 736 1050 736 1050 747.5 1033.5 c 128,-1,87
 759 1017 759 1017 777 1008 c 128,-1,88
 795 999 795 999 818.5 995.5 c 128,-1,89
 842 992 842 992 866 992 c 0,90,91
 874 992 874 992 882 992 c 128,-1,92
 890 992 890 992 896 994 c 1,93,-1
 930 984 l 1,18,19
EndSplineSet
EndChar

StartChar: at
Encoding: 64 64 35
Width: 1376
Flags: W
LayerCount: 2
Fore
SplineSet
842 -102 m 1,0,1
 733 -167 733 -167 631.5 -191.5 c 128,-1,2
 530 -216 530 -216 436 -216 c 0,3,4
 362 -216 362 -216 301.5 -197 c 128,-1,5
 241 -178 241 -178 197.5 -142 c 128,-1,6
 154 -106 154 -106 130 -53 c 128,-1,7
 106 0 106 0 106 68 c 0,8,9
 106 151 106 151 135 231.5 c 128,-1,10
 164 312 164 312 215 384 c 128,-1,11
 266 456 266 456 335 516.5 c 128,-1,12
 404 577 404 577 483 621.5 c 128,-1,13
 562 666 562 666 648 691 c 128,-1,14
 734 716 734 716 820 716 c 0,15,16
 896 716 896 716 967 705 c 128,-1,17
 1038 694 1038 694 1092.5 668 c 128,-1,18
 1147 642 1147 642 1179.5 598.5 c 128,-1,19
 1212 555 1212 555 1212 490 c 0,20,21
 1212 435 1212 435 1192 377 c 128,-1,22
 1172 319 1172 319 1138.5 264.5 c 128,-1,23
 1105 210 1105 210 1060 161.5 c 128,-1,24
 1015 113 1015 113 965.5 76.5 c 128,-1,25
 916 40 916 40 864 19 c 128,-1,26
 812 -2 812 -2 764 -2 c 0,27,28
 744 -2 744 -2 722.5 3 c 128,-1,29
 701 8 701 8 683.5 18.5 c 128,-1,30
 666 29 666 29 655 44.5 c 128,-1,31
 644 60 644 60 644 80 c 0,32,33
 644 92 644 92 646 102 c 128,-1,34
 648 112 648 112 656 124 c 1,35,36
 590 59 590 59 527.5 28.5 c 128,-1,37
 465 -2 465 -2 414 -2 c 0,38,39
 373 -2 373 -2 348 8.5 c 128,-1,40
 323 19 323 19 309.5 36.5 c 128,-1,41
 296 54 296 54 291 76.5 c 128,-1,42
 286 99 286 99 286 122 c 0,43,44
 286 159 286 159 304 201 c 128,-1,45
 322 243 322 243 352 283 c 128,-1,46
 382 323 382 323 422 360 c 128,-1,47
 462 397 462 397 506 425 c 128,-1,48
 550 453 550 453 595 469.5 c 128,-1,49
 640 486 640 486 682 486 c 0,50,51
 736 486 736 486 773 466 c 128,-1,52
 810 446 810 446 810 400 c 0,53,54
 810 373 810 373 798 340 c 1,55,-1
 770 326 l 1,56,57
 772 337 772 337 773 346 c 128,-1,58
 774 355 774 355 774 366 c 0,59,60
 774 390 774 390 762.5 412 c 128,-1,61
 751 434 751 434 718 434 c 0,62,63
 683 434 683 434 646.5 417.5 c 128,-1,64
 610 401 610 401 575.5 374 c 128,-1,65
 541 347 541 347 510.5 312.5 c 128,-1,66
 480 278 480 278 457 243.5 c 128,-1,67
 434 209 434 209 421 177 c 128,-1,68
 408 145 408 145 408 122 c 0,69,70
 408 89 408 89 422.5 78.5 c 128,-1,71
 437 68 437 68 472 68 c 0,72,73
 513 68 513 68 556 93 c 128,-1,74
 599 118 599 118 650 160 c 1,75,76
 667 178 667 178 686.5 197 c 128,-1,77
 706 216 706 216 726 240 c 1,78,79
 742 256 742 256 763.5 281 c 128,-1,80
 785 306 785 306 809 333 c 128,-1,81
 833 360 833 360 857 387.5 c 128,-1,82
 881 415 881 415 903 437 c 128,-1,83
 925 459 925 459 943.5 472.5 c 128,-1,84
 962 486 962 486 974 486 c 0,85,86
 981 486 981 486 992.5 483.5 c 128,-1,87
 1004 481 1004 481 1015 476.5 c 128,-1,88
 1026 472 1026 472 1034 465 c 128,-1,89
 1042 458 1042 458 1042 450 c 256,90,91
 1042 442 1042 442 1030 427.5 c 128,-1,92
 1018 413 1018 413 1000 396 c 1,93,-1
 852 226 l 2,94,95
 813 182 813 182 784.5 143.5 c 128,-1,96
 756 105 756 105 756 78 c 0,97,98
 756 55 756 55 773 46.5 c 128,-1,99
 790 38 790 38 814 38 c 0,100,101
 844 38 844 38 882.5 57.5 c 128,-1,102
 921 77 921 77 961 110 c 128,-1,103
 1001 143 1001 143 1039 187 c 128,-1,104
 1077 231 1077 231 1107 280.5 c 128,-1,105
 1137 330 1137 330 1155.5 381.5 c 128,-1,106
 1174 433 1174 433 1174 482 c 0,107,108
 1174 579 1174 579 1082 627.5 c 128,-1,109
 990 676 990 676 816 676 c 0,110,111
 745 676 745 676 668 654 c 128,-1,112
 591 632 591 632 517.5 592 c 128,-1,113
 444 552 444 552 377.5 496.5 c 128,-1,114
 311 441 311 441 261 373.5 c 128,-1,115
 211 306 211 306 181.5 228.5 c 128,-1,116
 152 151 152 151 152 68 c 0,117,118
 152 20 152 20 169 -25 c 128,-1,119
 186 -70 186 -70 220.5 -104.5 c 128,-1,120
 255 -139 255 -139 308 -159.5 c 128,-1,121
 361 -180 361 -180 432 -180 c 0,122,123
 470 -180 470 -180 515.5 -175.5 c 128,-1,124
 561 -171 561 -171 611.5 -159 c 128,-1,125
 662 -147 662 -147 716 -127.5 c 128,-1,126
 770 -108 770 -108 826 -78 c 1,127,-1
 842 -102 l 1,0,1
EndSplineSet
EndChar

StartChar: A
Encoding: 65 65 36
Width: 2022
Flags: W
LayerCount: 2
Fore
SplineSet
1558 710 m 1,0,-1
 1330 710 l 1,1,-1
 1394 800 l 1,2,-1
 1638 788 l 1,3,-1
 1750 898 l 2,4,5
 1957 1102 1957 1102 2183.5 1254 c 128,-1,6
 2410 1406 2410 1406 2656 1506 c 0,7,8
 2661 1508 2661 1508 2671 1510 c 128,-1,9
 2681 1512 2681 1512 2692 1512 c 0,10,11
 2701 1512 2701 1512 2707.5 1509.5 c 128,-1,12
 2714 1507 2714 1507 2714 1498 c 0,13,14
 2714 1482 2714 1482 2708.5 1471 c 128,-1,15
 2703 1460 2703 1460 2695 1452.5 c 128,-1,16
 2687 1445 2687 1445 2678.5 1440 c 128,-1,17
 2670 1435 2670 1435 2664 1432 c 0,18,19
 2626 1414 2626 1414 2575.5 1374 c 128,-1,20
 2525 1334 2525 1334 2468 1280.5 c 128,-1,21
 2411 1227 2411 1227 2350 1163.5 c 128,-1,22
 2289 1100 2289 1100 2228.5 1032.5 c 128,-1,23
 2168 965 2168 965 2111 898 c 128,-1,24
 2054 831 2054 831 2006 772 c 1,25,-1
 2164 766 l 1,26,-1
 2130 710 l 1,27,-1
 1954 710 l 1,28,29
 1904 651 1904 651 1849.5 591.5 c 128,-1,30
 1795 532 1795 532 1742 474 c 128,-1,31
 1689 416 1689 416 1641 361.5 c 128,-1,32
 1593 307 1593 307 1556 260 c 128,-1,33
 1519 213 1519 213 1497.5 175 c 128,-1,34
 1476 137 1476 137 1476 112 c 0,35,36
 1476 71 1476 71 1490 58.5 c 128,-1,37
 1504 46 1504 46 1542 46 c 0,38,39
 1584 46 1584 46 1638 59.5 c 128,-1,40
 1692 73 1692 73 1748.5 93 c 128,-1,41
 1805 113 1805 113 1859.5 137 c 128,-1,42
 1914 161 1914 161 1958 182 c 1,43,-1
 1968 158 l 1,44,45
 1816 84 1816 84 1693 41 c 128,-1,46
 1570 -2 1570 -2 1484 -2 c 0,47,48
 1460 -2 1460 -2 1434 2 c 128,-1,49
 1408 6 1408 6 1386 19 c 128,-1,50
 1364 32 1364 32 1350 56 c 128,-1,51
 1336 80 1336 80 1336 120 c 0,52,53
 1336 155 1336 155 1372 213 c 128,-1,54
 1408 271 1408 271 1469.5 347 c 128,-1,55
 1531 423 1531 423 1612 514.5 c 128,-1,56
 1693 606 1693 606 1784 710 c 1,57,-1
 1626 710 l 1,58,59
 1543 624 1543 624 1455 538 c 128,-1,60
 1367 452 1367 452 1274 371.5 c 128,-1,61
 1181 291 1181 291 1082.5 220.5 c 128,-1,62
 984 150 984 150 878 96 c 0,63,64
 822 68 822 68 774 49.5 c 128,-1,65
 726 31 726 31 682.5 19.5 c 128,-1,66
 639 8 639 8 598.5 3 c 128,-1,67
 558 -2 558 -2 518 -2 c 0,68,69
 467 -2 467 -2 431.5 12.5 c 128,-1,70
 396 27 396 27 374 49.5 c 128,-1,71
 352 72 352 72 342 99 c 128,-1,72
 332 126 332 126 332 152 c 0,73,74
 332 183 332 183 343 209.5 c 128,-1,75
 354 236 354 236 372 255.5 c 128,-1,76
 390 275 390 275 413.5 285.5 c 128,-1,77
 437 296 437 296 462 296 c 0,78,79
 476 296 476 296 490 292.5 c 128,-1,80
 504 289 504 289 514.5 280.5 c 128,-1,81
 525 272 525 272 531.5 257 c 128,-1,82
 538 242 538 242 538 220 c 0,83,84
 538 188 538 188 522.5 168 c 128,-1,85
 507 148 507 148 489 134 c 128,-1,86
 471 120 471 120 455.5 108.5 c 128,-1,87
 440 97 440 97 440 82 c 0,88,89
 440 71 440 71 449 63.5 c 128,-1,90
 458 56 458 56 471 51.5 c 128,-1,91
 484 47 484 47 499 45.5 c 128,-1,92
 514 44 514 44 526 44 c 0,93,94
 574 44 574 44 614.5 49.5 c 128,-1,95
 655 55 655 55 693.5 66 c 128,-1,96
 732 77 732 77 771.5 93.5 c 128,-1,97
 811 110 811 110 858 132 c 0,98,99
 886 145 886 145 925.5 169 c 128,-1,100
 965 193 965 193 1009.5 224 c 128,-1,101
 1054 255 1054 255 1100 290 c 128,-1,102
 1146 325 1146 325 1189 360 c 128,-1,103
 1232 395 1232 395 1268.5 427.5 c 128,-1,104
 1305 460 1305 460 1330 486 c 1,105,-1
 1558 710 l 1,0,-1
1700 786 m 1,106,-1
 1846 780 l 1,107,108
 1890 830 1890 830 1927.5 872 c 128,-1,109
 1965 914 1965 914 2000 952.5 c 128,-1,110
 2035 991 2035 991 2069.5 1028.5 c 128,-1,111
 2104 1066 2104 1066 2143.5 1107.5 c 128,-1,112
 2183 1149 2183 1149 2229 1195.5 c 128,-1,113
 2275 1242 2275 1242 2332 1300 c 1,114,115
 2271 1265 2271 1265 2197 1213.5 c 128,-1,116
 2123 1162 2123 1162 2048 1103 c 128,-1,117
 1973 1044 1973 1044 1903.5 983 c 128,-1,118
 1834 922 1834 922 1782 870 c 2,119,-1
 1700 786 l 1,106,-1
EndSplineSet
EndChar

StartChar: B
Encoding: 66 66 37
Width: 2438
Flags: W
LayerCount: 2
Fore
SplineSet
2260 1398 m 0,0,1
 2216 1398 2216 1398 2166 1396 c 128,-1,2
 2116 1394 2116 1394 2062 1387.5 c 128,-1,3
 2008 1381 2008 1381 1952 1368.5 c 128,-1,4
 1896 1356 1896 1356 1840 1336 c 0,5,6
 1788 1317 1788 1317 1739 1291.5 c 128,-1,7
 1690 1266 1690 1266 1651.5 1233.5 c 128,-1,8
 1613 1201 1613 1201 1589.5 1162 c 128,-1,9
 1566 1123 1566 1123 1566 1078 c 0,10,11
 1566 1052 1566 1052 1575 1035 c 128,-1,12
 1584 1018 1584 1018 1596 1018 c 0,13,14
 1632 1018 1632 1018 1670.5 1033 c 128,-1,15
 1709 1048 1709 1048 1747 1072.5 c 128,-1,16
 1785 1097 1785 1097 1821.5 1128.5 c 128,-1,17
 1858 1160 1858 1160 1890 1192.5 c 128,-1,18
 1922 1225 1922 1225 1948.5 1256 c 128,-1,19
 1975 1287 1975 1287 1994 1312 c 1,20,-1
 2010 1286 l 1,21,22
 1961 1192 1961 1192 1899 1118 c 0,23,24
 1872 1086 1872 1086 1840 1056 c 128,-1,25
 1808 1026 1808 1026 1770.5 1002.5 c 128,-1,26
 1733 979 1733 979 1690 964.5 c 128,-1,27
 1647 950 1647 950 1600 950 c 0,28,29
 1579 950 1579 950 1561.5 960.5 c 128,-1,30
 1544 971 1544 971 1531 988 c 128,-1,31
 1518 1005 1518 1005 1511 1027 c 128,-1,32
 1504 1049 1504 1049 1504 1072 c 0,33,34
 1504 1100 1504 1100 1515 1128.5 c 128,-1,35
 1526 1157 1526 1157 1544.5 1184.5 c 128,-1,36
 1563 1212 1563 1212 1588 1237 c 128,-1,37
 1613 1262 1613 1262 1642 1282 c 0,38,39
 1698 1321 1698 1321 1769 1351 c 128,-1,40
 1840 1381 1840 1381 1919.5 1401 c 128,-1,41
 1999 1421 1999 1421 2082.5 1431.5 c 128,-1,42
 2166 1442 2166 1442 2248 1442 c 0,43,44
 2263 1442 2263 1442 2278 1442 c 128,-1,45
 2293 1442 2293 1442 2308 1440 c 1,46,47
 2356 1437 2356 1437 2398 1428 c 1,48,49
 2479 1470 2479 1470 2566 1494 c 1,50,-1
 2582 1468 l 1,51,52
 2555 1451 2555 1451 2528.5 1435.5 c 128,-1,53
 2502 1420 2502 1420 2478 1402 c 1,54,55
 2538 1375 2538 1375 2568 1332 c 128,-1,56
 2598 1289 2598 1289 2598 1236 c 0,57,58
 2598 1195 2598 1195 2583 1153.5 c 128,-1,59
 2568 1112 2568 1112 2541 1073.5 c 128,-1,60
 2514 1035 2514 1035 2477.5 1002 c 128,-1,61
 2441 969 2441 969 2398 944 c 1,62,63
 2427 909 2427 909 2441.5 865.5 c 128,-1,64
 2456 822 2456 822 2456 780 c 0,65,66
 2456 710 2456 710 2432 633 c 128,-1,67
 2408 556 2408 556 2366 480 c 128,-1,68
 2324 404 2324 404 2266.5 332 c 128,-1,69
 2209 260 2209 260 2141 199.5 c 128,-1,70
 2073 139 2073 139 1998 92.5 c 128,-1,71
 1923 46 1923 46 1846 22 c 0,72,73
 1832 17 1832 17 1813.5 13.5 c 128,-1,74
 1795 10 1795 10 1775.5 7.5 c 128,-1,75
 1756 5 1756 5 1737.5 3.5 c 128,-1,76
 1719 2 1719 2 1706 2 c 0,77,78
 1677 2 1677 2 1652 9.5 c 128,-1,79
 1627 17 1627 17 1608.5 34 c 128,-1,80
 1590 51 1590 51 1579 79 c 128,-1,81
 1568 107 1568 107 1568 148 c 0,82,83
 1568 185 1568 185 1577 226 c 128,-1,84
 1586 267 1586 267 1610 313.5 c 128,-1,85
 1634 360 1634 360 1675 413 c 128,-1,86
 1716 466 1716 466 1780 528 c 1,87,-1
 1794 506 l 1,88,89
 1770 480 1770 480 1739.5 444 c 128,-1,90
 1709 408 1709 408 1682 365 c 128,-1,91
 1655 322 1655 322 1636.5 274.5 c 128,-1,92
 1618 227 1618 227 1618 180 c 0,93,94
 1618 126 1618 126 1639.5 105 c 128,-1,95
 1661 84 1661 84 1696 84 c 0,96,97
 1752 84 1752 84 1806.5 105 c 128,-1,98
 1861 126 1861 126 1912.5 160.5 c 128,-1,99
 1964 195 1964 195 2011.5 239.5 c 128,-1,100
 2059 284 2059 284 2100.5 332.5 c 128,-1,101
 2142 381 2142 381 2175.5 429 c 128,-1,102
 2209 477 2209 477 2234 518 c 0,103,104
 2247 540 2247 540 2263 572.5 c 128,-1,105
 2279 605 2279 605 2293.5 643.5 c 128,-1,106
 2308 682 2308 682 2318 723 c 128,-1,107
 2328 764 2328 764 2328 802 c 0,108,109
 2328 831 2328 831 2323.5 858 c 128,-1,110
 2319 885 2319 885 2310 906 c 1,111,112
 2286 898 2286 898 2262 895 c 128,-1,113
 2238 892 2238 892 2214 892 c 2,114,-1
 2206 892 l 1,115,116
 2185 893 2185 893 2169 900.5 c 128,-1,117
 2153 908 2153 908 2142 918.5 c 128,-1,118
 2131 929 2131 929 2125.5 941 c 128,-1,119
 2120 953 2120 953 2120 964 c 0,120,121
 2120 991 2120 991 2143.5 1012.5 c 128,-1,122
 2167 1034 2167 1034 2218 1034 c 0,123,124
 2254 1034 2254 1034 2286 1024 c 128,-1,125
 2318 1014 2318 1014 2344 996 c 1,126,127
 2371 1019 2371 1019 2398 1047.5 c 128,-1,128
 2425 1076 2425 1076 2446 1106.5 c 128,-1,129
 2467 1137 2467 1137 2480.5 1168 c 128,-1,130
 2494 1199 2494 1199 2494 1228 c 0,131,132
 2494 1270 2494 1270 2480.5 1306 c 128,-1,133
 2467 1342 2467 1342 2426 1366 c 1,134,135
 2359 1315 2359 1315 2301.5 1261 c 128,-1,136
 2244 1207 2244 1207 2193 1153.5 c 128,-1,137
 2142 1100 2142 1100 2098 1049 c 128,-1,138
 2054 998 2054 998 2014 954 c 0,139,140
 1984 921 1984 921 1944 874.5 c 128,-1,141
 1904 828 1904 828 1857 774.5 c 128,-1,142
 1810 721 1810 721 1759 663 c 128,-1,143
 1708 605 1708 605 1656.5 546.5 c 128,-1,144
 1605 488 1605 488 1554 432.5 c 128,-1,145
 1503 377 1503 377 1458 330 c 0,146,147
 1388 257 1388 257 1315 196 c 128,-1,148
 1242 135 1242 135 1163 90.5 c 128,-1,149
 1084 46 1084 46 999 21 c 128,-1,150
 914 -4 914 -4 820 -4 c 0,151,152
 711 -4 711 -4 651.5 38 c 128,-1,153
 592 80 592 80 592 148 c 0,154,155
 592 173 592 173 600 199.5 c 128,-1,156
 608 226 608 226 624.5 247.5 c 128,-1,157
 641 269 641 269 665.5 282.5 c 128,-1,158
 690 296 690 296 722 296 c 0,159,160
 758 296 758 296 778 277 c 128,-1,161
 798 258 798 258 798 222 c 0,162,163
 798 189 798 189 782.5 168.5 c 128,-1,164
 767 148 767 148 749 134 c 128,-1,165
 731 120 731 120 715.5 108.5 c 128,-1,166
 700 97 700 97 700 82 c 0,167,168
 700 61 700 61 724 50.5 c 128,-1,169
 748 40 748 40 790 40 c 0,170,171
 870 40 870 40 939 64 c 128,-1,172
 1008 88 1008 88 1071 131 c 128,-1,173
 1134 174 1134 174 1194.5 234 c 128,-1,174
 1255 294 1255 294 1318 366 c 0,175,176
 1415 476 1415 476 1527.5 602 c 128,-1,177
 1640 728 1640 728 1758 862 c 0,178,179
 1816 928 1816 928 1882.5 1000 c 128,-1,180
 1949 1072 1949 1072 2022 1142.5 c 128,-1,181
 2095 1213 2095 1213 2174 1277.5 c 128,-1,182
 2253 1342 2253 1342 2336 1392 c 1,183,184
 2303 1398 2303 1398 2260 1398 c 0,0,1
EndSplineSet
EndChar

StartChar: C
Encoding: 67 67 38
Width: 1792
Flags: W
LayerCount: 2
Fore
SplineSet
2376 1452 m 0,0,1
 2405 1429 2405 1429 2421.5 1394 c 128,-1,2
 2438 1359 2438 1359 2438 1320 c 0,3,4
 2438 1273 2438 1273 2415 1232 c 128,-1,5
 2392 1191 2392 1191 2356 1160.5 c 128,-1,6
 2320 1130 2320 1130 2277.5 1112 c 128,-1,7
 2235 1094 2235 1094 2196 1094 c 0,8,9
 2179 1094 2179 1094 2159 1097 c 128,-1,10
 2139 1100 2139 1100 2122 1108 c 128,-1,11
 2105 1116 2105 1116 2093.5 1130.5 c 128,-1,12
 2082 1145 2082 1145 2082 1168 c 0,13,14
 2082 1187 2082 1187 2090.5 1204.5 c 128,-1,15
 2099 1222 2099 1222 2113.5 1235.5 c 128,-1,16
 2128 1249 2128 1249 2147 1257.5 c 128,-1,17
 2166 1266 2166 1266 2186 1266 c 0,18,19
 2212 1266 2212 1266 2223 1254 c 128,-1,20
 2234 1242 2234 1242 2234 1230 c 0,21,22
 2234 1210 2234 1210 2221.5 1199 c 128,-1,23
 2209 1188 2209 1188 2194 1180.5 c 128,-1,24
 2179 1173 2179 1173 2166.5 1167 c 128,-1,25
 2154 1161 2154 1161 2154 1152 c 0,26,27
 2154 1136 2154 1136 2186 1136 c 0,28,29
 2208 1136 2208 1136 2236 1147.5 c 128,-1,30
 2264 1159 2264 1159 2289 1182 c 128,-1,31
 2314 1205 2314 1205 2331 1239.5 c 128,-1,32
 2348 1274 2348 1274 2348 1320 c 0,33,34
 2348 1362 2348 1362 2320 1388 c 128,-1,35
 2292 1414 2292 1414 2238 1414 c 256,36,37
 2184 1414 2184 1414 2108.5 1387.5 c 128,-1,38
 2033 1361 2033 1361 1946 1314 c 128,-1,39
 1859 1267 1859 1267 1764.5 1201.5 c 128,-1,40
 1670 1136 1670 1136 1578.5 1057 c 128,-1,41
 1487 978 1487 978 1402 888.5 c 128,-1,42
 1317 799 1317 799 1248 704.5 c 128,-1,43
 1179 610 1179 610 1131.5 512.5 c 128,-1,44
 1084 415 1084 415 1066 320 c 1,45,46
 1054 251 1054 251 1054 204 c 0,47,48
 1054 166 1054 166 1068.5 140 c 128,-1,49
 1083 114 1083 114 1108.5 98 c 128,-1,50
 1134 82 1134 82 1168.5 75 c 128,-1,51
 1203 68 1203 68 1242 68 c 0,52,53
 1302 68 1302 68 1366.5 82 c 128,-1,54
 1431 96 1431 96 1489 115.5 c 128,-1,55
 1547 135 1547 135 1592 155.5 c 128,-1,56
 1637 176 1637 176 1658 190 c 1,57,58
 1661 182 1661 182 1663.5 176.5 c 128,-1,59
 1666 171 1666 171 1668 166 c 1,60,61
 1639 146 1639 146 1583 117 c 128,-1,62
 1527 88 1527 88 1455.5 61.5 c 128,-1,63
 1384 35 1384 35 1302.5 16.5 c 128,-1,64
 1221 -2 1221 -2 1140 -2 c 0,65,66
 1031 -2 1031 -2 971.5 54 c 128,-1,67
 912 110 912 110 912 226 c 0,68,69
 912 323 912 323 949 429.5 c 128,-1,70
 986 536 986 536 1050.5 643.5 c 128,-1,71
 1115 751 1115 751 1202 855.5 c 128,-1,72
 1289 960 1289 960 1388.5 1054.5 c 128,-1,73
 1488 1149 1488 1149 1596.5 1229 c 128,-1,74
 1705 1309 1705 1309 1811.5 1368 c 128,-1,75
 1918 1427 1918 1427 2018.5 1460.5 c 128,-1,76
 2119 1494 2119 1494 2204 1494 c 0,77,78
 2223 1494 2223 1494 2246.5 1492.5 c 128,-1,79
 2270 1491 2270 1491 2293 1486.5 c 128,-1,80
 2316 1482 2316 1482 2337.5 1473.5 c 128,-1,81
 2359 1465 2359 1465 2376 1452 c 0,0,1
EndSplineSet
EndChar

StartChar: D
Encoding: 68 68 39
Width: 2460
Flags: W
LayerCount: 2
Fore
SplineSet
2398 1514 m 0,0,1
 2475 1514 2475 1514 2526.5 1489.5 c 128,-1,2
 2578 1465 2578 1465 2608 1420 c 1,3,4
 2664 1452 2664 1452 2715.5 1472.5 c 128,-1,5
 2767 1493 2767 1493 2806 1496 c 1,6,-1
 2822 1470 l 1,7,8
 2775 1443 2775 1443 2730 1411.5 c 128,-1,9
 2685 1380 2685 1380 2640 1344 c 1,10,11
 2646 1318 2646 1318 2650 1289 c 128,-1,12
 2654 1260 2654 1260 2654 1228 c 0,13,14
 2654 1066 2654 1066 2612 927 c 128,-1,15
 2570 788 2570 788 2499 671.5 c 128,-1,16
 2428 555 2428 555 2334 459.5 c 128,-1,17
 2240 364 2240 364 2135.5 289.5 c 128,-1,18
 2031 215 2031 215 1923 160 c 128,-1,19
 1815 105 1815 105 1715.5 69.5 c 128,-1,20
 1616 34 1616 34 1532 16 c 128,-1,21
 1448 -2 1448 -2 1392 -2 c 0,22,23
 1344 -2 1344 -2 1292 13 c 128,-1,24
 1240 28 1240 28 1186 48 c 1,25,26
 1126 31 1126 31 1070.5 23.5 c 128,-1,27
 1015 16 1015 16 964 16 c 0,28,29
 946 16 946 16 925 20.5 c 128,-1,30
 904 25 904 25 886 34.5 c 128,-1,31
 868 44 868 44 856 59 c 128,-1,32
 844 74 844 74 844 94 c 0,33,34
 844 109 844 109 855.5 121.5 c 128,-1,35
 867 134 867 134 884 143 c 128,-1,36
 901 152 901 152 921 157 c 128,-1,37
 941 162 941 162 958 162 c 0,38,39
 1015 162 1015 162 1067 146 c 128,-1,40
 1119 130 1119 130 1170 110 c 1,41,42
 1245 144 1245 144 1317 192 c 128,-1,43
 1389 240 1389 240 1450 289 c 128,-1,44
 1511 338 1511 338 1557 380.5 c 128,-1,45
 1603 423 1603 423 1626 446 c 1,46,47
 1655 467 1655 467 1703 515 c 128,-1,48
 1751 563 1751 563 1808 625 c 128,-1,49
 1865 687 1865 687 1927 758.5 c 128,-1,50
 1989 830 1989 830 2048 898.5 c 128,-1,51
 2107 967 2107 967 2158 1027 c 128,-1,52
 2209 1087 2209 1087 2244 1128 c 0,53,54
 2268 1156 2268 1156 2303.5 1190 c 128,-1,55
 2339 1224 2339 1224 2382 1259.5 c 128,-1,56
 2425 1295 2425 1295 2472.5 1330 c 128,-1,57
 2520 1365 2520 1365 2568 1396 c 1,58,59
 2544 1444 2544 1444 2505.5 1460 c 128,-1,60
 2467 1476 2467 1476 2420 1476 c 0,61,62
 2308 1476 2308 1476 2203 1438.5 c 128,-1,63
 2098 1401 2098 1401 2007 1341 c 128,-1,64
 1916 1281 1916 1281 1840.5 1205 c 128,-1,65
 1765 1129 1765 1129 1711 1051 c 128,-1,66
 1657 973 1657 973 1627.5 900.5 c 128,-1,67
 1598 828 1598 828 1598 776 c 0,68,69
 1598 755 1598 755 1613.5 744.5 c 128,-1,70
 1629 734 1629 734 1658 734 c 0,71,72
 1692 734 1692 734 1734 746 c 128,-1,73
 1776 758 1776 758 1827 794 c 128,-1,74
 1878 830 1878 830 1940 897.5 c 128,-1,75
 2002 965 2002 965 2078 1076 c 1,76,-1
 2094 1058 l 1,77,78
 2044 963 2044 963 1990 886.5 c 128,-1,79
 1936 810 1936 810 1877.5 756 c 128,-1,80
 1819 702 1819 702 1757.5 673 c 128,-1,81
 1696 644 1696 644 1632 644 c 0,82,83
 1581 644 1581 644 1551 662.5 c 128,-1,84
 1521 681 1521 681 1505 712.5 c 128,-1,85
 1489 744 1489 744 1484.5 784 c 128,-1,86
 1480 824 1480 824 1480 868 c 0,87,88
 1480 933 1480 933 1510.5 1006 c 128,-1,89
 1541 1079 1541 1079 1598.5 1151 c 128,-1,90
 1656 1223 1656 1223 1737.5 1288.5 c 128,-1,91
 1819 1354 1819 1354 1921 1404 c 128,-1,92
 2023 1454 2023 1454 2143 1484 c 128,-1,93
 2263 1514 2263 1514 2398 1514 c 0,0,1
2000 646 m 2,94,95
 1900 527 1900 527 1803.5 434 c 128,-1,96
 1707 341 1707 341 1614.5 271 c 128,-1,97
 1522 201 1522 201 1434 152.5 c 128,-1,98
 1346 104 1346 104 1264 74 c 1,99,100
 1297 62 1297 62 1331.5 55 c 128,-1,101
 1366 48 1366 48 1402 48 c 0,102,103
 1472 48 1472 48 1561.5 70.5 c 128,-1,104
 1651 93 1651 93 1748.5 136 c 128,-1,105
 1846 179 1846 179 1947.5 240 c 128,-1,106
 2049 301 2049 301 2144 378 c 128,-1,107
 2239 455 2239 455 2323 546 c 128,-1,108
 2407 637 2407 637 2469.5 740 c 128,-1,109
 2532 843 2532 843 2568 955.5 c 128,-1,110
 2604 1068 2604 1068 2604 1188 c 0,111,112
 2604 1223 2604 1223 2602.5 1253.5 c 128,-1,113
 2601 1284 2601 1284 2596 1308 c 1,114,115
 2521 1246 2521 1246 2453.5 1178 c 128,-1,116
 2386 1110 2386 1110 2330 1042 c 2,117,-1
 2000 646 l 2,94,95
968 106 m 1,118,119
 944 106 944 106 929 100.5 c 128,-1,120
 914 95 914 95 914 86 c 0,121,122
 914 74 914 74 933 67 c 128,-1,123
 952 60 952 60 970 60 c 0,124,125
 1000 60 1000 60 1031 65.5 c 128,-1,126
 1062 71 1062 71 1094 80 c 1,127,128
 1061 91 1061 91 1029.5 97.5 c 128,-1,129
 998 104 998 104 968 106 c 1,118,119
EndSplineSet
EndChar

StartChar: E
Encoding: 69 69 40
Width: 2000
Flags: W
LayerCount: 2
Fore
SplineSet
1714 1300 m 1,0,1
 1705 1298 1705 1298 1685 1288.5 c 128,-1,2
 1665 1279 1665 1279 1639.5 1264 c 128,-1,3
 1614 1249 1614 1249 1587.5 1228.5 c 128,-1,4
 1561 1208 1561 1208 1538.5 1183.5 c 128,-1,5
 1516 1159 1516 1159 1502 1131 c 128,-1,6
 1488 1103 1488 1103 1488 1074 c 0,7,8
 1488 1052 1488 1052 1497.5 1033.5 c 128,-1,9
 1507 1015 1507 1015 1527.5 1001.5 c 128,-1,10
 1548 988 1548 988 1580 980 c 128,-1,11
 1612 972 1612 972 1658 972 c 0,12,13
 1681 972 1681 972 1704 973.5 c 128,-1,14
 1727 975 1727 975 1750 980 c 1,15,-1
 1750 1006 l 2,16,17
 1750 1075 1750 1075 1771.5 1138 c 128,-1,18
 1793 1201 1793 1201 1829 1255 c 128,-1,19
 1865 1309 1865 1309 1913.5 1352.5 c 128,-1,20
 1962 1396 1962 1396 2015 1426.5 c 128,-1,21
 2068 1457 2068 1457 2123.5 1473.5 c 128,-1,22
 2179 1490 2179 1490 2230 1490 c 0,23,24
 2264 1490 2264 1490 2287 1479.5 c 128,-1,25
 2310 1469 2310 1469 2324 1452.5 c 128,-1,26
 2338 1436 2338 1436 2344 1415.5 c 128,-1,27
 2350 1395 2350 1395 2350 1376 c 0,28,29
 2350 1350 2350 1350 2341.5 1314 c 128,-1,30
 2333 1278 2333 1278 2298 1231.5 c 128,-1,31
 2263 1185 2263 1185 2192 1128 c 128,-1,32
 2121 1071 2121 1071 1996 1004 c 0,33,34
 1960 984 1960 984 1927 970.5 c 128,-1,35
 1894 957 1894 957 1864 948 c 1,36,37
 1871 915 1871 915 1885 889 c 128,-1,38
 1899 863 1899 863 1913 845 c 0,39,40
 1930 824 1930 824 1948 808 c 1,41,-1
 1924 784 l 1,42,43
 1904 798 1904 798 1874.5 808 c 128,-1,44
 1845 818 1845 818 1800 818 c 1,45,-1
 1772 816 l 1,46,47
 1720 811 1720 811 1655 785.5 c 128,-1,48
 1590 760 1590 760 1522.5 719 c 128,-1,49
 1455 678 1455 678 1391 625 c 128,-1,50
 1327 572 1327 572 1277 512.5 c 128,-1,51
 1227 453 1227 453 1196.5 390.5 c 128,-1,52
 1166 328 1166 328 1166 268 c 0,53,54
 1166 235 1166 235 1171.5 201.5 c 128,-1,55
 1177 168 1177 168 1196.5 141 c 128,-1,56
 1216 114 1216 114 1254.5 97 c 128,-1,57
 1293 80 1293 80 1358 80 c 0,58,59
 1418 80 1418 80 1478 100 c 128,-1,60
 1538 120 1538 120 1592 153.5 c 128,-1,61
 1646 187 1646 187 1692 230.5 c 128,-1,62
 1738 274 1738 274 1772 321 c 128,-1,63
 1806 368 1806 368 1825 415.5 c 128,-1,64
 1844 463 1844 463 1844 504 c 0,65,66
 1844 536 1844 536 1833 558.5 c 128,-1,67
 1822 581 1822 581 1804 594.5 c 128,-1,68
 1786 608 1786 608 1762.5 614 c 128,-1,69
 1739 620 1739 620 1714 620 c 0,70,71
 1660 620 1660 620 1599.5 596 c 128,-1,72
 1539 572 1539 572 1481.5 529.5 c 128,-1,73
 1424 487 1424 487 1373 427.5 c 128,-1,74
 1322 368 1322 368 1288 298 c 1,75,-1
 1280 306 l 1,76,77
 1292 341 1292 341 1316 385 c 128,-1,78
 1340 429 1340 429 1372 474 c 128,-1,79
 1404 519 1404 519 1443.5 561.5 c 128,-1,80
 1483 604 1483 604 1527 637 c 128,-1,81
 1571 670 1571 670 1618.5 690 c 128,-1,82
 1666 710 1666 710 1714 710 c 0,83,84
 1749 710 1749 710 1779 694 c 128,-1,85
 1809 678 1809 678 1830.5 651.5 c 128,-1,86
 1852 625 1852 625 1864 591 c 128,-1,87
 1876 557 1876 557 1876 522 c 0,88,89
 1876 459 1876 459 1850.5 396.5 c 128,-1,90
 1825 334 1825 334 1782 277 c 128,-1,91
 1739 220 1739 220 1681.5 170.5 c 128,-1,92
 1624 121 1624 121 1560 85 c 128,-1,93
 1496 49 1496 49 1429.5 28.5 c 128,-1,94
 1363 8 1363 8 1302 8 c 0,95,96
 1253 8 1253 8 1206 24.5 c 128,-1,97
 1159 41 1159 41 1121.5 74.5 c 128,-1,98
 1084 108 1084 108 1061 158 c 128,-1,99
 1038 208 1038 208 1038 276 c 0,100,101
 1038 358 1038 358 1065.5 434.5 c 128,-1,102
 1093 511 1093 511 1141 577.5 c 128,-1,103
 1189 644 1189 644 1254.5 698.5 c 128,-1,104
 1320 753 1320 753 1395.5 792 c 128,-1,105
 1471 831 1471 831 1552.5 852.5 c 128,-1,106
 1634 874 1634 874 1716 874 c 0,107,108
 1720 874 1720 874 1724 874 c 128,-1,109
 1728 874 1728 874 1735.5 874 c 128,-1,110
 1743 874 1743 874 1756 873.5 c 128,-1,111
 1769 873 1769 873 1790 872 c 1,112,113
 1784 883 1784 883 1777 896 c 128,-1,114
 1770 909 1770 909 1764 924 c 1,115,116
 1726 918 1726 918 1693 917 c 128,-1,117
 1660 916 1660 916 1630 916 c 0,118,119
 1576 916 1576 916 1528.5 923 c 128,-1,120
 1481 930 1481 930 1445 946 c 128,-1,121
 1409 962 1409 962 1388.5 987.5 c 128,-1,122
 1368 1013 1368 1013 1368 1050 c 256,123,124
 1368 1087 1368 1087 1389 1119.5 c 128,-1,125
 1410 1152 1410 1152 1442.5 1179 c 128,-1,126
 1475 1206 1475 1206 1514.5 1228.5 c 128,-1,127
 1554 1251 1554 1251 1591 1267 c 128,-1,128
 1628 1283 1628 1283 1657.5 1293.5 c 128,-1,129
 1687 1304 1687 1304 1700 1308 c 2,130,131
 1700 1308 1700 1308 1706 1310 c 1,132,-1
 1708 1310 l 1,133,-1
 1714 1300 l 1,0,1
1976 1250 m 0,134,135
 1954 1225 1954 1225 1934 1197 c 128,-1,136
 1914 1169 1914 1169 1898 1138 c 128,-1,137
 1882 1107 1882 1107 1871.5 1073.5 c 128,-1,138
 1861 1040 1861 1040 1860 1004 c 1,139,140
 1945 1031 1945 1031 2021 1074 c 128,-1,141
 2097 1117 2097 1117 2154.5 1166.5 c 128,-1,142
 2212 1216 2212 1216 2246 1267 c 128,-1,143
 2280 1318 2280 1318 2280 1362 c 0,144,145
 2280 1386 2280 1386 2264 1398 c 128,-1,146
 2248 1410 2248 1410 2224 1410 c 0,147,148
 2201 1410 2201 1410 2170.5 1397.5 c 128,-1,149
 2140 1385 2140 1385 2106.5 1363 c 128,-1,150
 2073 1341 2073 1341 2039 1312 c 128,-1,151
 2005 1283 2005 1283 1976 1250 c 0,134,135
EndSplineSet
EndChar

StartChar: F
Encoding: 70 70 41
Width: 2040
Flags: W
LayerCount: 2
Fore
SplineSet
3020 1366 m 1,0,1
 2920 1348 2920 1348 2822 1340 c 128,-1,2
 2724 1332 2724 1332 2624 1332 c 2,3,-1
 2570 1332 l 1,4,5
 2512 1285 2512 1285 2461.5 1235.5 c 128,-1,6
 2411 1186 2411 1186 2366 1138 c 128,-1,7
 2321 1090 2321 1090 2281.5 1045 c 128,-1,8
 2242 1000 2242 1000 2206 960 c 1,9,10
 2183 936 2183 936 2156.5 905 c 128,-1,11
 2130 874 2130 874 2098 838 c 1,12,-1
 2246 828 l 1,13,-1
 2212 772 l 1,14,-1
 2042 772 l 1,15,16
 1995 719 1995 719 1945 661.5 c 128,-1,17
 1895 604 1895 604 1844 547 c 128,-1,18
 1793 490 1793 490 1743.5 436 c 128,-1,19
 1694 382 1694 382 1650 336 c 0,20,21
 1580 263 1580 263 1507 202 c 128,-1,22
 1434 141 1434 141 1355 96.5 c 128,-1,23
 1276 52 1276 52 1191 27 c 128,-1,24
 1106 2 1106 2 1012 2 c 0,25,26
 903 2 903 2 843.5 44 c 128,-1,27
 784 86 784 86 784 154 c 0,28,29
 784 179 784 179 792 205.5 c 128,-1,30
 800 232 800 232 816.5 253.5 c 128,-1,31
 833 275 833 275 857.5 288.5 c 128,-1,32
 882 302 882 302 914 302 c 0,33,34
 950 302 950 302 970 283 c 128,-1,35
 990 264 990 264 990 228 c 0,36,37
 990 195 990 195 974.5 174.5 c 128,-1,38
 959 154 959 154 941 140 c 128,-1,39
 923 126 923 126 907.5 114.5 c 128,-1,40
 892 103 892 103 892 88 c 0,41,42
 892 67 892 67 916 56.5 c 128,-1,43
 940 46 940 46 982 46 c 0,44,45
 1062 46 1062 46 1131 70 c 128,-1,46
 1200 94 1200 94 1263 137 c 128,-1,47
 1326 180 1326 180 1386.5 240 c 128,-1,48
 1447 300 1447 300 1510 372 c 0,49,50
 1588 463 1588 463 1678.5 563 c 128,-1,51
 1769 663 1769 663 1866 772 c 1,52,-1
 1706 772 l 1,53,-1
 1770 862 l 1,54,-1
 1934 850 l 1,55,56
 1957 875 1957 875 1980.5 901.5 c 128,-1,57
 2004 928 2004 928 2029.5 956.5 c 128,-1,58
 2055 985 2055 985 2083.5 1016 c 128,-1,59
 2112 1047 2112 1047 2146 1082 c 0,60,61
 2214 1153 2214 1153 2288 1219 c 128,-1,62
 2362 1285 2362 1285 2442 1342 c 1,63,64
 2408 1346 2408 1346 2374 1351 c 128,-1,65
 2340 1356 2340 1356 2298 1360.5 c 128,-1,66
 2256 1365 2256 1365 2202 1367.5 c 128,-1,67
 2148 1370 2148 1370 2074 1370 c 0,68,69
 1947 1370 1947 1370 1839 1341 c 128,-1,70
 1731 1312 1731 1312 1652 1268 c 128,-1,71
 1573 1224 1573 1224 1528.5 1172 c 128,-1,72
 1484 1120 1484 1120 1484 1074 c 0,73,74
 1484 1055 1484 1055 1491 1038.5 c 128,-1,75
 1498 1022 1498 1022 1515.5 1009.5 c 128,-1,76
 1533 997 1533 997 1561.5 989.5 c 128,-1,77
 1590 982 1590 982 1634 982 c 0,78,79
 1669 982 1669 982 1703.5 992.5 c 128,-1,80
 1738 1003 1738 1003 1770.5 1020.5 c 128,-1,81
 1803 1038 1803 1038 1833 1060.5 c 128,-1,82
 1863 1083 1863 1083 1889 1107 c 0,83,84
 1950 1162 1950 1162 2004 1232 c 1,85,-1
 2018 1206 l 1,86,87
 1979 1113 1979 1113 1930.5 1055 c 128,-1,88
 1882 997 1882 997 1831 965 c 128,-1,89
 1780 933 1780 933 1728.5 921.5 c 128,-1,90
 1677 910 1677 910 1632 910 c 0,91,92
 1597 910 1597 910 1561.5 917.5 c 128,-1,93
 1526 925 1526 925 1497.5 944 c 128,-1,94
 1469 963 1469 963 1451.5 995 c 128,-1,95
 1434 1027 1434 1027 1434 1076 c 0,96,97
 1434 1124 1434 1124 1464.5 1171.5 c 128,-1,98
 1495 1219 1495 1219 1546.5 1263 c 128,-1,99
 1598 1307 1598 1307 1666 1345 c 128,-1,100
 1734 1383 1734 1383 1809.5 1411.5 c 128,-1,101
 1885 1440 1885 1440 1963.5 1456 c 128,-1,102
 2042 1472 2042 1472 2114 1472 c 0,103,104
 2154 1472 2154 1472 2201 1466.5 c 128,-1,105
 2248 1461 2248 1461 2303 1452.5 c 128,-1,106
 2358 1444 2358 1444 2422 1434 c 128,-1,107
 2486 1424 2486 1424 2560 1416 c 1,108,109
 2608 1443 2608 1443 2657.5 1464.5 c 128,-1,110
 2707 1486 2707 1486 2758 1500 c 1,111,-1
 2774 1474 l 1,112,113
 2745 1457 2745 1457 2719.5 1440.5 c 128,-1,114
 2694 1424 2694 1424 2668 1406 c 1,115,116
 2719 1403 2719 1403 2775.5 1400.5 c 128,-1,117
 2832 1398 2832 1398 2894 1398 c 0,118,119
 2933 1398 2933 1398 2971.5 1399 c 128,-1,120
 3010 1400 3010 1400 3046 1402 c 1,121,-1
 3020 1366 l 1,0,1
EndSplineSet
EndChar

StartChar: G
Encoding: 71 71 42
Width: 2062
Flags: W
LayerCount: 2
Fore
SplineSet
2272 932 m 1,0,1
 2210 876 2210 876 2166 826.5 c 128,-1,2
 2122 777 2122 777 2082.5 727.5 c 128,-1,3
 2043 678 2043 678 2001.5 625 c 128,-1,4
 1960 572 1960 572 1902 510 c 1,5,-1
 1742 334 l 2,6,7
 1674 260 1674 260 1601.5 198.5 c 128,-1,8
 1529 137 1529 137 1449.5 93 c 128,-1,9
 1370 49 1370 49 1284 24.5 c 128,-1,10
 1198 0 1198 0 1104 0 c 0,11,12
 995 0 995 0 935.5 42 c 128,-1,13
 876 84 876 84 876 152 c 0,14,15
 876 177 876 177 884 203.5 c 128,-1,16
 892 230 892 230 908.5 251.5 c 128,-1,17
 925 273 925 273 949.5 286.5 c 128,-1,18
 974 300 974 300 1006 300 c 0,19,20
 1042 300 1042 300 1062 281 c 128,-1,21
 1082 262 1082 262 1082 226 c 0,22,23
 1082 193 1082 193 1066.5 172.5 c 128,-1,24
 1051 152 1051 152 1033 138 c 128,-1,25
 1015 124 1015 124 999.5 112.5 c 128,-1,26
 984 101 984 101 984 86 c 0,27,28
 984 65 984 65 1008 54.5 c 128,-1,29
 1032 44 1032 44 1074 44 c 0,30,31
 1154 44 1154 44 1223 68 c 128,-1,32
 1292 92 1292 92 1355 135 c 128,-1,33
 1418 178 1418 178 1478.5 238 c 128,-1,34
 1539 298 1539 298 1602 370 c 2,35,-1
 1770 558 l 1,36,37
 1818 614 1818 614 1880.5 671 c 128,-1,38
 1943 728 1943 728 2006 782 c 1,39,40
 1995 780 1995 780 1984 780 c 128,-1,41
 1973 780 1973 780 1962 780 c 0,42,43
 1929 780 1929 780 1895.5 787.5 c 128,-1,44
 1862 795 1862 795 1833 812.5 c 128,-1,45
 1804 830 1804 830 1781.5 859 c 128,-1,46
 1759 888 1759 888 1748 932 c 1,47,48
 1716 927 1716 927 1686.5 926.5 c 128,-1,49
 1657 926 1657 926 1630 926 c 0,50,51
 1576 926 1576 926 1528.5 933 c 128,-1,52
 1481 940 1481 940 1445 956 c 128,-1,53
 1409 972 1409 972 1388.5 997.5 c 128,-1,54
 1368 1023 1368 1023 1368 1060 c 256,55,56
 1368 1097 1368 1097 1389 1129.5 c 128,-1,57
 1410 1162 1410 1162 1442.5 1189 c 128,-1,58
 1475 1216 1475 1216 1514.5 1238.5 c 128,-1,59
 1554 1261 1554 1261 1591 1277 c 128,-1,60
 1628 1293 1628 1293 1657.5 1303.5 c 128,-1,61
 1687 1314 1687 1314 1700 1318 c 0,62,63
 1706 1320 1706 1320 1706 1320 c 1,64,-1
 1708 1320 l 1,65,-1
 1714 1310 l 1,66,67
 1705 1308 1705 1308 1685 1298.5 c 128,-1,68
 1665 1289 1665 1289 1639.5 1274 c 128,-1,69
 1614 1259 1614 1259 1587.5 1238.5 c 128,-1,70
 1561 1218 1561 1218 1538.5 1193.5 c 128,-1,71
 1516 1169 1516 1169 1502 1141 c 128,-1,72
 1488 1113 1488 1113 1488 1084 c 0,73,74
 1488 1062 1488 1062 1497.5 1043.5 c 128,-1,75
 1507 1025 1507 1025 1527.5 1011.5 c 128,-1,76
 1548 998 1548 998 1580 990 c 128,-1,77
 1612 982 1612 982 1658 982 c 0,78,79
 1698 982 1698 982 1740 988 c 1,80,-1
 1740 1010 l 2,81,82
 1740 1068 1740 1068 1758.5 1127 c 128,-1,83
 1777 1186 1777 1186 1810.5 1240.5 c 128,-1,84
 1844 1295 1844 1295 1890 1342 c 128,-1,85
 1936 1389 1936 1389 1990.5 1424.5 c 128,-1,86
 2045 1460 2045 1460 2105.5 1480 c 128,-1,87
 2166 1500 2166 1500 2230 1500 c 0,88,89
 2264 1500 2264 1500 2287 1489.5 c 128,-1,90
 2310 1479 2310 1479 2324 1462.5 c 128,-1,91
 2338 1446 2338 1446 2344 1425.5 c 128,-1,92
 2350 1405 2350 1405 2350 1386 c 0,93,94
 2350 1360 2350 1360 2341.5 1324 c 128,-1,95
 2333 1288 2333 1288 2298 1241.5 c 128,-1,96
 2263 1195 2263 1195 2192 1138 c 128,-1,97
 2121 1081 2121 1081 1996 1014 c 0,98,99
 1960 994 1960 994 1927 980.5 c 128,-1,100
 1894 967 1894 967 1864 958 c 1,101,102
 1868 936 1868 936 1877.5 916 c 128,-1,103
 1887 896 1887 896 1906.5 881 c 128,-1,104
 1926 866 1926 866 1956 857 c 128,-1,105
 1986 848 1986 848 2030 848 c 0,106,107
 2046 848 2046 848 2070 860.5 c 128,-1,108
 2094 873 2094 873 2119.5 891 c 128,-1,109
 2145 909 2145 909 2168.5 930 c 128,-1,110
 2192 951 2192 951 2208 968 c 1,111,112
 2213 971 2213 971 2216 976 c 1,113,-1
 2272 932 l 1,0,1
1874 1078 m 0,114,115
 1868 1061 1868 1061 1864 1045 c 128,-1,116
 1860 1029 1860 1029 1860 1014 c 1,117,118
 1945 1041 1945 1041 2021 1084 c 128,-1,119
 2097 1127 2097 1127 2154.5 1176.5 c 128,-1,120
 2212 1226 2212 1226 2246 1277 c 128,-1,121
 2280 1328 2280 1328 2280 1372 c 0,122,123
 2280 1396 2280 1396 2264 1408 c 128,-1,124
 2248 1420 2248 1420 2224 1420 c 0,125,126
 2199 1420 2199 1420 2167.5 1405 c 128,-1,127
 2136 1390 2136 1390 2101.5 1364.5 c 128,-1,128
 2067 1339 2067 1339 2032 1305 c 128,-1,129
 1997 1271 1997 1271 1966 1233 c 128,-1,130
 1935 1195 1935 1195 1911 1155 c 128,-1,131
 1887 1115 1887 1115 1874 1078 c 0,114,115
EndSplineSet
EndChar

StartChar: H
Encoding: 72 72 43
Width: 2272
Flags: W
LayerCount: 2
Fore
SplineSet
2052 918 m 2,0,1
 2123 999 2123 999 2201 1073 c 128,-1,2
 2279 1147 2279 1147 2357.5 1210 c 128,-1,3
 2436 1273 2436 1273 2511 1323.5 c 128,-1,4
 2586 1374 2586 1374 2651.5 1409.5 c 128,-1,5
 2717 1445 2717 1445 2769 1464.5 c 128,-1,6
 2821 1484 2821 1484 2854 1484 c 0,7,8
 2868 1484 2868 1484 2881 1479 c 128,-1,9
 2894 1474 2894 1474 2904 1462 c 128,-1,10
 2914 1450 2914 1450 2920 1430.5 c 128,-1,11
 2926 1411 2926 1411 2926 1382 c 0,12,13
 2926 1311 2926 1311 2888 1245 c 128,-1,14
 2850 1179 2850 1179 2785.5 1118 c 128,-1,15
 2721 1057 2721 1057 2635.5 1001.5 c 128,-1,16
 2550 946 2550 946 2454.5 895.5 c 128,-1,17
 2359 845 2359 845 2260 798.5 c 128,-1,18
 2161 752 2161 752 2070 710 c 0,19,20
 2056 704 2056 704 2044 698.5 c 128,-1,21
 2032 693 2032 693 2020 688 c 1,22,23
 1971 632 1971 632 1917.5 574 c 128,-1,24
 1864 516 1864 516 1813 460.5 c 128,-1,25
 1762 405 1762 405 1716.5 353 c 128,-1,26
 1671 301 1671 301 1636.5 256 c 128,-1,27
 1602 211 1602 211 1582 174.5 c 128,-1,28
 1562 138 1562 138 1562 114 c 0,29,30
 1562 73 1562 73 1576 60.5 c 128,-1,31
 1590 48 1590 48 1628 48 c 0,32,33
 1670 48 1670 48 1724 61.5 c 128,-1,34
 1778 75 1778 75 1834.5 95 c 128,-1,35
 1891 115 1891 115 1945.5 139 c 128,-1,36
 2000 163 2000 163 2044 184 c 1,37,-1
 2054 160 l 1,38,39
 1902 86 1902 86 1779 43 c 128,-1,40
 1656 0 1656 0 1570 0 c 0,41,42
 1546 0 1546 0 1520 4 c 128,-1,43
 1494 8 1494 8 1472 21 c 128,-1,44
 1450 34 1450 34 1436 58 c 128,-1,45
 1422 82 1422 82 1422 122 c 0,46,47
 1422 152 1422 152 1448 198 c 128,-1,48
 1474 244 1474 244 1520 304 c 128,-1,49
 1566 364 1566 364 1628 436 c 128,-1,50
 1690 508 1690 508 1762 590 c 1,51,52
 1697 567 1697 567 1634 546 c 128,-1,53
 1571 525 1571 525 1514 504 c 0,54,55
 1484 493 1484 493 1454 483 c 128,-1,56
 1424 473 1424 473 1392 462 c 1,57,58
 1360 427 1360 427 1330.5 394 c 128,-1,59
 1301 361 1301 361 1272 332 c 0,60,61
 1210 267 1210 267 1141 207 c 128,-1,62
 1072 147 1072 147 997 101.5 c 128,-1,63
 922 56 922 56 842.5 29 c 128,-1,64
 763 2 763 2 680 2 c 0,65,66
 654 2 654 2 628.5 7.5 c 128,-1,67
 603 13 603 13 583 25.5 c 128,-1,68
 563 38 563 38 550.5 58.5 c 128,-1,69
 538 79 538 79 538 110 c 0,70,71
 538 151 538 151 571.5 187 c 128,-1,72
 605 223 605 223 659.5 254.5 c 128,-1,73
 714 286 714 286 784 313.5 c 128,-1,74
 854 341 854 341 927.5 364.5 c 128,-1,75
 1001 388 1001 388 1072 407.5 c 128,-1,76
 1143 427 1143 427 1200 444 c 1,77,-1
 1572 864 l 2,78,79
 1661 965 1661 965 1757 1067 c 128,-1,80
 1853 1169 1853 1169 1972 1260 c 1,81,82
 1960 1252 1960 1252 1940.5 1242 c 128,-1,83
 1921 1232 1921 1232 1898 1223.5 c 128,-1,84
 1875 1215 1875 1215 1850.5 1209.5 c 128,-1,85
 1826 1204 1826 1204 1804 1204 c 0,86,87
 1772 1204 1772 1204 1751 1219 c 128,-1,88
 1730 1234 1730 1234 1730 1272 c 2,89,-1
 1730 1358 l 2,90,91
 1730 1367 1730 1367 1725 1371.5 c 128,-1,92
 1720 1376 1720 1376 1712 1376 c 0,93,94
 1701 1376 1701 1376 1685.5 1367 c 128,-1,95
 1670 1358 1670 1358 1644 1332 c 1,96,-1
 1624 1350 l 1,97,98
 1658 1389 1658 1389 1688 1403.5 c 128,-1,99
 1718 1418 1718 1418 1760 1418 c 0,100,101
 1807 1418 1807 1418 1827.5 1402.5 c 128,-1,102
 1848 1387 1848 1387 1848 1358 c 0,103,104
 1848 1339 1848 1339 1852 1327.5 c 128,-1,105
 1856 1316 1856 1316 1862.5 1310 c 128,-1,106
 1869 1304 1869 1304 1876.5 1302 c 128,-1,107
 1884 1300 1884 1300 1892 1300 c 0,108,109
 1925 1300 1925 1300 1966 1310 c 128,-1,110
 2007 1320 2007 1320 2052 1336.5 c 128,-1,111
 2097 1353 2097 1353 2143.5 1374 c 128,-1,112
 2190 1395 2190 1395 2233 1417 c 128,-1,113
 2276 1439 2276 1439 2314 1459.5 c 128,-1,114
 2352 1480 2352 1480 2380 1496 c 1,115,-1
 2400 1478 l 1,116,117
 2317 1425 2317 1425 2236.5 1358 c 128,-1,118
 2156 1291 2156 1291 2082 1220.5 c 128,-1,119
 2008 1150 2008 1150 1943 1081.5 c 128,-1,120
 1878 1013 1878 1013 1828 956 c 2,121,-1
 1450 526 l 1,122,123
 1536 553 1536 553 1631.5 584.5 c 128,-1,124
 1727 616 1727 616 1812 646 c 1,125,126
 1832 667 1832 667 1851.5 689.5 c 128,-1,127
 1871 712 1871 712 1892 736 c 0,128,129
 1915 762 1915 762 1934.5 784.5 c 128,-1,130
 1954 807 1954 807 1974 828 c 1,131,-1
 2052 918 l 2,0,1
2144 838 m 0,132,133
 2127 818 2127 818 2112.5 800 c 128,-1,134
 2098 782 2098 782 2084 764 c 1,135,136
 2078 758 2078 758 2074 750 c 1,137,138
 2120 770 2120 770 2176.5 796 c 128,-1,139
 2233 822 2233 822 2294.5 852 c 128,-1,140
 2356 882 2356 882 2419 915 c 128,-1,141
 2482 948 2482 948 2540 983 c 128,-1,142
 2598 1018 2598 1018 2648 1054 c 128,-1,143
 2698 1090 2698 1090 2734 1126 c 0,144,145
 2772 1165 2772 1165 2800.5 1198.5 c 128,-1,146
 2829 1232 2829 1232 2847.5 1263.5 c 128,-1,147
 2866 1295 2866 1295 2875 1327 c 128,-1,148
 2884 1359 2884 1359 2884 1394 c 0,149,150
 2884 1414 2884 1414 2876 1427 c 128,-1,151
 2868 1440 2868 1440 2860 1440 c 0,152,153
 2818 1440 2818 1440 2749 1406.5 c 128,-1,154
 2680 1373 2680 1373 2588.5 1300.5 c 128,-1,155
 2497 1228 2497 1228 2385 1113.5 c 128,-1,156
 2273 999 2273 999 2144 838 c 0,132,133
588 104 m 0,157,158
 588 90 588 90 595.5 80 c 128,-1,159
 603 70 603 70 615.5 64 c 128,-1,160
 628 58 628 58 643.5 55 c 128,-1,161
 659 52 659 52 676 52 c 0,162,163
 742 52 742 52 801 78.5 c 128,-1,164
 860 105 860 105 915.5 149 c 128,-1,165
 971 193 971 193 1024.5 250 c 128,-1,166
 1078 307 1078 307 1132 368 c 1,167,168
 1135 373 1135 373 1138 376 c 128,-1,169
 1141 379 1141 379 1146 384 c 1,170,171
 1074 361 1074 361 1005 340 c 128,-1,172
 936 319 936 319 874 298 c 128,-1,173
 812 277 812 277 759.5 256 c 128,-1,174
 707 235 707 235 669 211.5 c 128,-1,175
 631 188 631 188 609.5 161.5 c 128,-1,176
 588 135 588 135 588 104 c 0,157,158
EndSplineSet
EndChar

StartChar: I
Encoding: 73 73 44
Width: 1854
Flags: W
LayerCount: 2
Fore
SplineSet
1898 1354 m 1,0,1
 1932 1393 1932 1393 1962 1407.5 c 128,-1,2
 1992 1422 1992 1422 2034 1422 c 0,3,4
 2081 1422 2081 1422 2101.5 1406.5 c 128,-1,5
 2122 1391 2122 1391 2122 1362 c 0,6,7
 2122 1343 2122 1343 2126 1331.5 c 128,-1,8
 2130 1320 2130 1320 2136.5 1314 c 128,-1,9
 2143 1308 2143 1308 2150.5 1306 c 128,-1,10
 2158 1304 2158 1304 2166 1304 c 0,11,12
 2199 1304 2199 1304 2240 1314 c 128,-1,13
 2281 1324 2281 1324 2326 1340.5 c 128,-1,14
 2371 1357 2371 1357 2417.5 1378 c 128,-1,15
 2464 1399 2464 1399 2507 1421 c 128,-1,16
 2550 1443 2550 1443 2588 1463.5 c 128,-1,17
 2626 1484 2626 1484 2654 1500 c 1,18,-1
 2674 1482 l 1,19,20
 2591 1429 2591 1429 2510.5 1361.5 c 128,-1,21
 2430 1294 2430 1294 2356.5 1223.5 c 128,-1,22
 2283 1153 2283 1153 2218 1084.5 c 128,-1,23
 2153 1016 2153 1016 2102 960 c 0,24,25
 2072 926 2072 926 2032 880 c 128,-1,26
 1992 834 1992 834 1945 780.5 c 128,-1,27
 1898 727 1898 727 1847 669 c 128,-1,28
 1796 611 1796 611 1744.5 552.5 c 128,-1,29
 1693 494 1693 494 1642 438.5 c 128,-1,30
 1591 383 1591 383 1546 336 c 0,31,32
 1476 263 1476 263 1403 202 c 128,-1,33
 1330 141 1330 141 1251 96.5 c 128,-1,34
 1172 52 1172 52 1087 27 c 128,-1,35
 1002 2 1002 2 908 2 c 0,36,37
 799 2 799 2 739.5 44 c 128,-1,38
 680 86 680 86 680 154 c 0,39,40
 680 179 680 179 688 205.5 c 128,-1,41
 696 232 696 232 712.5 253.5 c 128,-1,42
 729 275 729 275 753.5 288.5 c 128,-1,43
 778 302 778 302 810 302 c 0,44,45
 846 302 846 302 866 283 c 128,-1,46
 886 264 886 264 886 228 c 0,47,48
 886 195 886 195 870.5 174.5 c 128,-1,49
 855 154 855 154 837 140 c 128,-1,50
 819 126 819 126 803.5 114.5 c 128,-1,51
 788 103 788 103 788 88 c 0,52,53
 788 67 788 67 812 56.5 c 128,-1,54
 836 46 836 46 878 46 c 0,55,56
 958 46 958 46 1027 70 c 128,-1,57
 1096 94 1096 94 1159 137 c 128,-1,58
 1222 180 1222 180 1282.5 240 c 128,-1,59
 1343 300 1343 300 1406 372 c 0,60,61
 1503 482 1503 482 1615.5 608 c 128,-1,62
 1728 734 1728 734 1846 868 c 0,63,64
 1935 969 1935 969 2031 1071 c 128,-1,65
 2127 1173 2127 1173 2246 1264 c 1,66,67
 2234 1256 2234 1256 2214.5 1246 c 128,-1,68
 2195 1236 2195 1236 2172 1227.5 c 128,-1,69
 2149 1219 2149 1219 2124.5 1213.5 c 128,-1,70
 2100 1208 2100 1208 2078 1208 c 0,71,72
 2046 1208 2046 1208 2025 1223 c 128,-1,73
 2004 1238 2004 1238 2004 1276 c 2,74,-1
 2004 1362 l 2,75,76
 2004 1371 2004 1371 1999 1375.5 c 128,-1,77
 1994 1380 1994 1380 1986 1380 c 0,78,79
 1975 1380 1975 1380 1959.5 1371 c 128,-1,80
 1944 1362 1944 1362 1918 1336 c 1,81,-1
 1898 1354 l 1,0,1
EndSplineSet
EndChar

StartChar: J
Encoding: 74 74 45
Width: 1938
Flags: W
LayerCount: 2
Fore
SplineSet
1876 1354 m 1,0,1
 1910 1393 1910 1393 1940 1407.5 c 128,-1,2
 1970 1422 1970 1422 2012 1422 c 0,3,4
 2059 1422 2059 1422 2079.5 1406.5 c 128,-1,5
 2100 1391 2100 1391 2100 1362 c 0,6,7
 2100 1343 2100 1343 2104 1331.5 c 128,-1,8
 2108 1320 2108 1320 2114.5 1314 c 128,-1,9
 2121 1308 2121 1308 2128.5 1306 c 128,-1,10
 2136 1304 2136 1304 2144 1304 c 0,11,12
 2177 1304 2177 1304 2218 1314 c 128,-1,13
 2259 1324 2259 1324 2304 1340.5 c 128,-1,14
 2349 1357 2349 1357 2395.5 1378 c 128,-1,15
 2442 1399 2442 1399 2485 1421 c 128,-1,16
 2528 1443 2528 1443 2566 1463.5 c 128,-1,17
 2604 1484 2604 1484 2632 1500 c 1,18,-1
 2652 1482 l 1,19,20
 2569 1429 2569 1429 2488.5 1362 c 128,-1,21
 2408 1295 2408 1295 2334 1224.5 c 128,-1,22
 2260 1154 2260 1154 2195 1085.5 c 128,-1,23
 2130 1017 2130 1017 2080 960 c 2,24,-1
 1822 666 l 1,25,-1
 1968 656 l 1,26,-1
 1934 600 l 1,27,-1
 1764 600 l 1,28,29
 1702 529 1702 529 1640 461 c 128,-1,30
 1578 393 1578 393 1524 336 c 0,31,32
 1454 263 1454 263 1381 202 c 128,-1,33
 1308 141 1308 141 1229 96.5 c 128,-1,34
 1150 52 1150 52 1065 27 c 128,-1,35
 980 2 980 2 886 2 c 0,36,37
 777 2 777 2 717.5 44 c 128,-1,38
 658 86 658 86 658 154 c 0,39,40
 658 179 658 179 666 205.5 c 128,-1,41
 674 232 674 232 690.5 253.5 c 128,-1,42
 707 275 707 275 731.5 288.5 c 128,-1,43
 756 302 756 302 788 302 c 0,44,45
 824 302 824 302 844 283 c 128,-1,46
 864 264 864 264 864 228 c 0,47,48
 864 195 864 195 848.5 174.5 c 128,-1,49
 833 154 833 154 815 140 c 128,-1,50
 797 126 797 126 781.5 114.5 c 128,-1,51
 766 103 766 103 766 88 c 0,52,53
 766 67 766 67 790 56.5 c 128,-1,54
 814 46 814 46 856 46 c 0,55,56
 936 46 936 46 1005 70 c 128,-1,57
 1074 94 1074 94 1137 137 c 128,-1,58
 1200 180 1200 180 1260.5 240 c 128,-1,59
 1321 300 1321 300 1384 372 c 0,60,61
 1431 425 1431 425 1481.5 481.5 c 128,-1,62
 1532 538 1532 538 1586 600 c 1,63,-1
 1428 600 l 1,64,-1
 1492 690 l 1,65,-1
 1656 678 l 1,66,-1
 1824 868 l 2,67,68
 1913 969 1913 969 2009 1071 c 128,-1,69
 2105 1173 2105 1173 2224 1264 c 1,70,71
 2212 1256 2212 1256 2192.5 1246 c 128,-1,72
 2173 1236 2173 1236 2150 1227.5 c 128,-1,73
 2127 1219 2127 1219 2102.5 1213.5 c 128,-1,74
 2078 1208 2078 1208 2056 1208 c 0,75,76
 2024 1208 2024 1208 2003 1223 c 128,-1,77
 1982 1238 1982 1238 1982 1276 c 2,78,-1
 1982 1362 l 2,79,80
 1982 1371 1982 1371 1977 1375.5 c 128,-1,81
 1972 1380 1972 1380 1964 1380 c 0,82,83
 1953 1380 1953 1380 1937.5 1371 c 128,-1,84
 1922 1362 1922 1362 1896 1336 c 1,85,-1
 1876 1354 l 1,0,1
EndSplineSet
EndChar

StartChar: K
Encoding: 75 75 46
Width: 2418
Flags: W
LayerCount: 2
Fore
SplineSet
1790 1350 m 1,0,1
 1824 1389 1824 1389 1854 1403.5 c 128,-1,2
 1884 1418 1884 1418 1926 1418 c 0,3,4
 1973 1418 1973 1418 1993.5 1402.5 c 128,-1,5
 2014 1387 2014 1387 2014 1358 c 0,6,7
 2014 1339 2014 1339 2018 1327.5 c 128,-1,8
 2022 1316 2022 1316 2028.5 1310 c 128,-1,9
 2035 1304 2035 1304 2042.5 1302 c 128,-1,10
 2050 1300 2050 1300 2058 1300 c 0,11,12
 2091 1300 2091 1300 2132 1310 c 128,-1,13
 2173 1320 2173 1320 2218 1336.5 c 128,-1,14
 2263 1353 2263 1353 2309.5 1374 c 128,-1,15
 2356 1395 2356 1395 2399 1417 c 128,-1,16
 2442 1439 2442 1439 2480 1459.5 c 128,-1,17
 2518 1480 2518 1480 2546 1496 c 1,18,-1
 2566 1478 l 1,19,20
 2483 1425 2483 1425 2402.5 1357.5 c 128,-1,21
 2322 1290 2322 1290 2248.5 1219.5 c 128,-1,22
 2175 1149 2175 1149 2110 1080.5 c 128,-1,23
 2045 1012 2045 1012 1994 956 c 0,24,25
 1964 922 1964 922 1924 876 c 128,-1,26
 1884 830 1884 830 1837 776.5 c 128,-1,27
 1790 723 1790 723 1739 665 c 128,-1,28
 1688 607 1688 607 1636.5 548.5 c 128,-1,29
 1585 490 1585 490 1534 434.5 c 128,-1,30
 1483 379 1483 379 1438 332 c 0,31,32
 1368 259 1368 259 1295 198 c 128,-1,33
 1222 137 1222 137 1143 92.5 c 128,-1,34
 1064 48 1064 48 979 23 c 128,-1,35
 894 -2 894 -2 800 -2 c 0,36,37
 691 -2 691 -2 631.5 40 c 128,-1,38
 572 82 572 82 572 150 c 0,39,40
 572 175 572 175 580 201.5 c 128,-1,41
 588 228 588 228 604.5 249.5 c 128,-1,42
 621 271 621 271 645.5 284.5 c 128,-1,43
 670 298 670 298 702 298 c 0,44,45
 738 298 738 298 758 279 c 128,-1,46
 778 260 778 260 778 224 c 0,47,48
 778 191 778 191 762.5 170.5 c 128,-1,49
 747 150 747 150 729 136 c 128,-1,50
 711 122 711 122 695.5 110.5 c 128,-1,51
 680 99 680 99 680 84 c 0,52,53
 680 63 680 63 704 52.5 c 128,-1,54
 728 42 728 42 770 42 c 0,55,56
 850 42 850 42 919 66 c 128,-1,57
 988 90 988 90 1051 133 c 128,-1,58
 1114 176 1114 176 1174.5 236 c 128,-1,59
 1235 296 1235 296 1298 368 c 0,60,61
 1395 478 1395 478 1507.5 604 c 128,-1,62
 1620 730 1620 730 1738 864 c 0,63,64
 1827 965 1827 965 1923 1067 c 128,-1,65
 2019 1169 2019 1169 2138 1260 c 1,66,67
 2126 1252 2126 1252 2106.5 1242 c 128,-1,68
 2087 1232 2087 1232 2064 1223.5 c 128,-1,69
 2041 1215 2041 1215 2016.5 1209.5 c 128,-1,70
 1992 1204 1992 1204 1970 1204 c 0,71,72
 1938 1204 1938 1204 1917 1219 c 128,-1,73
 1896 1234 1896 1234 1896 1272 c 2,74,-1
 1896 1358 l 2,75,76
 1896 1367 1896 1367 1891 1371.5 c 128,-1,77
 1886 1376 1886 1376 1878 1376 c 0,78,79
 1867 1376 1867 1376 1851.5 1367 c 128,-1,80
 1836 1358 1836 1358 1810 1332 c 1,81,-1
 1790 1350 l 1,0,1
2280 686 m 0,82,83
 2280 618 2280 618 2247 556 c 128,-1,84
 2214 494 2214 494 2164.5 438.5 c 128,-1,85
 2115 383 2115 383 2057 334.5 c 128,-1,86
 1999 286 1999 286 1949.5 244 c 128,-1,87
 1900 202 1900 202 1867 167.5 c 128,-1,88
 1834 133 1834 133 1834 106 c 0,89,90
 1834 86 1834 86 1841.5 74.5 c 128,-1,91
 1849 63 1849 63 1861.5 57 c 128,-1,92
 1874 51 1874 51 1890.5 49.5 c 128,-1,93
 1907 48 1907 48 1926 48 c 0,94,95
 1968 48 1968 48 2022 61.5 c 128,-1,96
 2076 75 2076 75 2132.5 95 c 128,-1,97
 2189 115 2189 115 2243.5 139 c 128,-1,98
 2298 163 2298 163 2342 184 c 1,99,-1
 2352 160 l 1,100,101
 2200 86 2200 86 2077 43 c 128,-1,102
 1954 0 1954 0 1868 0 c 0,103,104
 1844 0 1844 0 1818 4 c 128,-1,105
 1792 8 1792 8 1770 21 c 128,-1,106
 1748 34 1748 34 1734 58 c 128,-1,107
 1720 82 1720 82 1720 122 c 0,108,109
 1720 172 1720 172 1752.5 218.5 c 128,-1,110
 1785 265 1785 265 1834 310 c 128,-1,111
 1883 355 1883 355 1940 400.5 c 128,-1,112
 1997 446 1997 446 2046 494 c 128,-1,113
 2095 542 2095 542 2127.5 594.5 c 128,-1,114
 2160 647 2160 647 2160 706 c 0,115,116
 2160 723 2160 723 2150 736 c 1,117,118
 2136 726 2136 726 2122 721 c 128,-1,119
 2108 716 2108 716 2095.5 713.5 c 128,-1,120
 2083 711 2083 711 2073.5 710.5 c 128,-1,121
 2064 710 2064 710 2060 710 c 0,122,123
 2037 710 2037 710 2019.5 717.5 c 128,-1,124
 2002 725 2002 725 1990 735.5 c 128,-1,125
 1978 746 1978 746 1972 758.5 c 128,-1,126
 1966 771 1966 771 1966 782 c 0,127,128
 1966 809 1966 809 1989.5 830.5 c 128,-1,129
 2013 852 2013 852 2064 852 c 0,130,131
 2090 852 2090 852 2112.5 848 c 128,-1,132
 2135 844 2135 844 2156 836 c 1,133,134
 2197 856 2197 856 2236 893.5 c 128,-1,135
 2275 931 2275 931 2315 979.5 c 128,-1,136
 2355 1028 2355 1028 2397 1082.5 c 128,-1,137
 2439 1137 2439 1137 2485.5 1191.5 c 128,-1,138
 2532 1246 2532 1246 2584.5 1296 c 128,-1,139
 2637 1346 2637 1346 2697 1384 c 128,-1,140
 2757 1422 2757 1422 2827 1445 c 128,-1,141
 2897 1468 2897 1468 2978 1468 c 0,142,143
 3009 1468 3009 1468 3033.5 1459.5 c 128,-1,144
 3058 1451 3058 1451 3075 1437 c 128,-1,145
 3092 1423 3092 1423 3101 1404.5 c 128,-1,146
 3110 1386 3110 1386 3110 1366 c 0,147,148
 3110 1341 3110 1341 3098.5 1312.5 c 128,-1,149
 3087 1284 3087 1284 3065.5 1260 c 128,-1,150
 3044 1236 3044 1236 3012 1220 c 128,-1,151
 2980 1204 2980 1204 2940 1204 c 0,152,153
 2928 1204 2928 1204 2914.5 1207 c 128,-1,154
 2901 1210 2901 1210 2889 1217 c 128,-1,155
 2877 1224 2877 1224 2869.5 1235.5 c 128,-1,156
 2862 1247 2862 1247 2862 1264 c 0,157,158
 2862 1295 2862 1295 2882.5 1314 c 128,-1,159
 2903 1333 2903 1333 2928 1345.5 c 128,-1,160
 2953 1358 2953 1358 2973.5 1368 c 128,-1,161
 2994 1378 2994 1378 2994 1392 c 0,162,163
 2994 1403 2994 1403 2981 1405.5 c 128,-1,164
 2968 1408 2968 1408 2956 1408 c 0,165,166
 2874 1408 2874 1408 2805.5 1375 c 128,-1,167
 2737 1342 2737 1342 2677.5 1288.5 c 128,-1,168
 2618 1235 2618 1235 2564.5 1167 c 128,-1,169
 2511 1099 2511 1099 2458 1030.5 c 128,-1,170
 2405 962 2405 962 2350 898 c 128,-1,171
 2295 834 2295 834 2234 788 c 1,172,173
 2257 765 2257 765 2268.5 738.5 c 128,-1,174
 2280 712 2280 712 2280 686 c 0,82,83
EndSplineSet
EndChar

StartChar: L
Encoding: 76 76 47
Width: 2084
Flags: W
LayerCount: 2
Fore
SplineSet
2050 1150 m 1,0,1
 2138 1250 2138 1250 2225.5 1317.5 c 128,-1,2
 2313 1385 2313 1385 2394 1426 c 128,-1,3
 2475 1467 2475 1467 2547.5 1484.5 c 128,-1,4
 2620 1502 2620 1502 2678 1502 c 0,5,6
 2698 1502 2698 1502 2720.5 1500 c 128,-1,7
 2743 1498 2743 1498 2762 1490 c 128,-1,8
 2781 1482 2781 1482 2793.5 1466 c 128,-1,9
 2806 1450 2806 1450 2806 1422 c 0,10,11
 2806 1347 2806 1347 2763.5 1274 c 128,-1,12
 2721 1201 2721 1201 2652 1135 c 128,-1,13
 2583 1069 2583 1069 2495 1010.5 c 128,-1,14
 2407 952 2407 952 2317.5 907 c 128,-1,15
 2228 862 2228 862 2144 831 c 128,-1,16
 2060 800 2060 800 1998 788 c 1,17,18
 1944 776 1944 776 1884 770 c 1,19,20
 1864 747 1864 747 1846.5 728 c 128,-1,21
 1829 709 1829 709 1814 692 c 0,22,23
 1739 609 1739 609 1667.5 527.5 c 128,-1,24
 1596 446 1596 446 1525.5 371.5 c 128,-1,25
 1455 297 1455 297 1383.5 233 c 128,-1,26
 1312 169 1312 169 1236 120 c 1,27,28
 1294 106 1294 106 1352.5 92.5 c 128,-1,29
 1411 79 1411 79 1466 68.5 c 128,-1,30
 1521 58 1521 58 1571 52 c 128,-1,31
 1621 46 1621 46 1662 46 c 0,32,33
 1678 46 1678 46 1708 49.5 c 128,-1,34
 1738 53 1738 53 1789 66.5 c 128,-1,35
 1840 80 1840 80 1915.5 107.5 c 128,-1,36
 1991 135 1991 135 2098 182 c 1,37,38
 2100 176 2100 176 2103 172 c 0,39,40
 2105 168 2105 168 2106.5 164 c 128,-1,41
 2108 160 2108 160 2108 158 c 1,42,43
 2055 134 2055 134 1997.5 106 c 128,-1,44
 1940 78 1940 78 1879 54 c 128,-1,45
 1818 30 1818 30 1754.5 14 c 128,-1,46
 1691 -2 1691 -2 1626 -2 c 0,47,48
 1579 -2 1579 -2 1524.5 6 c 128,-1,49
 1470 14 1470 14 1411.5 26 c 128,-1,50
 1353 38 1353 38 1292.5 53 c 128,-1,51
 1232 68 1232 68 1172 82 c 1,52,53
 1097 41 1097 41 1017 19.5 c 128,-1,54
 937 -2 937 -2 848 -2 c 0,55,56
 808 -2 808 -2 773.5 6.5 c 128,-1,57
 739 15 739 15 713.5 28.5 c 128,-1,58
 688 42 688 42 673 60 c 128,-1,59
 658 78 658 78 658 98 c 0,60,61
 658 129 658 129 673 148.5 c 128,-1,62
 688 168 688 168 712 178.5 c 128,-1,63
 736 189 736 189 766.5 192.5 c 128,-1,64
 797 196 797 196 828 196 c 0,65,66
 881 196 881 196 956.5 182 c 128,-1,67
 1032 168 1032 168 1120 148 c 1,68,69
 1175 189 1175 189 1230 242.5 c 128,-1,70
 1285 296 1285 296 1339 355 c 128,-1,71
 1393 414 1393 414 1444.5 475 c 128,-1,72
 1496 536 1496 536 1546 592 c 0,73,74
 1578 627 1578 627 1616.5 672 c 128,-1,75
 1655 717 1655 717 1700 768 c 1,76,77
 1652 772 1652 772 1593 782.5 c 128,-1,78
 1534 793 1534 793 1482 814 c 128,-1,79
 1430 835 1430 835 1395 866.5 c 128,-1,80
 1360 898 1360 898 1360 944 c 0,81,82
 1360 982 1360 982 1380.5 1011.5 c 128,-1,83
 1401 1041 1401 1041 1434 1063 c 128,-1,84
 1467 1085 1467 1085 1509 1100.5 c 128,-1,85
 1551 1116 1551 1116 1594 1126 c 128,-1,86
 1637 1136 1637 1136 1677.5 1141.5 c 128,-1,87
 1718 1147 1718 1147 1748 1150 c 1,88,-1
 1754 1138 l 1,89,90
 1722 1136 1722 1136 1676 1121 c 128,-1,91
 1630 1106 1630 1106 1586.5 1080.5 c 128,-1,92
 1543 1055 1543 1055 1512.5 1020.5 c 128,-1,93
 1482 986 1482 986 1482 946 c 0,94,95
 1482 908 1482 908 1507.5 884 c 128,-1,96
 1533 860 1533 860 1572 845 c 128,-1,97
 1611 830 1611 830 1656.5 823 c 128,-1,98
 1702 816 1702 816 1742 814 c 1,99,100
 1814 897 1814 897 1893 983.5 c 128,-1,101
 1972 1070 1972 1070 2050 1150 c 1,0,1
1930 824 m 1,102,103
 1956 829 1956 829 1981 833.5 c 128,-1,104
 2006 838 2006 838 2032 846 c 0,105,106
 2080 859 2080 859 2150 888.5 c 128,-1,107
 2220 918 2220 918 2297 959.5 c 128,-1,108
 2374 1001 2374 1001 2450 1052.5 c 128,-1,109
 2526 1104 2526 1104 2586.5 1159.5 c 128,-1,110
 2647 1215 2647 1215 2684.5 1272.5 c 128,-1,111
 2722 1330 2722 1330 2722 1384 c 0,112,113
 2722 1397 2722 1397 2715 1405 c 128,-1,114
 2708 1413 2708 1413 2697 1417.5 c 128,-1,115
 2686 1422 2686 1422 2673 1423 c 128,-1,116
 2660 1424 2660 1424 2648 1424 c 0,117,118
 2603 1424 2603 1424 2557.5 1408.5 c 128,-1,119
 2512 1393 2512 1393 2467 1366 c 128,-1,120
 2422 1339 2422 1339 2378.5 1304 c 128,-1,121
 2335 1269 2335 1269 2294 1230 c 1,122,123
 2270 1204 2270 1204 2247 1180 c 128,-1,124
 2224 1156 2224 1156 2206 1136 c 2,125,-1
 1930 824 l 1,102,103
878 48 m 0,126,127
 923 48 923 48 968 63.5 c 128,-1,128
 1013 79 1013 79 1060 106 c 1,129,130
 1000 120 1000 120 943 128 c 128,-1,131
 886 136 886 136 838 136 c 0,132,133
 826 136 826 136 812 135 c 128,-1,134
 798 134 798 134 786 130.5 c 128,-1,135
 774 127 774 127 766 120 c 128,-1,136
 758 113 758 113 758 102 c 256,137,138
 758 91 758 91 769 81.5 c 128,-1,139
 780 72 780 72 797 64.5 c 128,-1,140
 814 57 814 57 835.5 52.5 c 128,-1,141
 857 48 857 48 878 48 c 0,126,127
EndSplineSet
EndChar

StartChar: M
Encoding: 77 77 48
Width: 2292
Flags: W
LayerCount: 2
Fore
SplineSet
342 302 m 0,0,1
 356 302 356 302 370 298.5 c 128,-1,2
 384 295 384 295 394.5 286.5 c 128,-1,3
 405 278 405 278 411.5 263 c 128,-1,4
 418 248 418 248 418 226 c 0,5,6
 418 194 418 194 402.5 174 c 128,-1,7
 387 154 387 154 369 140 c 128,-1,8
 351 126 351 126 335.5 114.5 c 128,-1,9
 320 103 320 103 320 88 c 0,10,11
 320 77 320 77 329 69.5 c 128,-1,12
 338 62 338 62 351 57.5 c 128,-1,13
 364 53 364 53 379 51.5 c 128,-1,14
 394 50 394 50 406 50 c 0,15,16
 454 50 454 50 494.5 55.5 c 128,-1,17
 535 61 535 61 573.5 72 c 128,-1,18
 612 83 612 83 651.5 99.5 c 128,-1,19
 691 116 691 116 738 138 c 0,20,21
 767 151 767 151 806 175.5 c 128,-1,22
 845 200 845 200 889 231 c 128,-1,23
 933 262 933 262 979.5 297 c 128,-1,24
 1026 332 1026 332 1068.5 367 c 128,-1,25
 1111 402 1111 402 1148 434.5 c 128,-1,26
 1185 467 1185 467 1210 492 c 2,27,-1
 1630 904 l 2,28,29
 1837 1108 1837 1108 2063.5 1260 c 128,-1,30
 2290 1412 2290 1412 2536 1512 c 0,31,32
 2541 1514 2541 1514 2551 1516 c 128,-1,33
 2561 1518 2561 1518 2572 1518 c 0,34,35
 2581 1518 2581 1518 2587.5 1515.5 c 128,-1,36
 2594 1513 2594 1513 2594 1504 c 0,37,38
 2594 1488 2594 1488 2588.5 1477 c 128,-1,39
 2583 1466 2583 1466 2575 1458.5 c 128,-1,40
 2567 1451 2567 1451 2558.5 1446 c 128,-1,41
 2550 1441 2550 1441 2544 1438 c 0,42,43
 2505 1419 2505 1419 2454 1379 c 128,-1,44
 2403 1339 2403 1339 2345 1284.5 c 128,-1,45
 2287 1230 2287 1230 2224.5 1164.5 c 128,-1,46
 2162 1099 2162 1099 2101 1031 c 128,-1,47
 2040 963 2040 963 1983 895 c 128,-1,48
 1926 827 1926 827 1878 768 c 0,49,50
 1835 715 1835 715 1786 660 c 128,-1,51
 1737 605 1737 605 1687 550 c 128,-1,52
 1637 495 1637 495 1588.5 442 c 128,-1,53
 1540 389 1540 389 1498 340 c 0,54,55
 1481 319 1481 319 1469 304 c 128,-1,56
 1457 289 1457 289 1446 276.5 c 128,-1,57
 1435 264 1435 264 1422.5 252 c 128,-1,58
 1410 240 1410 240 1392 224 c 1,59,60
 1436 254 1436 254 1482.5 289.5 c 128,-1,61
 1529 325 1529 325 1572.5 360.5 c 128,-1,62
 1616 396 1616 396 1653 429 c 128,-1,63
 1690 462 1690 462 1716 488 c 2,64,-1
 2136 900 l 2,65,66
 2343 1104 2343 1104 2569.5 1256 c 128,-1,67
 2796 1408 2796 1408 3042 1508 c 0,68,69
 3047 1510 3047 1510 3057 1512 c 128,-1,70
 3067 1514 3067 1514 3078 1514 c 0,71,72
 3087 1514 3087 1514 3093.5 1511.5 c 128,-1,73
 3100 1509 3100 1509 3100 1500 c 0,74,75
 3100 1484 3100 1484 3094.5 1473 c 128,-1,76
 3089 1462 3089 1462 3081 1454.5 c 128,-1,77
 3073 1447 3073 1447 3064.5 1442 c 128,-1,78
 3056 1437 3056 1437 3050 1434 c 0,79,80
 3011 1416 3011 1416 2960 1375.5 c 128,-1,81
 2909 1335 2909 1335 2851 1280.5 c 128,-1,82
 2793 1226 2793 1226 2730.5 1160.5 c 128,-1,83
 2668 1095 2668 1095 2607 1027 c 128,-1,84
 2546 959 2546 959 2489 891 c 128,-1,85
 2432 823 2432 823 2384 764 c 0,86,87
 2334 703 2334 703 2276.5 639 c 128,-1,88
 2219 575 2219 575 2161 511.5 c 128,-1,89
 2103 448 2103 448 2049 388.5 c 128,-1,90
 1995 329 1995 329 1953.5 277 c 128,-1,91
 1912 225 1912 225 1887 183 c 128,-1,92
 1862 141 1862 141 1862 114 c 0,93,94
 1862 73 1862 73 1876 60.5 c 128,-1,95
 1890 48 1890 48 1928 48 c 0,96,97
 1970 48 1970 48 2024 61.5 c 128,-1,98
 2078 75 2078 75 2134.5 95 c 128,-1,99
 2191 115 2191 115 2245.5 139 c 128,-1,100
 2300 163 2300 163 2344 184 c 1,101,-1
 2354 160 l 1,102,103
 2202 86 2202 86 2079 43 c 128,-1,104
 1956 0 1956 0 1870 0 c 0,105,106
 1846 0 1846 0 1820 4 c 128,-1,107
 1794 8 1794 8 1772 21 c 128,-1,108
 1750 34 1750 34 1736 58 c 128,-1,109
 1722 82 1722 82 1722 122 c 0,110,111
 1722 159 1722 159 1760 219 c 128,-1,112
 1798 279 1798 279 1862.5 358.5 c 128,-1,113
 1927 438 1927 438 2012 533.5 c 128,-1,114
 2097 629 2097 629 2192 736 c 0,115,116
 2243 794 2243 794 2285.5 842 c 128,-1,117
 2328 890 2328 890 2366 932 c 128,-1,118
 2404 974 2404 974 2441 1014.5 c 128,-1,119
 2478 1055 2478 1055 2519 1098 c 128,-1,120
 2560 1141 2560 1141 2608.5 1190.5 c 128,-1,121
 2657 1240 2657 1240 2718 1302 c 1,122,123
 2657 1267 2657 1267 2583 1215.5 c 128,-1,124
 2509 1164 2509 1164 2434 1105 c 128,-1,125
 2359 1046 2359 1046 2289.5 985 c 128,-1,126
 2220 924 2220 924 2168 872 c 1,127,128
 2099 801 2099 801 2027 726.5 c 128,-1,129
 1955 652 1955 652 1880 577 c 128,-1,130
 1805 502 1805 502 1726 429.5 c 128,-1,131
 1647 357 1647 357 1564 292 c 1,132,-1
 1554 284 l 1,133,134
 1503 245 1503 245 1446 206 c 0,135,136
 1405 177 1405 177 1359.5 148.5 c 128,-1,137
 1314 120 1314 120 1266 96 c 0,138,139
 1207 66 1207 66 1166 48 c 128,-1,140
 1125 30 1125 30 1096.5 20 c 128,-1,141
 1068 10 1068 10 1049.5 7 c 128,-1,142
 1031 4 1031 4 1018 4 c 0,143,144
 1013 4 1013 4 1005.5 5 c 128,-1,145
 998 6 998 6 991 9 c 128,-1,146
 984 12 984 12 979 17 c 128,-1,147
 974 22 974 22 974 30 c 0,148,149
 974 48 974 48 1006.5 68 c 128,-1,150
 1039 88 1039 88 1092 114 c 0,151,152
 1152 143 1152 143 1203.5 188.5 c 128,-1,153
 1255 234 1255 234 1312 308 c 0,154,155
 1345 351 1345 351 1386.5 400 c 128,-1,156
 1428 449 1428 449 1476 503.5 c 128,-1,157
 1524 558 1524 558 1577 617.5 c 128,-1,158
 1630 677 1630 677 1686 740 c 0,159,160
 1737 798 1737 798 1779.5 846 c 128,-1,161
 1822 894 1822 894 1860 936 c 128,-1,162
 1898 978 1898 978 1935 1018.5 c 128,-1,163
 1972 1059 1972 1059 2013 1102 c 128,-1,164
 2054 1145 2054 1145 2102.5 1194.5 c 128,-1,165
 2151 1244 2151 1244 2212 1306 c 1,166,167
 2151 1271 2151 1271 2077 1219.5 c 128,-1,168
 2003 1168 2003 1168 1928 1109 c 128,-1,169
 1853 1050 1853 1050 1783.5 989 c 128,-1,170
 1714 928 1714 928 1662 876 c 1,171,172
 1564 775 1564 775 1459.5 667 c 128,-1,173
 1355 559 1355 559 1243 456 c 128,-1,174
 1131 353 1131 353 1010 261 c 128,-1,175
 889 169 889 169 758 102 c 0,176,177
 702 74 702 74 654 55.5 c 128,-1,178
 606 37 606 37 562.5 25.5 c 128,-1,179
 519 14 519 14 478.5 9 c 128,-1,180
 438 4 438 4 398 4 c 0,181,182
 347 4 347 4 311.5 18.5 c 128,-1,183
 276 33 276 33 254 55.5 c 128,-1,184
 232 78 232 78 222 105 c 128,-1,185
 212 132 212 132 212 158 c 0,186,187
 212 189 212 189 223 215.5 c 128,-1,188
 234 242 234 242 252 261.5 c 128,-1,189
 270 281 270 281 293.5 291.5 c 128,-1,190
 317 302 317 302 342 302 c 0,0,1
EndSplineSet
EndChar

StartChar: N
Encoding: 78 78 49
Width: 1936
Flags: W
LayerCount: 2
Fore
SplineSet
1316 312 m 0,0,1
 1349 355 1349 355 1390.5 404 c 128,-1,2
 1432 453 1432 453 1480 507.5 c 128,-1,3
 1528 562 1528 562 1581 621.5 c 128,-1,4
 1634 681 1634 681 1690 744 c 0,5,6
 1741 802 1741 802 1783.5 850 c 128,-1,7
 1826 898 1826 898 1864 940 c 128,-1,8
 1902 982 1902 982 1939 1022.5 c 128,-1,9
 1976 1063 1976 1063 2017 1106 c 128,-1,10
 2058 1149 2058 1149 2106.5 1198.5 c 128,-1,11
 2155 1248 2155 1248 2216 1310 c 1,12,13
 2155 1275 2155 1275 2081 1223.5 c 128,-1,14
 2007 1172 2007 1172 1932 1113 c 128,-1,15
 1857 1054 1857 1054 1787.5 993 c 128,-1,16
 1718 932 1718 932 1666 880 c 1,17,18
 1568 779 1568 779 1463.5 671 c 128,-1,19
 1359 563 1359 563 1247 460 c 128,-1,20
 1135 357 1135 357 1014 265 c 128,-1,21
 893 173 893 173 762 106 c 0,22,23
 706 78 706 78 658 59.5 c 128,-1,24
 610 41 610 41 566.5 29.5 c 128,-1,25
 523 18 523 18 482.5 13 c 128,-1,26
 442 8 442 8 402 8 c 0,27,28
 351 8 351 8 315.5 22.5 c 128,-1,29
 280 37 280 37 258 59.5 c 128,-1,30
 236 82 236 82 226 109 c 128,-1,31
 216 136 216 136 216 162 c 0,32,33
 216 193 216 193 227 219.5 c 128,-1,34
 238 246 238 246 256 265.5 c 128,-1,35
 274 285 274 285 297.5 295.5 c 128,-1,36
 321 306 321 306 346 306 c 0,37,38
 360 306 360 306 374 302.5 c 128,-1,39
 388 299 388 299 398.5 290.5 c 128,-1,40
 409 282 409 282 415.5 267 c 128,-1,41
 422 252 422 252 422 230 c 0,42,43
 422 198 422 198 406.5 178 c 128,-1,44
 391 158 391 158 373 144 c 128,-1,45
 355 130 355 130 339.5 118.5 c 128,-1,46
 324 107 324 107 324 92 c 0,47,48
 324 81 324 81 333 73.5 c 128,-1,49
 342 66 342 66 355 61.5 c 128,-1,50
 368 57 368 57 383 55.5 c 128,-1,51
 398 54 398 54 410 54 c 0,52,53
 458 54 458 54 498.5 59.5 c 128,-1,54
 539 65 539 65 577.5 76 c 128,-1,55
 616 87 616 87 655.5 103.5 c 128,-1,56
 695 120 695 120 742 142 c 0,57,58
 770 155 770 155 809.5 179.5 c 128,-1,59
 849 204 849 204 893 235 c 128,-1,60
 937 266 937 266 983.5 301 c 128,-1,61
 1030 336 1030 336 1072.5 371 c 128,-1,62
 1115 406 1115 406 1152 438.5 c 128,-1,63
 1189 471 1189 471 1214 496 c 2,64,-1
 1634 908 l 2,65,66
 1841 1112 1841 1112 2067.5 1264 c 128,-1,67
 2294 1416 2294 1416 2540 1516 c 0,68,69
 2545 1518 2545 1518 2555 1520 c 128,-1,70
 2565 1522 2565 1522 2576 1522 c 0,71,72
 2585 1522 2585 1522 2591.5 1519.5 c 128,-1,73
 2598 1517 2598 1517 2598 1508 c 0,74,75
 2598 1492 2598 1492 2592.5 1481 c 128,-1,76
 2587 1470 2587 1470 2579 1462.5 c 128,-1,77
 2571 1455 2571 1455 2562.5 1450 c 128,-1,78
 2554 1445 2554 1445 2548 1442 c 0,79,80
 2509 1424 2509 1424 2458 1383.5 c 128,-1,81
 2407 1343 2407 1343 2349 1288.5 c 128,-1,82
 2291 1234 2291 1234 2228.5 1168.5 c 128,-1,83
 2166 1103 2166 1103 2105 1035 c 128,-1,84
 2044 967 2044 967 1987 899 c 128,-1,85
 1930 831 1930 831 1882 772 c 0,86,87
 1839 719 1839 719 1790 664 c 128,-1,88
 1741 609 1741 609 1691 554 c 128,-1,89
 1641 499 1641 499 1592.5 446 c 128,-1,90
 1544 393 1544 393 1502 344 c 0,91,92
 1485 323 1485 323 1473 308 c 128,-1,93
 1461 293 1461 293 1450 280.5 c 128,-1,94
 1439 268 1439 268 1426.5 256 c 128,-1,95
 1414 244 1414 244 1396 228 c 1,96,97
 1482 275 1482 275 1561 325 c 128,-1,98
 1640 375 1640 375 1719 433.5 c 128,-1,99
 1798 492 1798 492 1880.5 562.5 c 128,-1,100
 1963 633 1963 633 2055 720 c 128,-1,101
 2147 807 2147 807 2253 913.5 c 128,-1,102
 2359 1020 2359 1020 2486 1152 c 0,103,104
 2592 1263 2592 1263 2674 1331.5 c 128,-1,105
 2756 1400 2756 1400 2822 1438 c 128,-1,106
 2888 1476 2888 1476 2942.5 1489 c 128,-1,107
 2997 1502 2997 1502 3050 1502 c 0,108,109
 3112 1502 3112 1502 3145 1474.5 c 128,-1,110
 3178 1447 3178 1447 3178 1406 c 0,111,112
 3178 1381 3178 1381 3166.5 1352.5 c 128,-1,113
 3155 1324 3155 1324 3133.5 1300 c 128,-1,114
 3112 1276 3112 1276 3080 1260 c 128,-1,115
 3048 1244 3048 1244 3008 1244 c 0,116,117
 2996 1244 2996 1244 2982.5 1247 c 128,-1,118
 2969 1250 2969 1250 2957 1257 c 128,-1,119
 2945 1264 2945 1264 2937.5 1275.5 c 128,-1,120
 2930 1287 2930 1287 2930 1304 c 0,121,122
 2930 1335 2930 1335 2950.5 1354 c 128,-1,123
 2971 1373 2971 1373 2996 1385.5 c 128,-1,124
 3021 1398 3021 1398 3041.5 1408 c 128,-1,125
 3062 1418 3062 1418 3062 1432 c 0,126,127
 3062 1443 3062 1443 3049 1445.5 c 128,-1,128
 3036 1448 3036 1448 3024 1448 c 0,129,130
 2980 1448 2980 1448 2937 1435 c 128,-1,131
 2894 1422 2894 1422 2852.5 1400 c 128,-1,132
 2811 1378 2811 1378 2771.5 1349 c 128,-1,133
 2732 1320 2732 1320 2696 1288 c 0,134,135
 2642 1240 2642 1240 2596.5 1191 c 128,-1,136
 2551 1142 2551 1142 2516 1106 c 0,137,138
 2393 975 2393 975 2286.5 866.5 c 128,-1,139
 2180 758 2180 758 2081.5 666 c 128,-1,140
 1983 574 1983 574 1888.5 496 c 128,-1,141
 1794 418 1794 418 1696.5 349.5 c 128,-1,142
 1599 281 1599 281 1494 220 c 128,-1,143
 1389 159 1389 159 1270 100 c 0,144,145
 1210 71 1210 71 1169 53 c 128,-1,146
 1128 35 1128 35 1099.5 25 c 128,-1,147
 1071 15 1071 15 1053 11.5 c 128,-1,148
 1035 8 1035 8 1022 8 c 0,149,150
 1017 8 1017 8 1009.5 9 c 128,-1,151
 1002 10 1002 10 995 13 c 128,-1,152
 988 16 988 16 983 21 c 128,-1,153
 978 26 978 26 978 34 c 0,154,155
 978 52 978 52 1010.5 72 c 128,-1,156
 1043 92 1043 92 1096 118 c 0,157,158
 1156 147 1156 147 1207.5 192.5 c 128,-1,159
 1259 238 1259 238 1316 312 c 0,0,1
EndSplineSet
EndChar

StartChar: O
Encoding: 79 79 50
Width: 2126
Flags: W
LayerCount: 2
Fore
SplineSet
1564 884 m 1,0,1
 1599 952 1599 952 1651 1024 c 128,-1,2
 1703 1096 1703 1096 1767 1164 c 128,-1,3
 1831 1232 1831 1232 1904 1293 c 128,-1,4
 1977 1354 1977 1354 2051.5 1399.5 c 128,-1,5
 2126 1445 2126 1445 2199.5 1471.5 c 128,-1,6
 2273 1498 2273 1498 2340 1498 c 0,7,8
 2374 1498 2374 1498 2404 1486.5 c 128,-1,9
 2434 1475 2434 1475 2456.5 1454 c 128,-1,10
 2479 1433 2479 1433 2492.5 1402 c 128,-1,11
 2506 1371 2506 1371 2506 1332 c 0,12,13
 2506 1241 2506 1241 2470.5 1135.5 c 128,-1,14
 2435 1030 2435 1030 2373.5 919.5 c 128,-1,15
 2312 809 2312 809 2229 698 c 128,-1,16
 2146 587 2146 587 2051 484.5 c 128,-1,17
 1956 382 1956 382 1853.5 293.5 c 128,-1,18
 1751 205 1751 205 1650.5 140 c 128,-1,19
 1550 75 1550 75 1456 37.5 c 128,-1,20
 1362 0 1362 0 1284 0 c 0,21,22
 1219 0 1219 0 1174 18.5 c 128,-1,23
 1129 37 1129 37 1101 68 c 128,-1,24
 1073 99 1073 99 1060.5 140 c 128,-1,25
 1048 181 1048 181 1048 226 c 0,26,27
 1048 291 1048 291 1064 358.5 c 128,-1,28
 1080 426 1080 426 1106.5 493 c 128,-1,29
 1133 560 1133 560 1167.5 624 c 128,-1,30
 1202 688 1202 688 1238.5 746 c 128,-1,31
 1275 804 1275 804 1310.5 853.5 c 128,-1,32
 1346 903 1346 903 1376 942 c 0,33,34
 1437 1024 1437 1024 1510.5 1097.5 c 128,-1,35
 1584 1171 1584 1171 1660 1232 c 128,-1,36
 1736 1293 1736 1293 1810 1339.5 c 128,-1,37
 1884 1386 1884 1386 1946 1414 c 1,38,-1
 1974 1384 l 1,39,40
 1886 1322 1886 1322 1809 1251.5 c 128,-1,41
 1732 1181 1732 1181 1663 1104.5 c 128,-1,42
 1594 1028 1594 1028 1531.5 945 c 128,-1,43
 1469 862 1469 862 1410 774 c 0,44,45
 1372 719 1372 719 1333 653 c 128,-1,46
 1294 587 1294 587 1261.5 512.5 c 128,-1,47
 1229 438 1229 438 1208.5 356.5 c 128,-1,48
 1188 275 1188 275 1188 190 c 0,49,50
 1188 137 1188 137 1217.5 112.5 c 128,-1,51
 1247 88 1247 88 1306 88 c 0,52,53
 1322 88 1322 88 1363.5 100.5 c 128,-1,54
 1405 113 1405 113 1464 141 c 128,-1,55
 1523 169 1523 169 1597 213.5 c 128,-1,56
 1671 258 1671 258 1753 322.5 c 128,-1,57
 1835 387 1835 387 1921 472 c 128,-1,58
 2007 557 2007 557 2092 666 c 0,59,60
 2119 701 2119 701 2153.5 749 c 128,-1,61
 2188 797 2188 797 2224 851.5 c 128,-1,62
 2260 906 2260 906 2294.5 965.5 c 128,-1,63
 2329 1025 2329 1025 2356 1083.5 c 128,-1,64
 2383 1142 2383 1142 2399.5 1198 c 128,-1,65
 2416 1254 2416 1254 2416 1302 c 0,66,67
 2416 1347 2416 1347 2387.5 1372.5 c 128,-1,68
 2359 1398 2359 1398 2296 1398 c 0,69,70
 2269 1398 2269 1398 2226.5 1379 c 128,-1,71
 2184 1360 2184 1360 2130 1325.5 c 128,-1,72
 2076 1291 2076 1291 2012 1242.5 c 128,-1,73
 1948 1194 1948 1194 1879.5 1134.5 c 128,-1,74
 1811 1075 1811 1075 1739 1006 c 128,-1,75
 1667 937 1667 937 1596 862 c 1,76,-1
 1564 884 l 1,0,1
EndSplineSet
EndChar

StartChar: P
Encoding: 80 80 51
Width: 2042
Flags: W
LayerCount: 2
Fore
SplineSet
1776 868 m 0,0,1
 1834 934 1834 934 1900.5 1006 c 128,-1,2
 1967 1078 1967 1078 2040 1148.5 c 128,-1,3
 2113 1219 2113 1219 2192 1283.5 c 128,-1,4
 2271 1348 2271 1348 2354 1398 c 1,5,6
 2321 1404 2321 1404 2278 1404 c 0,7,8
 2234 1404 2234 1404 2184 1402 c 128,-1,9
 2134 1400 2134 1400 2080 1393.5 c 128,-1,10
 2026 1387 2026 1387 1970 1374.5 c 128,-1,11
 1914 1362 1914 1362 1858 1342 c 0,12,13
 1806 1323 1806 1323 1757 1297.5 c 128,-1,14
 1708 1272 1708 1272 1669.5 1239.5 c 128,-1,15
 1631 1207 1631 1207 1607.5 1168 c 128,-1,16
 1584 1129 1584 1129 1584 1084 c 0,17,18
 1584 1058 1584 1058 1593 1041 c 128,-1,19
 1602 1024 1602 1024 1614 1024 c 0,20,21
 1650 1024 1650 1024 1688.5 1039 c 128,-1,22
 1727 1054 1727 1054 1765 1078.5 c 128,-1,23
 1803 1103 1803 1103 1839.5 1134.5 c 128,-1,24
 1876 1166 1876 1166 1908 1198.5 c 128,-1,25
 1940 1231 1940 1231 1966.5 1262 c 128,-1,26
 1993 1293 1993 1293 2012 1318 c 1,27,-1
 2028 1292 l 1,28,29
 1979 1198 1979 1198 1917 1124 c 0,30,31
 1890 1092 1890 1092 1858 1062 c 128,-1,32
 1826 1032 1826 1032 1788.5 1008.5 c 128,-1,33
 1751 985 1751 985 1708 970.5 c 128,-1,34
 1665 956 1665 956 1618 956 c 0,35,36
 1597 956 1597 956 1579.5 966.5 c 128,-1,37
 1562 977 1562 977 1549 994 c 128,-1,38
 1536 1011 1536 1011 1529 1033 c 128,-1,39
 1522 1055 1522 1055 1522 1078 c 0,40,41
 1522 1106 1522 1106 1533 1134.5 c 128,-1,42
 1544 1163 1544 1163 1562.5 1190.5 c 128,-1,43
 1581 1218 1581 1218 1606 1243 c 128,-1,44
 1631 1268 1631 1268 1660 1288 c 0,45,46
 1716 1327 1716 1327 1787 1357 c 128,-1,47
 1858 1387 1858 1387 1937.5 1407 c 128,-1,48
 2017 1427 2017 1427 2100.5 1437.5 c 128,-1,49
 2184 1448 2184 1448 2266 1448 c 0,50,51
 2281 1448 2281 1448 2296 1448 c 128,-1,52
 2311 1448 2311 1448 2326 1446 c 1,53,54
 2374 1443 2374 1443 2416 1434 c 1,55,56
 2497 1476 2497 1476 2584 1500 c 1,57,-1
 2600 1474 l 1,58,59
 2573 1457 2573 1457 2546.5 1441.5 c 128,-1,60
 2520 1426 2520 1426 2496 1408 c 1,61,62
 2556 1381 2556 1381 2586 1338 c 128,-1,63
 2616 1295 2616 1295 2616 1242 c 0,64,65
 2616 1180 2616 1180 2593 1137 c 128,-1,66
 2570 1094 2570 1094 2534 1067 c 128,-1,67
 2498 1040 2498 1040 2455.5 1028 c 128,-1,68
 2413 1016 2413 1016 2374 1016 c 0,69,70
 2357 1016 2357 1016 2337 1019 c 128,-1,71
 2317 1022 2317 1022 2300 1030 c 128,-1,72
 2283 1038 2283 1038 2271.5 1052.5 c 128,-1,73
 2260 1067 2260 1067 2260 1090 c 0,74,75
 2260 1109 2260 1109 2268.5 1126.5 c 128,-1,76
 2277 1144 2277 1144 2291.5 1157.5 c 128,-1,77
 2306 1171 2306 1171 2325 1179.5 c 128,-1,78
 2344 1188 2344 1188 2364 1188 c 0,79,80
 2390 1188 2390 1188 2401 1176 c 128,-1,81
 2412 1164 2412 1164 2412 1152 c 0,82,83
 2412 1132 2412 1132 2399.5 1121 c 128,-1,84
 2387 1110 2387 1110 2372 1102.5 c 128,-1,85
 2357 1095 2357 1095 2344.5 1089 c 128,-1,86
 2332 1083 2332 1083 2332 1074 c 0,87,88
 2332 1058 2332 1058 2364 1058 c 0,89,90
 2386 1058 2386 1058 2411.5 1068.5 c 128,-1,91
 2437 1079 2437 1079 2459.5 1100.5 c 128,-1,92
 2482 1122 2482 1122 2497 1155 c 128,-1,93
 2512 1188 2512 1188 2512 1234 c 0,94,95
 2512 1276 2512 1276 2498.5 1312 c 128,-1,96
 2485 1348 2485 1348 2444 1372 c 1,97,98
 2377 1321 2377 1321 2319.5 1267 c 128,-1,99
 2262 1213 2262 1213 2211 1159.5 c 128,-1,100
 2160 1106 2160 1106 2116 1055 c 128,-1,101
 2072 1004 2072 1004 2032 960 c 0,102,103
 2002 926 2002 926 1962 880 c 128,-1,104
 1922 834 1922 834 1875 780.5 c 128,-1,105
 1828 727 1828 727 1777 669 c 128,-1,106
 1726 611 1726 611 1674.5 552.5 c 128,-1,107
 1623 494 1623 494 1572 438.5 c 128,-1,108
 1521 383 1521 383 1476 336 c 0,109,110
 1406 263 1406 263 1333 202 c 128,-1,111
 1260 141 1260 141 1181 96.5 c 128,-1,112
 1102 52 1102 52 1017 27 c 128,-1,113
 932 2 932 2 838 2 c 0,114,115
 729 2 729 2 669.5 44 c 128,-1,116
 610 86 610 86 610 154 c 0,117,118
 610 179 610 179 618 205.5 c 128,-1,119
 626 232 626 232 642.5 253.5 c 128,-1,120
 659 275 659 275 683.5 288.5 c 128,-1,121
 708 302 708 302 740 302 c 0,122,123
 776 302 776 302 796 283 c 128,-1,124
 816 264 816 264 816 228 c 0,125,126
 816 195 816 195 800.5 174.5 c 128,-1,127
 785 154 785 154 767 140 c 128,-1,128
 749 126 749 126 733.5 114.5 c 128,-1,129
 718 103 718 103 718 88 c 0,130,131
 718 67 718 67 742 56.5 c 128,-1,132
 766 46 766 46 808 46 c 0,133,134
 888 46 888 46 957 70 c 128,-1,135
 1026 94 1026 94 1089 137 c 128,-1,136
 1152 180 1152 180 1212.5 240 c 128,-1,137
 1273 300 1273 300 1336 372 c 0,138,139
 1433 482 1433 482 1545.5 608 c 128,-1,140
 1658 734 1658 734 1776 868 c 0,0,1
EndSplineSet
EndChar

StartChar: Q
Encoding: 81 81 52
Width: 2250
Flags: W
LayerCount: 2
Fore
SplineSet
2518 1264 m 0,0,1
 2518 1186 2518 1186 2489.5 1103.5 c 128,-1,2
 2461 1021 2461 1021 2410.5 936.5 c 128,-1,3
 2360 852 2360 852 2291 768 c 128,-1,4
 2222 684 2222 684 2140.5 604.5 c 128,-1,5
 2059 525 2059 525 1969 451.5 c 128,-1,6
 1879 378 1879 378 1787 314 c 128,-1,7
 1695 250 1695 250 1604 198 c 128,-1,8
 1513 146 1513 146 1430 110 c 1,9,10
 1485 97 1485 97 1538.5 85.5 c 128,-1,11
 1592 74 1592 74 1642 65 c 128,-1,12
 1692 56 1692 56 1737 51 c 128,-1,13
 1782 46 1782 46 1820 46 c 0,14,15
 1836 46 1836 46 1866 49.5 c 128,-1,16
 1896 53 1896 53 1947 66.5 c 128,-1,17
 1998 80 1998 80 2073.5 107.5 c 128,-1,18
 2149 135 2149 135 2256 182 c 1,19,20
 2258 176 2258 176 2261 172 c 0,21,22
 2263 168 2263 168 2264.5 164 c 128,-1,23
 2266 160 2266 160 2266 158 c 1,24,25
 2213 134 2213 134 2155.5 106 c 128,-1,26
 2098 78 2098 78 2037 54 c 128,-1,27
 1976 30 1976 30 1912.5 14 c 128,-1,28
 1849 -2 1849 -2 1784 -2 c 0,29,30
 1739 -2 1739 -2 1687 5 c 128,-1,31
 1635 12 1635 12 1579.5 23.5 c 128,-1,32
 1524 35 1524 35 1465 48.5 c 128,-1,33
 1406 62 1406 62 1348 76 c 1,34,35
 1248 38 1248 38 1161 18 c 128,-1,36
 1074 -2 1074 -2 1006 -2 c 0,37,38
 966 -2 966 -2 931.5 6.5 c 128,-1,39
 897 15 897 15 871.5 28.5 c 128,-1,40
 846 42 846 42 831 60 c 128,-1,41
 816 78 816 78 816 98 c 0,42,43
 816 129 816 129 831 148.5 c 128,-1,44
 846 168 846 168 870 178.5 c 128,-1,45
 894 189 894 189 924.5 192.5 c 128,-1,46
 955 196 955 196 986 196 c 0,47,48
 1042 196 1042 196 1125.5 179.5 c 128,-1,49
 1209 163 1209 163 1304 140 c 1,50,51
 1376 176 1376 176 1461 228.5 c 128,-1,52
 1546 281 1546 281 1636 347 c 128,-1,53
 1726 413 1726 413 1817.5 489.5 c 128,-1,54
 1909 566 1909 566 1993.5 649.5 c 128,-1,55
 2078 733 2078 733 2151.5 820 c 128,-1,56
 2225 907 2225 907 2279 994.5 c 128,-1,57
 2333 1082 2333 1082 2364.5 1167 c 128,-1,58
 2396 1252 2396 1252 2396 1330 c 0,59,60
 2396 1337 2396 1337 2394 1355.5 c 128,-1,61
 2392 1374 2392 1374 2384.5 1393.5 c 128,-1,62
 2377 1413 2377 1413 2363 1428.5 c 128,-1,63
 2349 1444 2349 1444 2324 1444 c 0,64,65
 2309 1444 2309 1444 2296 1441 c 128,-1,66
 2283 1438 2283 1438 2266 1432 c 0,67,68
 2190 1404 2190 1404 2118 1357 c 128,-1,69
 2046 1310 2046 1310 1982.5 1252.5 c 128,-1,70
 1919 1195 1919 1195 1866 1131 c 128,-1,71
 1813 1067 1813 1067 1775 1004 c 128,-1,72
 1737 941 1737 941 1715.5 883.5 c 128,-1,73
 1694 826 1694 826 1694 782 c 0,74,75
 1694 761 1694 761 1709.5 750.5 c 128,-1,76
 1725 740 1725 740 1754 740 c 0,77,78
 1788 740 1788 740 1840 754.5 c 128,-1,79
 1892 769 1892 769 1954.5 804 c 128,-1,80
 2017 839 2017 839 2087.5 897.5 c 128,-1,81
 2158 956 2158 956 2230 1044 c 1,82,-1
 2246 1026 l 1,83,84
 2198 947 2198 947 2135 878.5 c 128,-1,85
 2072 810 2072 810 2003 759 c 128,-1,86
 1934 708 1934 708 1863 679 c 128,-1,87
 1792 650 1792 650 1728 650 c 0,88,89
 1677 650 1677 650 1647 668.5 c 128,-1,90
 1617 687 1617 687 1601 718.5 c 128,-1,91
 1585 750 1585 750 1580.5 790 c 128,-1,92
 1576 830 1576 830 1576 874 c 0,93,94
 1576 951 1576 951 1612 1027.5 c 128,-1,95
 1648 1104 1648 1104 1707.5 1173.5 c 128,-1,96
 1767 1243 1767 1243 1845 1303.5 c 128,-1,97
 1923 1364 1923 1364 2007 1408 c 128,-1,98
 2091 1452 2091 1452 2175 1477 c 128,-1,99
 2259 1502 2259 1502 2332 1502 c 0,100,101
 2386 1502 2386 1502 2422 1485.5 c 128,-1,102
 2458 1469 2458 1469 2479 1438 c 128,-1,103
 2500 1407 2500 1407 2509 1363 c 128,-1,104
 2518 1319 2518 1319 2518 1264 c 0,0,1
1036 48 m 0,105,106
 1066 48 1066 48 1115 62.5 c 128,-1,107
 1164 77 1164 77 1226 104 c 1,108,109
 1163 118 1163 118 1105 127 c 128,-1,110
 1047 136 1047 136 996 136 c 0,111,112
 984 136 984 136 970 135 c 128,-1,113
 956 134 956 134 944 130.5 c 128,-1,114
 932 127 932 127 924 120 c 128,-1,115
 916 113 916 113 916 102 c 256,116,117
 916 91 916 91 927 81.5 c 128,-1,118
 938 72 938 72 955 64.5 c 128,-1,119
 972 57 972 57 993.5 52.5 c 128,-1,120
 1015 48 1015 48 1036 48 c 0,105,106
EndSplineSet
EndChar

StartChar: R
Encoding: 82 82 53
Width: 2354
Flags: W
LayerCount: 2
Fore
SplineSet
2300 1402 m 0,0,1
 2256 1402 2256 1402 2206 1400 c 128,-1,2
 2156 1398 2156 1398 2102 1391.5 c 128,-1,3
 2048 1385 2048 1385 1992 1372.5 c 128,-1,4
 1936 1360 1936 1360 1880 1340 c 0,5,6
 1828 1321 1828 1321 1779 1295.5 c 128,-1,7
 1730 1270 1730 1270 1691.5 1237.5 c 128,-1,8
 1653 1205 1653 1205 1629.5 1166 c 128,-1,9
 1606 1127 1606 1127 1606 1082 c 0,10,11
 1606 1056 1606 1056 1615 1039 c 128,-1,12
 1624 1022 1624 1022 1636 1022 c 0,13,14
 1672 1022 1672 1022 1710.5 1037 c 128,-1,15
 1749 1052 1749 1052 1787 1076.5 c 128,-1,16
 1825 1101 1825 1101 1861.5 1132.5 c 128,-1,17
 1898 1164 1898 1164 1930 1196.5 c 128,-1,18
 1962 1229 1962 1229 1988.5 1260 c 128,-1,19
 2015 1291 2015 1291 2034 1316 c 1,20,-1
 2050 1290 l 1,21,22
 2001 1196 2001 1196 1939 1122 c 0,23,24
 1912 1090 1912 1090 1880 1060 c 128,-1,25
 1848 1030 1848 1030 1810.5 1006.5 c 128,-1,26
 1773 983 1773 983 1730 968.5 c 128,-1,27
 1687 954 1687 954 1640 954 c 0,28,29
 1619 954 1619 954 1601.5 964.5 c 128,-1,30
 1584 975 1584 975 1571 992 c 128,-1,31
 1558 1009 1558 1009 1551 1031 c 128,-1,32
 1544 1053 1544 1053 1544 1076 c 0,33,34
 1544 1104 1544 1104 1555 1132.5 c 128,-1,35
 1566 1161 1566 1161 1584.5 1188.5 c 128,-1,36
 1603 1216 1603 1216 1628 1241 c 128,-1,37
 1653 1266 1653 1266 1682 1286 c 0,38,39
 1738 1325 1738 1325 1809 1355 c 128,-1,40
 1880 1385 1880 1385 1959.5 1405 c 128,-1,41
 2039 1425 2039 1425 2122.5 1435.5 c 128,-1,42
 2206 1446 2206 1446 2288 1446 c 0,43,44
 2303 1446 2303 1446 2318 1446 c 128,-1,45
 2333 1446 2333 1446 2348 1444 c 1,46,47
 2396 1441 2396 1441 2438 1432 c 1,48,49
 2519 1474 2519 1474 2606 1498 c 1,50,-1
 2622 1472 l 1,51,52
 2595 1455 2595 1455 2568.5 1439.5 c 128,-1,53
 2542 1424 2542 1424 2518 1406 c 1,54,55
 2578 1379 2578 1379 2608 1336 c 128,-1,56
 2638 1293 2638 1293 2638 1240 c 0,57,58
 2638 1199 2638 1199 2623.5 1158.5 c 128,-1,59
 2609 1118 2609 1118 2583.5 1080.5 c 128,-1,60
 2558 1043 2558 1043 2522.5 1010 c 128,-1,61
 2487 977 2487 977 2446 952 c 1,62,63
 2474 912 2474 912 2474 870 c 0,64,65
 2474 819 2474 819 2444.5 763.5 c 128,-1,66
 2415 708 2415 708 2366.5 651 c 128,-1,67
 2318 594 2318 594 2256 537 c 128,-1,68
 2194 480 2194 480 2129.5 426.5 c 128,-1,69
 2065 373 2065 373 2003.5 323.5 c 128,-1,70
 1942 274 1942 274 1893.5 232.5 c 128,-1,71
 1845 191 1845 191 1815.5 158.5 c 128,-1,72
 1786 126 1786 126 1786 106 c 256,73,74
 1786 86 1786 86 1793.5 74.5 c 128,-1,75
 1801 63 1801 63 1813.5 57 c 128,-1,76
 1826 51 1826 51 1842.5 49.5 c 128,-1,77
 1859 48 1859 48 1878 48 c 0,78,79
 1920 48 1920 48 1974 61.5 c 128,-1,80
 2028 75 2028 75 2084.5 95 c 128,-1,81
 2141 115 2141 115 2195.5 139 c 128,-1,82
 2250 163 2250 163 2294 184 c 1,83,-1
 2304 160 l 1,84,85
 2152 86 2152 86 2029 43 c 128,-1,86
 1906 0 1906 0 1820 0 c 0,87,88
 1796 0 1796 0 1770 4 c 128,-1,89
 1744 8 1744 8 1722 21 c 128,-1,90
 1700 34 1700 34 1686 58 c 128,-1,91
 1672 82 1672 82 1672 122 c 0,92,93
 1672 159 1672 159 1701.5 202.5 c 128,-1,94
 1731 246 1731 246 1779 293 c 128,-1,95
 1827 340 1827 340 1888 390.5 c 128,-1,96
 1949 441 1949 441 2013 492.5 c 128,-1,97
 2077 544 2077 544 2138 596 c 128,-1,98
 2199 648 2199 648 2247 698.5 c 128,-1,99
 2295 749 2295 749 2324.5 797.5 c 128,-1,100
 2354 846 2354 846 2354 890 c 0,101,102
 2354 898 2354 898 2351.5 907 c 128,-1,103
 2349 916 2349 916 2344 922 c 1,104,105
 2331 911 2331 911 2317 905.5 c 128,-1,106
 2303 900 2303 900 2290 897.5 c 128,-1,107
 2277 895 2277 895 2267.5 894.5 c 128,-1,108
 2258 894 2258 894 2254 894 c 0,109,110
 2231 894 2231 894 2213.5 901.5 c 128,-1,111
 2196 909 2196 909 2184 919.5 c 128,-1,112
 2172 930 2172 930 2166 942.5 c 128,-1,113
 2160 955 2160 955 2160 966 c 0,114,115
 2160 993 2160 993 2183.5 1014.5 c 128,-1,116
 2207 1036 2207 1036 2258 1036 c 0,117,118
 2297 1036 2297 1036 2329.5 1026.5 c 128,-1,119
 2362 1017 2362 1017 2388 1002 c 1,120,121
 2415 1025 2415 1025 2441 1053.5 c 128,-1,122
 2467 1082 2467 1082 2488 1112.5 c 128,-1,123
 2509 1143 2509 1143 2521.5 1173.5 c 128,-1,124
 2534 1204 2534 1204 2534 1232 c 0,125,126
 2534 1274 2534 1274 2520.5 1310 c 128,-1,127
 2507 1346 2507 1346 2466 1370 c 1,128,129
 2399 1319 2399 1319 2341.5 1265 c 128,-1,130
 2284 1211 2284 1211 2233 1157.5 c 128,-1,131
 2182 1104 2182 1104 2138 1053 c 128,-1,132
 2094 1002 2094 1002 2054 958 c 0,133,134
 2024 924 2024 924 1984 878 c 128,-1,135
 1944 832 1944 832 1897 778.5 c 128,-1,136
 1850 725 1850 725 1799 667 c 128,-1,137
 1748 609 1748 609 1696.5 550.5 c 128,-1,138
 1645 492 1645 492 1594 436.5 c 128,-1,139
 1543 381 1543 381 1498 334 c 0,140,141
 1428 261 1428 261 1355 200 c 128,-1,142
 1282 139 1282 139 1203 94.5 c 128,-1,143
 1124 50 1124 50 1039 25 c 128,-1,144
 954 0 954 0 860 0 c 0,145,146
 751 0 751 0 691.5 42 c 128,-1,147
 632 84 632 84 632 152 c 0,148,149
 632 177 632 177 640 203.5 c 128,-1,150
 648 230 648 230 664.5 251.5 c 128,-1,151
 681 273 681 273 705.5 286.5 c 128,-1,152
 730 300 730 300 762 300 c 0,153,154
 798 300 798 300 818 281 c 128,-1,155
 838 262 838 262 838 226 c 0,156,157
 838 193 838 193 822.5 172.5 c 128,-1,158
 807 152 807 152 789 138 c 128,-1,159
 771 124 771 124 755.5 112.5 c 128,-1,160
 740 101 740 101 740 86 c 0,161,162
 740 65 740 65 764 54.5 c 128,-1,163
 788 44 788 44 830 44 c 0,164,165
 910 44 910 44 979 68 c 128,-1,166
 1048 92 1048 92 1111 135 c 128,-1,167
 1174 178 1174 178 1234.5 238 c 128,-1,168
 1295 298 1295 298 1358 370 c 0,169,170
 1455 480 1455 480 1567.5 606 c 128,-1,171
 1680 732 1680 732 1798 866 c 0,172,173
 1856 932 1856 932 1922.5 1004 c 128,-1,174
 1989 1076 1989 1076 2062 1146.5 c 128,-1,175
 2135 1217 2135 1217 2214 1281.5 c 128,-1,176
 2293 1346 2293 1346 2376 1396 c 1,177,178
 2343 1402 2343 1402 2300 1402 c 0,0,1
EndSplineSet
EndChar

StartChar: S
Encoding: 83 83 54
Width: 2104
Flags: W
LayerCount: 2
Fore
SplineSet
1752 816 m 1,0,1
 1813 883 1813 883 1858.5 932 c 128,-1,2
 1904 981 1904 981 1936 1016.5 c 128,-1,3
 1968 1052 1968 1052 1988.5 1075 c 128,-1,4
 2009 1098 2009 1098 2022 1112 c 0,5,6
 2110 1209 2110 1209 2194 1282 c 128,-1,7
 2278 1355 2278 1355 2359.5 1404.5 c 128,-1,8
 2441 1454 2441 1454 2522 1479 c 128,-1,9
 2603 1504 2603 1504 2686 1504 c 0,10,11
 2706 1504 2706 1504 2728.5 1502 c 128,-1,12
 2751 1500 2751 1500 2770 1492 c 128,-1,13
 2789 1484 2789 1484 2801.5 1468 c 128,-1,14
 2814 1452 2814 1452 2814 1424 c 0,15,16
 2814 1349 2814 1349 2771.5 1276 c 128,-1,17
 2729 1203 2729 1203 2660 1137 c 128,-1,18
 2591 1071 2591 1071 2503 1012.5 c 128,-1,19
 2415 954 2415 954 2325.5 909 c 128,-1,20
 2236 864 2236 864 2152 833 c 128,-1,21
 2068 802 2068 802 2006 790 c 1,22,23
 1953 778 1953 778 1888 772 c 1,24,25
 1841 719 1841 719 1791 661.5 c 128,-1,26
 1741 604 1741 604 1690 547 c 128,-1,27
 1639 490 1639 490 1589.5 436 c 128,-1,28
 1540 382 1540 382 1496 336 c 0,29,30
 1426 263 1426 263 1353 202 c 128,-1,31
 1280 141 1280 141 1201 96.5 c 128,-1,32
 1122 52 1122 52 1037 27 c 128,-1,33
 952 2 952 2 858 2 c 0,34,35
 749 2 749 2 689.5 44 c 128,-1,36
 630 86 630 86 630 154 c 0,37,38
 630 179 630 179 638 205.5 c 128,-1,39
 646 232 646 232 662.5 253.5 c 128,-1,40
 679 275 679 275 703.5 288.5 c 128,-1,41
 728 302 728 302 760 302 c 0,42,43
 796 302 796 302 816 283 c 128,-1,44
 836 264 836 264 836 228 c 0,45,46
 836 195 836 195 820.5 174.5 c 128,-1,47
 805 154 805 154 787 140 c 128,-1,48
 769 126 769 126 753.5 114.5 c 128,-1,49
 738 103 738 103 738 88 c 0,50,51
 738 67 738 67 762 56.5 c 128,-1,52
 786 46 786 46 828 46 c 0,53,54
 908 46 908 46 977 70 c 128,-1,55
 1046 94 1046 94 1109 137 c 128,-1,56
 1172 180 1172 180 1232.5 240 c 128,-1,57
 1293 300 1293 300 1356 372 c 0,58,59
 1434 461 1434 461 1524.5 561 c 128,-1,60
 1615 661 1615 661 1710 768 c 1,61,62
 1662 772 1662 772 1602.5 783 c 128,-1,63
 1543 794 1543 794 1491 815 c 128,-1,64
 1439 836 1439 836 1403.5 867.5 c 128,-1,65
 1368 899 1368 899 1368 946 c 0,66,67
 1368 984 1368 984 1388.5 1013.5 c 128,-1,68
 1409 1043 1409 1043 1442 1065 c 128,-1,69
 1475 1087 1475 1087 1517 1102.5 c 128,-1,70
 1559 1118 1559 1118 1602 1128 c 128,-1,71
 1645 1138 1645 1138 1685.5 1143.5 c 128,-1,72
 1726 1149 1726 1149 1756 1152 c 1,73,-1
 1762 1140 l 1,74,75
 1730 1138 1730 1138 1684 1123 c 128,-1,76
 1638 1108 1638 1108 1594.5 1082.5 c 128,-1,77
 1551 1057 1551 1057 1520.5 1022.5 c 128,-1,78
 1490 988 1490 988 1490 948 c 0,79,80
 1490 910 1490 910 1516 885.5 c 128,-1,81
 1542 861 1542 861 1581 846 c 128,-1,82
 1620 831 1620 831 1666 824.5 c 128,-1,83
 1712 818 1712 818 1752 816 c 1,0,1
2302 1232 m 1,84,85
 2205 1135 2205 1135 2115.5 1033.5 c 128,-1,86
 2026 932 2026 932 1934 826 c 1,87,88
 1960 829 1960 829 1986.5 834.5 c 128,-1,89
 2013 840 2013 840 2040 848 c 1,90,91
 2076 857 2076 857 2125 876.5 c 128,-1,92
 2174 896 2174 896 2229.5 923 c 128,-1,93
 2285 950 2285 950 2343.5 983.5 c 128,-1,94
 2402 1017 2402 1017 2457.5 1055 c 128,-1,95
 2513 1093 2513 1093 2562.5 1134 c 128,-1,96
 2612 1175 2612 1175 2649.5 1217.5 c 128,-1,97
 2687 1260 2687 1260 2708.5 1302.5 c 128,-1,98
 2730 1345 2730 1345 2730 1386 c 0,99,100
 2730 1399 2730 1399 2723 1407 c 128,-1,101
 2716 1415 2716 1415 2705 1419.5 c 128,-1,102
 2694 1424 2694 1424 2681 1425 c 128,-1,103
 2668 1426 2668 1426 2656 1426 c 0,104,105
 2611 1426 2611 1426 2565.5 1410.5 c 128,-1,106
 2520 1395 2520 1395 2475 1368 c 128,-1,107
 2430 1341 2430 1341 2386.5 1306 c 128,-1,108
 2343 1271 2343 1271 2302 1232 c 1,84,85
EndSplineSet
EndChar

StartChar: T
Encoding: 84 84 55
Width: 2186
Flags: W
LayerCount: 2
Fore
SplineSet
1916 868 m 0,0,1
 1967 926 1967 926 2024 988.5 c 128,-1,2
 2081 1051 2081 1051 2142.5 1112.5 c 128,-1,3
 2204 1174 2204 1174 2270.5 1233 c 128,-1,4
 2337 1292 2337 1292 2408 1342 c 1,5,6
 2374 1346 2374 1346 2340 1351 c 128,-1,7
 2306 1356 2306 1356 2264 1360.5 c 128,-1,8
 2222 1365 2222 1365 2168 1367.5 c 128,-1,9
 2114 1370 2114 1370 2040 1370 c 0,10,11
 1913 1370 1913 1370 1805 1341 c 128,-1,12
 1697 1312 1697 1312 1618 1268 c 128,-1,13
 1539 1224 1539 1224 1494.5 1172 c 128,-1,14
 1450 1120 1450 1120 1450 1074 c 0,15,16
 1450 1055 1450 1055 1457 1038.5 c 128,-1,17
 1464 1022 1464 1022 1481.5 1009.5 c 128,-1,18
 1499 997 1499 997 1527.5 989.5 c 128,-1,19
 1556 982 1556 982 1600 982 c 0,20,21
 1635 982 1635 982 1669.5 992.5 c 128,-1,22
 1704 1003 1704 1003 1736.5 1020.5 c 128,-1,23
 1769 1038 1769 1038 1799 1060.5 c 128,-1,24
 1829 1083 1829 1083 1855 1107 c 0,25,26
 1916 1162 1916 1162 1970 1232 c 1,27,-1
 1984 1206 l 1,28,29
 1945 1113 1945 1113 1896.5 1055 c 128,-1,30
 1848 997 1848 997 1797 965 c 128,-1,31
 1746 933 1746 933 1694.5 921.5 c 128,-1,32
 1643 910 1643 910 1598 910 c 0,33,34
 1563 910 1563 910 1527.5 917.5 c 128,-1,35
 1492 925 1492 925 1463.5 944 c 128,-1,36
 1435 963 1435 963 1417.5 995 c 128,-1,37
 1400 1027 1400 1027 1400 1076 c 0,38,39
 1400 1124 1400 1124 1430.5 1171.5 c 128,-1,40
 1461 1219 1461 1219 1512.5 1263 c 128,-1,41
 1564 1307 1564 1307 1632 1345 c 128,-1,42
 1700 1383 1700 1383 1775.5 1411.5 c 128,-1,43
 1851 1440 1851 1440 1929.5 1456 c 128,-1,44
 2008 1472 2008 1472 2080 1472 c 0,45,46
 2120 1472 2120 1472 2167 1466.5 c 128,-1,47
 2214 1461 2214 1461 2269 1452.5 c 128,-1,48
 2324 1444 2324 1444 2388 1434 c 128,-1,49
 2452 1424 2452 1424 2526 1416 c 1,50,51
 2574 1443 2574 1443 2623.5 1464.5 c 128,-1,52
 2673 1486 2673 1486 2724 1500 c 1,53,-1
 2740 1474 l 1,54,55
 2711 1457 2711 1457 2685.5 1440.5 c 128,-1,56
 2660 1424 2660 1424 2634 1406 c 1,57,58
 2685 1403 2685 1403 2741.5 1400.5 c 128,-1,59
 2798 1398 2798 1398 2860 1398 c 0,60,61
 2899 1398 2899 1398 2937.5 1399 c 128,-1,62
 2976 1400 2976 1400 3012 1402 c 1,63,-1
 2986 1366 l 1,64,65
 2886 1348 2886 1348 2788 1340 c 128,-1,66
 2690 1332 2690 1332 2590 1332 c 2,67,-1
 2536 1332 l 1,68,69
 2478 1285 2478 1285 2427.5 1235.5 c 128,-1,70
 2377 1186 2377 1186 2332 1138 c 128,-1,71
 2287 1090 2287 1090 2247.5 1045 c 128,-1,72
 2208 1000 2208 1000 2172 960 c 0,73,74
 2142 926 2142 926 2102 880 c 128,-1,75
 2062 834 2062 834 2015 780.5 c 128,-1,76
 1968 727 1968 727 1917 669 c 128,-1,77
 1866 611 1866 611 1814.5 552.5 c 128,-1,78
 1763 494 1763 494 1712 438.5 c 128,-1,79
 1661 383 1661 383 1616 336 c 0,80,81
 1546 263 1546 263 1473 202 c 128,-1,82
 1400 141 1400 141 1321 96.5 c 128,-1,83
 1242 52 1242 52 1157 27 c 128,-1,84
 1072 2 1072 2 978 2 c 0,85,86
 869 2 869 2 809.5 44 c 128,-1,87
 750 86 750 86 750 154 c 0,88,89
 750 179 750 179 758 205.5 c 128,-1,90
 766 232 766 232 782.5 253.5 c 128,-1,91
 799 275 799 275 823.5 288.5 c 128,-1,92
 848 302 848 302 880 302 c 0,93,94
 916 302 916 302 936 283 c 128,-1,95
 956 264 956 264 956 228 c 0,96,97
 956 195 956 195 940.5 174.5 c 128,-1,98
 925 154 925 154 907 140 c 128,-1,99
 889 126 889 126 873.5 114.5 c 128,-1,100
 858 103 858 103 858 88 c 0,101,102
 858 67 858 67 882 56.5 c 128,-1,103
 906 46 906 46 948 46 c 0,104,105
 1028 46 1028 46 1097 70 c 128,-1,106
 1166 94 1166 94 1229 137 c 128,-1,107
 1292 180 1292 180 1352.5 240 c 128,-1,108
 1413 300 1413 300 1476 372 c 0,109,110
 1573 482 1573 482 1685.5 608 c 128,-1,111
 1798 734 1798 734 1916 868 c 0,0,1
EndSplineSet
EndChar

StartChar: U
Encoding: 85 85 56
Width: 2230
Flags: W
LayerCount: 2
Fore
SplineSet
2580 1276 m 0,0,1
 2621 1321 2621 1321 2654 1353.5 c 128,-1,2
 2687 1386 2687 1386 2704 1386 c 0,3,4
 2714 1386 2714 1386 2730.5 1383.5 c 128,-1,5
 2747 1381 2747 1381 2762.5 1376.5 c 128,-1,6
 2778 1372 2778 1372 2789 1365 c 128,-1,7
 2800 1358 2800 1358 2800 1348 c 0,8,9
 2800 1344 2800 1344 2790 1331 c 128,-1,10
 2780 1318 2780 1318 2764 1300 c 128,-1,11
 2748 1282 2748 1282 2729 1261 c 128,-1,12
 2710 1240 2710 1240 2692 1220.5 c 128,-1,13
 2674 1201 2674 1201 2658.5 1184.5 c 128,-1,14
 2643 1168 2643 1168 2636 1160 c 0,15,16
 2481 982 2481 982 2324.5 809 c 128,-1,17
 2168 636 2168 636 2010 458 c 0,18,19
 1955 396 1955 396 1907.5 342 c 128,-1,20
 1860 288 1860 288 1824.5 243 c 128,-1,21
 1789 198 1789 198 1768.5 164 c 128,-1,22
 1748 130 1748 130 1748 110 c 0,23,24
 1748 99 1748 99 1749 87.5 c 128,-1,25
 1750 76 1750 76 1755 67 c 128,-1,26
 1760 58 1760 58 1770.5 52 c 128,-1,27
 1781 46 1781 46 1800 46 c 0,28,29
 1848 46 1848 46 1902.5 57.5 c 128,-1,30
 1957 69 1957 69 2014 88.5 c 128,-1,31
 2071 108 2071 108 2127.5 132 c 128,-1,32
 2184 156 2184 156 2236 182 c 1,33,-1
 2246 158 l 1,34,35
 2176 122 2176 122 2106.5 92.5 c 128,-1,36
 2037 63 2037 63 1973.5 42 c 128,-1,37
 1910 21 1910 21 1855.5 9.5 c 128,-1,38
 1801 -2 1801 -2 1762 -2 c 0,39,40
 1738 -2 1738 -2 1712 0 c 128,-1,41
 1686 2 1686 2 1664 12.5 c 128,-1,42
 1642 23 1642 23 1628 44.5 c 128,-1,43
 1614 66 1614 66 1614 106 c 0,44,45
 1614 118 1614 118 1615.5 130 c 128,-1,46
 1617 142 1617 142 1622 156 c 1,47,48
 1587 124 1587 124 1546 94 c 128,-1,49
 1505 64 1505 64 1460 40.5 c 128,-1,50
 1415 17 1415 17 1368.5 2.5 c 128,-1,51
 1322 -12 1322 -12 1276 -12 c 256,52,53
 1230 -12 1230 -12 1197.5 0.5 c 128,-1,54
 1165 13 1165 13 1144 32.5 c 128,-1,55
 1123 52 1123 52 1113.5 76.5 c 128,-1,56
 1104 101 1104 101 1104 124 c 0,57,58
 1104 173 1104 173 1125 221 c 128,-1,59
 1146 269 1146 269 1179.5 314.5 c 128,-1,60
 1213 360 1213 360 1255 403.5 c 128,-1,61
 1297 447 1297 447 1338 488 c 0,62,63
 1382 533 1382 533 1441 592.5 c 128,-1,64
 1500 652 1500 652 1562.5 714.5 c 128,-1,65
 1625 777 1625 777 1685 838 c 128,-1,66
 1745 899 1745 899 1793 947 c 128,-1,67
 1841 995 1841 995 1870 1025 c 128,-1,68
 1899 1055 1899 1055 1900 1056 c 0,69,70
 1923 1083 1923 1083 1946.5 1112.5 c 128,-1,71
 1970 1142 1970 1142 1989 1171 c 128,-1,72
 2008 1200 2008 1200 2020 1228 c 128,-1,73
 2032 1256 2032 1256 2032 1280 c 0,74,75
 2032 1308 2032 1308 2017.5 1332.5 c 128,-1,76
 2003 1357 2003 1357 1974 1375.5 c 128,-1,77
 1945 1394 1945 1394 1901 1405 c 128,-1,78
 1857 1416 1857 1416 1798 1416 c 0,79,80
 1765 1416 1765 1416 1722.5 1411 c 128,-1,81
 1680 1406 1680 1406 1636 1396 c 128,-1,82
 1592 1386 1592 1386 1549.5 1369.5 c 128,-1,83
 1507 1353 1507 1353 1474 1330.5 c 128,-1,84
 1441 1308 1441 1308 1420.5 1278.5 c 128,-1,85
 1400 1249 1400 1249 1400 1212 c 0,86,87
 1400 1187 1400 1187 1415.5 1169.5 c 128,-1,88
 1431 1152 1431 1152 1456 1141 c 128,-1,89
 1481 1130 1481 1130 1513 1125 c 128,-1,90
 1545 1120 1545 1120 1578 1120 c 0,91,92
 1616 1120 1616 1120 1654.5 1126.5 c 128,-1,93
 1693 1133 1693 1133 1728.5 1145.5 c 128,-1,94
 1764 1158 1764 1158 1794.5 1176.5 c 128,-1,95
 1825 1195 1825 1195 1848 1218 c 1,96,-1
 1868 1206 l 1,97,98
 1839 1171 1839 1171 1799 1147 c 128,-1,99
 1759 1123 1759 1123 1712.5 1108 c 128,-1,100
 1666 1093 1666 1093 1616.5 1086.5 c 128,-1,101
 1567 1080 1567 1080 1520 1080 c 0,102,103
 1463 1080 1463 1080 1425 1096.5 c 128,-1,104
 1387 1113 1387 1113 1364.5 1136 c 128,-1,105
 1342 1159 1342 1159 1333 1184.5 c 128,-1,106
 1324 1210 1324 1210 1324 1228 c 1,107,108
 1329 1294 1329 1294 1377 1347 c 0,109,110
 1397 1369 1397 1369 1428.5 1390.5 c 128,-1,111
 1460 1412 1460 1412 1506 1428.5 c 128,-1,112
 1552 1445 1552 1445 1614 1455.5 c 128,-1,113
 1676 1466 1676 1466 1758 1466 c 0,114,115
 1846 1466 1846 1466 1909.5 1454 c 128,-1,116
 1973 1442 1973 1442 2016 1423 c 128,-1,117
 2059 1404 2059 1404 2084.5 1379.5 c 128,-1,118
 2110 1355 2110 1355 2124 1331 c 128,-1,119
 2138 1307 2138 1307 2142 1285 c 128,-1,120
 2146 1263 2146 1263 2146 1248 c 0,121,122
 2146 1198 2146 1198 2121 1150 c 128,-1,123
 2096 1102 2096 1102 2060 1057.5 c 128,-1,124
 2024 1013 2024 1013 1984.5 973.5 c 128,-1,125
 1945 934 1945 934 1916 900 c 0,126,127
 1878 857 1878 857 1828.5 807 c 128,-1,128
 1779 757 1779 757 1724.5 704.5 c 128,-1,129
 1670 652 1670 652 1613 597.5 c 128,-1,130
 1556 543 1556 543 1503 490.5 c 128,-1,131
 1450 438 1450 438 1403.5 388.5 c 128,-1,132
 1357 339 1357 339 1324 296 c 0,133,134
 1316 287 1316 287 1298.5 264 c 128,-1,135
 1281 241 1281 241 1263 212.5 c 128,-1,136
 1245 184 1245 184 1231.5 154 c 128,-1,137
 1218 124 1218 124 1218 100 c 0,138,139
 1218 79 1218 79 1240 63.5 c 128,-1,140
 1262 48 1262 48 1298 48 c 0,141,142
 1356 48 1356 48 1416.5 78 c 128,-1,143
 1477 108 1477 108 1537 154.5 c 128,-1,144
 1597 201 1597 201 1653 258.5 c 128,-1,145
 1709 316 1709 316 1758 372 c 0,146,147
 1791 411 1791 411 1823 446 c 128,-1,148
 1855 481 1855 481 1884 510 c 0,149,150
 1885 511 1885 511 1888 514 c 128,-1,151
 1891 517 1891 517 1900 527 c 128,-1,152
 1909 537 1909 537 1927.5 557.5 c 128,-1,153
 1946 578 1946 578 1979 614 c 128,-1,154
 2012 650 2012 650 2062 705 c 128,-1,155
 2112 760 2112 760 2184.5 840 c 128,-1,156
 2257 920 2257 920 2354.5 1027.5 c 128,-1,157
 2452 1135 2452 1135 2580 1276 c 0,0,1
EndSplineSet
EndChar

StartChar: V
Encoding: 86 86 57
Width: 2106
Flags: W
LayerCount: 2
Fore
SplineSet
1964 1206 m 1,0,1
 1935 1171 1935 1171 1895 1147 c 128,-1,2
 1855 1123 1855 1123 1808.5 1108 c 128,-1,3
 1762 1093 1762 1093 1712.5 1086.5 c 128,-1,4
 1663 1080 1663 1080 1616 1080 c 0,5,6
 1559 1080 1559 1080 1521 1096.5 c 128,-1,7
 1483 1113 1483 1113 1460.5 1136 c 128,-1,8
 1438 1159 1438 1159 1429 1184.5 c 128,-1,9
 1420 1210 1420 1210 1420 1228 c 1,10,11
 1425 1294 1425 1294 1473 1347 c 0,12,13
 1493 1369 1493 1369 1524.5 1390.5 c 128,-1,14
 1556 1412 1556 1412 1602 1428.5 c 128,-1,15
 1648 1445 1648 1445 1710 1455.5 c 128,-1,16
 1772 1466 1772 1466 1854 1466 c 0,17,18
 1943 1466 1943 1466 2006 1454 c 128,-1,19
 2069 1442 2069 1442 2112 1423 c 128,-1,20
 2155 1404 2155 1404 2180.5 1379.5 c 128,-1,21
 2206 1355 2206 1355 2220 1331 c 128,-1,22
 2234 1307 2234 1307 2238 1285 c 128,-1,23
 2242 1263 2242 1263 2242 1248 c 0,24,25
 2242 1198 2242 1198 2217 1150 c 128,-1,26
 2192 1102 2192 1102 2156 1057.5 c 128,-1,27
 2120 1013 2120 1013 2080.5 973.5 c 128,-1,28
 2041 934 2041 934 2012 900 c 0,29,30
 1974 857 1974 857 1924.5 807 c 128,-1,31
 1875 757 1875 757 1820.5 704.5 c 128,-1,32
 1766 652 1766 652 1709 597.5 c 128,-1,33
 1652 543 1652 543 1599 490.5 c 128,-1,34
 1546 438 1546 438 1499.5 388.5 c 128,-1,35
 1453 339 1453 339 1420 296 c 0,36,37
 1412 287 1412 287 1394.5 264 c 128,-1,38
 1377 241 1377 241 1359 212.5 c 128,-1,39
 1341 184 1341 184 1327.5 154 c 128,-1,40
 1314 124 1314 124 1314 100 c 0,41,42
 1314 79 1314 79 1336 63.5 c 128,-1,43
 1358 48 1358 48 1394 48 c 0,44,45
 1432 48 1432 48 1473 60.5 c 128,-1,46
 1514 73 1514 73 1558 96 c 1,47,48
 1606 123 1606 123 1658 160.5 c 128,-1,49
 1710 198 1710 198 1766 248 c 0,50,51
 1826 302 1826 302 1893 370 c 128,-1,52
 1960 438 1960 438 2027.5 513.5 c 128,-1,53
 2095 589 2095 589 2161 671 c 128,-1,54
 2227 753 2227 753 2286 836.5 c 128,-1,55
 2345 920 2345 920 2394 1002.5 c 128,-1,56
 2443 1085 2443 1085 2478 1162 c 1,57,58
 2459 1165 2459 1165 2447.5 1172.5 c 128,-1,59
 2436 1180 2436 1180 2430 1190.5 c 128,-1,60
 2424 1201 2424 1201 2422 1213 c 128,-1,61
 2420 1225 2420 1225 2420 1236 c 0,62,63
 2420 1260 2420 1260 2429.5 1284 c 128,-1,64
 2439 1308 2439 1308 2456.5 1327 c 128,-1,65
 2474 1346 2474 1346 2498.5 1358 c 128,-1,66
 2523 1370 2523 1370 2552 1370 c 256,67,68
 2581 1370 2581 1370 2591.5 1352.5 c 128,-1,69
 2602 1335 2602 1335 2602 1314 c 0,70,71
 2602 1300 2602 1300 2598.5 1287.5 c 128,-1,72
 2595 1275 2595 1275 2590 1266 c 1,73,74
 2578 1236 2578 1236 2562 1204 c 1,75,76
 2608 1207 2608 1207 2645 1216.5 c 128,-1,77
 2682 1226 2682 1226 2713.5 1242 c 128,-1,78
 2745 1258 2745 1258 2772.5 1281 c 128,-1,79
 2800 1304 2800 1304 2826 1334 c 1,80,-1
 2842 1318 l 1,81,82
 2817 1279 2817 1279 2776 1246 c 0,83,84
 2741 1218 2741 1218 2683 1192 c 128,-1,85
 2625 1166 2625 1166 2540 1158 c 1,86,87
 2474 1027 2474 1027 2390 897.5 c 128,-1,88
 2306 768 2306 768 2208 645 c 128,-1,89
 2110 522 2110 522 2000.5 408 c 128,-1,90
 1891 294 1891 294 1774 194 c 0,91,92
 1717 146 1717 146 1660.5 105.5 c 128,-1,93
 1604 65 1604 65 1550 38 c 0,94,95
 1511 18 1511 18 1469 3 c 128,-1,96
 1427 -12 1427 -12 1380 -12 c 2,97,-1
 1372 -12 l 2,98,99
 1326 -12 1326 -12 1293.5 0.5 c 128,-1,100
 1261 13 1261 13 1240 32.5 c 128,-1,101
 1219 52 1219 52 1209.5 76.5 c 128,-1,102
 1200 101 1200 101 1200 124 c 0,103,104
 1200 173 1200 173 1221 221 c 128,-1,105
 1242 269 1242 269 1275.5 314.5 c 128,-1,106
 1309 360 1309 360 1351 403.5 c 128,-1,107
 1393 447 1393 447 1434 488 c 0,108,109
 1478 533 1478 533 1537 592.5 c 128,-1,110
 1596 652 1596 652 1658.5 714.5 c 128,-1,111
 1721 777 1721 777 1781 838 c 128,-1,112
 1841 899 1841 899 1889 947 c 128,-1,113
 1937 995 1937 995 1966 1025 c 128,-1,114
 1995 1055 1995 1055 1996 1056 c 0,115,116
 2019 1083 2019 1083 2042.5 1112.5 c 128,-1,117
 2066 1142 2066 1142 2085 1171 c 128,-1,118
 2104 1200 2104 1200 2116 1228 c 128,-1,119
 2128 1256 2128 1256 2128 1280 c 0,120,121
 2128 1308 2128 1308 2113.5 1332.5 c 128,-1,122
 2099 1357 2099 1357 2070 1375.5 c 128,-1,123
 2041 1394 2041 1394 1997 1405 c 128,-1,124
 1953 1416 1953 1416 1894 1416 c 0,125,126
 1861 1416 1861 1416 1818.5 1411 c 128,-1,127
 1776 1406 1776 1406 1732 1396 c 128,-1,128
 1688 1386 1688 1386 1645.5 1369.5 c 128,-1,129
 1603 1353 1603 1353 1570 1330.5 c 128,-1,130
 1537 1308 1537 1308 1516.5 1278.5 c 128,-1,131
 1496 1249 1496 1249 1496 1212 c 0,132,133
 1496 1187 1496 1187 1511.5 1169.5 c 128,-1,134
 1527 1152 1527 1152 1552 1141 c 128,-1,135
 1577 1130 1577 1130 1609 1125 c 128,-1,136
 1641 1120 1641 1120 1674 1120 c 0,137,138
 1712 1120 1712 1120 1750.5 1126.5 c 128,-1,139
 1789 1133 1789 1133 1824.5 1145.5 c 128,-1,140
 1860 1158 1860 1158 1890.5 1176.5 c 128,-1,141
 1921 1195 1921 1195 1944 1218 c 1,142,-1
 1964 1206 l 1,0,1
EndSplineSet
EndChar

StartChar: W
Encoding: 87 87 58
Width: 2728
Flags: W
LayerCount: 2
Fore
SplineSet
2016 1206 m 1,0,1
 1987 1171 1987 1171 1947 1147 c 128,-1,2
 1907 1123 1907 1123 1860.5 1108 c 128,-1,3
 1814 1093 1814 1093 1764.5 1086.5 c 128,-1,4
 1715 1080 1715 1080 1668 1080 c 0,5,6
 1611 1080 1611 1080 1573 1096.5 c 128,-1,7
 1535 1113 1535 1113 1512.5 1136 c 128,-1,8
 1490 1159 1490 1159 1481 1184.5 c 128,-1,9
 1472 1210 1472 1210 1472 1228 c 1,10,11
 1477 1294 1477 1294 1525 1347 c 0,12,13
 1545 1369 1545 1369 1576.5 1390.5 c 128,-1,14
 1608 1412 1608 1412 1654 1428.5 c 128,-1,15
 1700 1445 1700 1445 1762 1455.5 c 128,-1,16
 1824 1466 1824 1466 1906 1466 c 0,17,18
 1994 1466 1994 1466 2057.5 1454 c 128,-1,19
 2121 1442 2121 1442 2164 1423 c 128,-1,20
 2207 1404 2207 1404 2232.5 1379.5 c 128,-1,21
 2258 1355 2258 1355 2272 1331 c 128,-1,22
 2286 1307 2286 1307 2290 1285 c 128,-1,23
 2294 1263 2294 1263 2294 1248 c 0,24,25
 2294 1198 2294 1198 2269 1150 c 128,-1,26
 2244 1102 2244 1102 2208 1057.5 c 128,-1,27
 2172 1013 2172 1013 2132.5 973.5 c 128,-1,28
 2093 934 2093 934 2064 900 c 0,29,30
 2026 857 2026 857 1976.5 807 c 128,-1,31
 1927 757 1927 757 1872.5 704.5 c 128,-1,32
 1818 652 1818 652 1761 597.5 c 128,-1,33
 1704 543 1704 543 1651 490.5 c 128,-1,34
 1598 438 1598 438 1551.5 388.5 c 128,-1,35
 1505 339 1505 339 1472 296 c 0,36,37
 1464 287 1464 287 1446.5 264 c 128,-1,38
 1429 241 1429 241 1411 212.5 c 128,-1,39
 1393 184 1393 184 1379.5 154 c 128,-1,40
 1366 124 1366 124 1366 100 c 0,41,42
 1366 79 1366 79 1388 63.5 c 128,-1,43
 1410 48 1410 48 1446 48 c 0,44,45
 1507 48 1507 48 1564 82 c 128,-1,46
 1621 116 1621 116 1675.5 168.5 c 128,-1,47
 1730 221 1730 221 1782 283.5 c 128,-1,48
 1834 346 1834 346 1884 402 c 0,49,50
 1910 432 1910 432 1934.5 458.5 c 128,-1,51
 1959 485 1959 485 1982 508 c 0,52,53
 1983 509 1983 509 1986 512 c 128,-1,54
 1989 515 1989 515 1998 525 c 128,-1,55
 2007 535 2007 535 2025.5 555.5 c 128,-1,56
 2044 576 2044 576 2077 612 c 128,-1,57
 2110 648 2110 648 2160 703 c 128,-1,58
 2210 758 2210 758 2282.5 838 c 128,-1,59
 2355 918 2355 918 2452.5 1025.5 c 128,-1,60
 2550 1133 2550 1133 2678 1274 c 0,61,62
 2719 1319 2719 1319 2752 1351.5 c 128,-1,63
 2785 1384 2785 1384 2802 1384 c 0,64,65
 2812 1384 2812 1384 2828.5 1381.5 c 128,-1,66
 2845 1379 2845 1379 2860.5 1374.5 c 128,-1,67
 2876 1370 2876 1370 2887 1363 c 128,-1,68
 2898 1356 2898 1356 2898 1346 c 0,69,70
 2898 1342 2898 1342 2888 1329 c 128,-1,71
 2878 1316 2878 1316 2862 1298 c 128,-1,72
 2846 1280 2846 1280 2827 1259 c 128,-1,73
 2808 1238 2808 1238 2790 1218.5 c 128,-1,74
 2772 1199 2772 1199 2756.5 1182.5 c 128,-1,75
 2741 1166 2741 1166 2734 1158 c 0,76,77
 2579 980 2579 980 2422.5 807 c 128,-1,78
 2266 634 2266 634 2108 456 c 0,79,80
 2053 394 2053 394 2005.5 340 c 128,-1,81
 1958 286 1958 286 1922.5 241 c 128,-1,82
 1887 196 1887 196 1866.5 162 c 128,-1,83
 1846 128 1846 128 1846 108 c 0,84,85
 1846 97 1846 97 1847 85.5 c 128,-1,86
 1848 74 1848 74 1853 65 c 128,-1,87
 1858 56 1858 56 1868.5 50 c 128,-1,88
 1879 44 1879 44 1898 44 c 0,89,90
 1954 44 1954 44 2010.5 61 c 128,-1,91
 2067 78 2067 78 2122.5 107 c 128,-1,92
 2178 136 2178 136 2231 175 c 128,-1,93
 2284 214 2284 214 2334 258 c 0,94,95
 2394 312 2394 312 2461 380 c 128,-1,96
 2528 448 2528 448 2595.5 523.5 c 128,-1,97
 2663 599 2663 599 2729 681 c 128,-1,98
 2795 763 2795 763 2854 846.5 c 128,-1,99
 2913 930 2913 930 2962 1012.5 c 128,-1,100
 3011 1095 3011 1095 3046 1172 c 1,101,102
 3027 1175 3027 1175 3015.5 1182.5 c 128,-1,103
 3004 1190 3004 1190 2998 1200.5 c 128,-1,104
 2992 1211 2992 1211 2990 1223 c 128,-1,105
 2988 1235 2988 1235 2988 1246 c 0,106,107
 2988 1270 2988 1270 2997.5 1294 c 128,-1,108
 3007 1318 3007 1318 3024.5 1337 c 128,-1,109
 3042 1356 3042 1356 3066.5 1368 c 128,-1,110
 3091 1380 3091 1380 3120 1380 c 256,111,112
 3149 1380 3149 1380 3159.5 1362.5 c 128,-1,113
 3170 1345 3170 1345 3170 1324 c 0,114,115
 3170 1310 3170 1310 3166.5 1297.5 c 128,-1,116
 3163 1285 3163 1285 3158 1276 c 1,117,118
 3146 1246 3146 1246 3130 1214 c 1,119,120
 3176 1217 3176 1217 3213 1226.5 c 128,-1,121
 3250 1236 3250 1236 3281.5 1252 c 128,-1,122
 3313 1268 3313 1268 3340.5 1291 c 128,-1,123
 3368 1314 3368 1314 3394 1344 c 1,124,-1
 3410 1328 l 1,125,126
 3385 1289 3385 1289 3344 1256 c 0,127,128
 3309 1228 3309 1228 3251 1202 c 128,-1,129
 3193 1176 3193 1176 3108 1168 c 1,130,131
 3042 1037 3042 1037 2958 907.5 c 128,-1,132
 2874 778 2874 778 2776 655 c 128,-1,133
 2678 532 2678 532 2568.5 418 c 128,-1,134
 2459 304 2459 304 2342 204 c 0,135,136
 2290 160 2290 160 2235 121.5 c 128,-1,137
 2180 83 2180 83 2121.5 53.5 c 128,-1,138
 2063 24 2063 24 2001.5 7 c 128,-1,139
 1940 -10 1940 -10 1876 -10 c 0,140,141
 1852 -10 1852 -10 1823.5 -7 c 128,-1,142
 1795 -4 1795 -4 1770 7.5 c 128,-1,143
 1745 19 1745 19 1728.5 41.5 c 128,-1,144
 1712 64 1712 64 1712 104 c 0,145,146
 1712 110 1712 110 1713 118 c 128,-1,147
 1714 126 1714 126 1716 134 c 1,148,149
 1683 103 1683 103 1647.5 76.5 c 128,-1,150
 1612 50 1612 50 1575 30.5 c 128,-1,151
 1538 11 1538 11 1500 -0.5 c 128,-1,152
 1462 -12 1462 -12 1424 -12 c 0,153,154
 1378 -12 1378 -12 1345.5 0.5 c 128,-1,155
 1313 13 1313 13 1292 32.5 c 128,-1,156
 1271 52 1271 52 1261.5 76.5 c 128,-1,157
 1252 101 1252 101 1252 124 c 0,158,159
 1252 173 1252 173 1273 221 c 128,-1,160
 1294 269 1294 269 1327.5 314.5 c 128,-1,161
 1361 360 1361 360 1403 403.5 c 128,-1,162
 1445 447 1445 447 1486 488 c 0,163,164
 1530 533 1530 533 1589 592.5 c 128,-1,165
 1648 652 1648 652 1710.5 714.5 c 128,-1,166
 1773 777 1773 777 1833 838 c 128,-1,167
 1893 899 1893 899 1941 947 c 128,-1,168
 1989 995 1989 995 2018 1025 c 128,-1,169
 2047 1055 2047 1055 2048 1056 c 0,170,171
 2071 1083 2071 1083 2094.5 1112.5 c 128,-1,172
 2118 1142 2118 1142 2137 1171 c 128,-1,173
 2156 1200 2156 1200 2168 1228 c 128,-1,174
 2180 1256 2180 1256 2180 1280 c 0,175,176
 2180 1308 2180 1308 2165.5 1332.5 c 128,-1,177
 2151 1357 2151 1357 2122 1375.5 c 128,-1,178
 2093 1394 2093 1394 2049 1405 c 128,-1,179
 2005 1416 2005 1416 1946 1416 c 0,180,181
 1913 1416 1913 1416 1870.5 1411 c 128,-1,182
 1828 1406 1828 1406 1784 1396 c 128,-1,183
 1740 1386 1740 1386 1697.5 1369.5 c 128,-1,184
 1655 1353 1655 1353 1622 1330.5 c 128,-1,185
 1589 1308 1589 1308 1568.5 1278.5 c 128,-1,186
 1548 1249 1548 1249 1548 1212 c 0,187,188
 1548 1187 1548 1187 1563.5 1169.5 c 128,-1,189
 1579 1152 1579 1152 1604 1141 c 128,-1,190
 1629 1130 1629 1130 1661 1125 c 128,-1,191
 1693 1120 1693 1120 1726 1120 c 0,192,193
 1764 1120 1764 1120 1802.5 1126.5 c 128,-1,194
 1841 1133 1841 1133 1876.5 1145.5 c 128,-1,195
 1912 1158 1912 1158 1942.5 1176.5 c 128,-1,196
 1973 1195 1973 1195 1996 1218 c 1,197,-1
 2016 1206 l 1,0,1
EndSplineSet
EndChar

StartChar: X
Encoding: 88 88 59
Width: 2604
Flags: W
LayerCount: 2
Fore
SplineSet
1920 1462 m 0,0,1
 1995 1462 1995 1462 2042.5 1418.5 c 128,-1,2
 2090 1375 2090 1375 2110 1280 c 1,3,4
 2116 1245 2116 1245 2119 1208.5 c 128,-1,5
 2122 1172 2122 1172 2122 1136 c 0,6,7
 2122 1070 2122 1070 2110 998 c 1,8,9
 2130 1018 2130 1018 2148 1038.5 c 128,-1,10
 2166 1059 2166 1059 2186 1080 c 0,11,12
 2255 1152 2255 1152 2327 1215.5 c 128,-1,13
 2399 1279 2399 1279 2470 1331 c 128,-1,14
 2541 1383 2541 1383 2608.5 1421.5 c 128,-1,15
 2676 1460 2676 1460 2736 1482 c 1,16,17
 2770 1459 2770 1459 2798 1427.5 c 128,-1,18
 2826 1396 2826 1396 2846 1357.5 c 128,-1,19
 2866 1319 2866 1319 2877 1275.5 c 128,-1,20
 2888 1232 2888 1232 2888 1186 c 0,21,22
 2888 1137 2888 1137 2874 1091.5 c 128,-1,23
 2860 1046 2860 1046 2830.5 1011 c 128,-1,24
 2801 976 2801 976 2756 955 c 128,-1,25
 2711 934 2711 934 2650 934 c 0,26,27
 2633 934 2633 934 2613 937 c 128,-1,28
 2593 940 2593 940 2576 948 c 128,-1,29
 2559 956 2559 956 2547.5 970.5 c 128,-1,30
 2536 985 2536 985 2536 1008 c 0,31,32
 2536 1027 2536 1027 2544.5 1044.5 c 128,-1,33
 2553 1062 2553 1062 2567.5 1075.5 c 128,-1,34
 2582 1089 2582 1089 2601 1097.5 c 128,-1,35
 2620 1106 2620 1106 2640 1106 c 0,36,37
 2666 1106 2666 1106 2677 1094 c 128,-1,38
 2688 1082 2688 1082 2688 1070 c 0,39,40
 2688 1050 2688 1050 2675.5 1039 c 128,-1,41
 2663 1028 2663 1028 2648 1020.5 c 128,-1,42
 2633 1013 2633 1013 2620.5 1007 c 128,-1,43
 2608 1001 2608 1001 2608 992 c 0,44,45
 2608 976 2608 976 2640 976 c 0,46,47
 2677 976 2677 976 2704.5 993 c 128,-1,48
 2732 1010 2732 1010 2750 1038.5 c 128,-1,49
 2768 1067 2768 1067 2777 1103.5 c 128,-1,50
 2786 1140 2786 1140 2786 1178 c 0,51,52
 2786 1235 2786 1235 2766.5 1287 c 128,-1,53
 2747 1339 2747 1339 2706 1366 c 1,54,55
 2667 1344 2667 1344 2611.5 1304 c 128,-1,56
 2556 1264 2556 1264 2491.5 1209 c 128,-1,57
 2427 1154 2427 1154 2357 1085.5 c 128,-1,58
 2287 1017 2287 1017 2220 938.5 c 128,-1,59
 2153 860 2153 860 2092.5 772.5 c 128,-1,60
 2032 685 2032 685 1986.5 592 c 128,-1,61
 1941 499 1941 499 1914.5 401.5 c 128,-1,62
 1888 304 1888 304 1888 206 c 0,63,64
 1888 168 1888 168 1902.5 142 c 128,-1,65
 1917 116 1917 116 1942.5 100 c 128,-1,66
 1968 84 1968 84 2002.5 77 c 128,-1,67
 2037 70 2037 70 2076 70 c 0,68,69
 2136 70 2136 70 2200.5 84 c 128,-1,70
 2265 98 2265 98 2323 117.5 c 128,-1,71
 2381 137 2381 137 2426 157.5 c 128,-1,72
 2471 178 2471 178 2492 192 c 1,73,74
 2495 184 2495 184 2497.5 178.5 c 128,-1,75
 2500 173 2500 173 2502 168 c 1,76,77
 2473 148 2473 148 2417 119 c 128,-1,78
 2361 90 2361 90 2289.5 63.5 c 128,-1,79
 2218 37 2218 37 2136.5 18.5 c 128,-1,80
 2055 0 2055 0 1974 0 c 0,81,82
 1865 0 1865 0 1810.5 53 c 128,-1,83
 1756 106 1756 106 1756 222 c 0,84,85
 1756 285 1756 285 1768 348 c 1,86,87
 1688 271 1688 271 1599 207 c 128,-1,88
 1510 143 1510 143 1419 97 c 128,-1,89
 1328 51 1328 51 1240 25.5 c 128,-1,90
 1152 0 1152 0 1076 0 c 0,91,92
 1043 0 1043 0 1014 6 c 128,-1,93
 985 12 985 12 964 24.5 c 128,-1,94
 943 37 943 37 930.5 57 c 128,-1,95
 918 77 918 77 918 106 c 0,96,97
 918 129 918 129 928.5 151 c 128,-1,98
 939 173 939 173 957 190 c 128,-1,99
 975 207 975 207 998 217.5 c 128,-1,100
 1021 228 1021 228 1046 228 c 0,101,102
 1078 228 1078 228 1092 213 c 128,-1,103
 1106 198 1106 198 1106 184 c 0,104,105
 1106 159 1106 159 1090.5 145 c 128,-1,106
 1075 131 1075 131 1056 121.5 c 128,-1,107
 1037 112 1037 112 1021.5 104.5 c 128,-1,108
 1006 97 1006 97 1006 86 c 0,109,110
 1006 74 1006 74 1023 61 c 128,-1,111
 1040 48 1040 48 1072 48 c 0,112,113
 1137 48 1137 48 1208 72 c 128,-1,114
 1279 96 1279 96 1350.5 138 c 128,-1,115
 1422 180 1422 180 1492.5 236 c 128,-1,116
 1563 292 1563 292 1627 356 c 128,-1,117
 1691 420 1691 420 1746.5 489 c 128,-1,118
 1802 558 1802 558 1844 626 c 0,119,120
 1885 692 1885 692 1917 763 c 128,-1,121
 1949 834 1949 834 1972 912 c 1,122,123
 1983 962 1983 962 1988.5 1013.5 c 128,-1,124
 1994 1065 1994 1065 1994 1116 c 0,125,126
 1994 1155 1994 1155 1990.5 1193.5 c 128,-1,127
 1987 1232 1987 1232 1978 1270 c 0,128,129
 1966 1326 1966 1326 1928.5 1349 c 128,-1,130
 1891 1372 1891 1372 1838 1372 c 0,131,132
 1778 1372 1778 1372 1716 1353.5 c 128,-1,133
 1654 1335 1654 1335 1594.5 1305 c 128,-1,134
 1535 1275 1535 1275 1481 1236 c 128,-1,135
 1427 1197 1427 1197 1384 1156 c 1,136,137
 1379 1164 1379 1164 1376 1168.5 c 128,-1,138
 1373 1173 1373 1173 1370 1178 c 1,139,140
 1416 1226 1416 1226 1481.5 1276.5 c 128,-1,141
 1547 1327 1547 1327 1620.5 1368 c 128,-1,142
 1694 1409 1694 1409 1771.5 1435.5 c 128,-1,143
 1849 1462 1849 1462 1920 1462 c 0,0,1
EndSplineSet
EndChar

StartChar: Y
Encoding: 89 89 60
Width: 2334
Flags: W
LayerCount: 2
Fore
SplineSet
1534 -38 m 1,0,1
 1554 -17 1554 -17 1574.5 8 c 128,-1,2
 1595 33 1595 33 1618 60 c 1,3,4
 1567 28 1567 28 1512.5 9 c 128,-1,5
 1458 -10 1458 -10 1404 -10 c 0,6,7
 1358 -10 1358 -10 1325.5 2.5 c 128,-1,8
 1293 15 1293 15 1272 34.5 c 128,-1,9
 1251 54 1251 54 1241.5 78.5 c 128,-1,10
 1232 103 1232 103 1232 126 c 0,11,12
 1232 175 1232 175 1253 223 c 128,-1,13
 1274 271 1274 271 1307.5 316.5 c 128,-1,14
 1341 362 1341 362 1383 405.5 c 128,-1,15
 1425 449 1425 449 1466 490 c 0,16,17
 1510 535 1510 535 1569 594.5 c 128,-1,18
 1628 654 1628 654 1690.5 716.5 c 128,-1,19
 1753 779 1753 779 1813 840 c 128,-1,20
 1873 901 1873 901 1921 949 c 128,-1,21
 1969 997 1969 997 1998 1027 c 128,-1,22
 2027 1057 2027 1057 2028 1058 c 0,23,24
 2051 1085 2051 1085 2074.5 1114.5 c 128,-1,25
 2098 1144 2098 1144 2117 1173 c 128,-1,26
 2136 1202 2136 1202 2148 1230 c 128,-1,27
 2160 1258 2160 1258 2160 1282 c 0,28,29
 2160 1310 2160 1310 2145.5 1334.5 c 128,-1,30
 2131 1359 2131 1359 2102 1377.5 c 128,-1,31
 2073 1396 2073 1396 2029 1407 c 128,-1,32
 1985 1418 1985 1418 1926 1418 c 0,33,34
 1893 1418 1893 1418 1850.5 1413 c 128,-1,35
 1808 1408 1808 1408 1764 1398 c 128,-1,36
 1720 1388 1720 1388 1677.5 1371.5 c 128,-1,37
 1635 1355 1635 1355 1602 1332.5 c 128,-1,38
 1569 1310 1569 1310 1548.5 1280.5 c 128,-1,39
 1528 1251 1528 1251 1528 1214 c 0,40,41
 1528 1189 1528 1189 1543.5 1171.5 c 128,-1,42
 1559 1154 1559 1154 1584 1143 c 128,-1,43
 1609 1132 1609 1132 1641 1127 c 128,-1,44
 1673 1122 1673 1122 1706 1122 c 0,45,46
 1744 1122 1744 1122 1782.5 1128.5 c 128,-1,47
 1821 1135 1821 1135 1856.5 1147.5 c 128,-1,48
 1892 1160 1892 1160 1922.5 1178.5 c 128,-1,49
 1953 1197 1953 1197 1976 1220 c 1,50,-1
 1996 1208 l 1,51,52
 1967 1173 1967 1173 1927 1149 c 128,-1,53
 1887 1125 1887 1125 1840.5 1110 c 128,-1,54
 1794 1095 1794 1095 1744.5 1088.5 c 128,-1,55
 1695 1082 1695 1082 1648 1082 c 0,56,57
 1591 1082 1591 1082 1553 1098.5 c 128,-1,58
 1515 1115 1515 1115 1492.5 1138 c 128,-1,59
 1470 1161 1470 1161 1461 1186.5 c 128,-1,60
 1452 1212 1452 1212 1452 1230 c 1,61,62
 1457 1296 1457 1296 1505 1349 c 0,63,64
 1525 1371 1525 1371 1556.5 1392.5 c 128,-1,65
 1588 1414 1588 1414 1634 1430.5 c 128,-1,66
 1680 1447 1680 1447 1742 1457.5 c 128,-1,67
 1804 1468 1804 1468 1886 1468 c 0,68,69
 1974 1468 1974 1468 2037.5 1456 c 128,-1,70
 2101 1444 2101 1444 2144 1425 c 128,-1,71
 2187 1406 2187 1406 2212.5 1381.5 c 128,-1,72
 2238 1357 2238 1357 2252 1333 c 128,-1,73
 2266 1309 2266 1309 2270 1287 c 128,-1,74
 2274 1265 2274 1265 2274 1250 c 0,75,76
 2274 1200 2274 1200 2249 1152 c 128,-1,77
 2224 1104 2224 1104 2188 1059.5 c 128,-1,78
 2152 1015 2152 1015 2112.5 975.5 c 128,-1,79
 2073 936 2073 936 2044 902 c 0,80,81
 2006 859 2006 859 1956.5 809 c 128,-1,82
 1907 759 1907 759 1852.5 706.5 c 128,-1,83
 1798 654 1798 654 1741 599.5 c 128,-1,84
 1684 545 1684 545 1631 492.5 c 128,-1,85
 1578 440 1578 440 1531.5 390.5 c 128,-1,86
 1485 341 1485 341 1452 298 c 0,87,88
 1444 289 1444 289 1426.5 266 c 128,-1,89
 1409 243 1409 243 1391 214.5 c 128,-1,90
 1373 186 1373 186 1359.5 156 c 128,-1,91
 1346 126 1346 126 1346 102 c 0,92,93
 1346 81 1346 81 1368 65.5 c 128,-1,94
 1390 50 1390 50 1426 50 c 0,95,96
 1483 50 1483 50 1543.5 79 c 128,-1,97
 1604 108 1604 108 1663 154 c 128,-1,98
 1722 200 1722 200 1778 256.5 c 128,-1,99
 1834 313 1834 313 1882 368 c 0,100,101
 2043 552 2043 552 2244 781.5 c 128,-1,102
 2445 1011 2445 1011 2686 1278 c 0,103,104
 2727 1323 2727 1323 2760 1355.5 c 128,-1,105
 2793 1388 2793 1388 2810 1388 c 0,106,107
 2820 1388 2820 1388 2836.5 1385.5 c 128,-1,108
 2853 1383 2853 1383 2868.5 1378.5 c 128,-1,109
 2884 1374 2884 1374 2895 1367 c 128,-1,110
 2906 1360 2906 1360 2906 1350 c 0,111,112
 2906 1346 2906 1346 2896 1333 c 128,-1,113
 2886 1320 2886 1320 2870 1302 c 128,-1,114
 2854 1284 2854 1284 2835 1263 c 128,-1,115
 2816 1242 2816 1242 2798 1222.5 c 128,-1,116
 2780 1203 2780 1203 2764.5 1186.5 c 128,-1,117
 2749 1170 2749 1170 2742 1162 c 0,118,119
 2699 1113 2699 1113 2633 1039.5 c 128,-1,120
 2567 966 2567 966 2485 875.5 c 128,-1,121
 2403 785 2403 785 2310 683 c 128,-1,122
 2217 581 2217 581 2121 475.5 c 128,-1,123
 2025 370 2025 370 1930.5 266.5 c 128,-1,124
 1836 163 1836 163 1752 70 c 1,125,126
 1865 124 1865 124 1988 166 c 128,-1,127
 2111 208 2111 208 2242 246 c 1,128,-1
 2252 222 l 1,129,130
 2204 209 2204 209 2139 187 c 128,-1,131
 2074 165 2074 165 1999.5 136 c 128,-1,132
 1925 107 1925 107 1845.5 72 c 128,-1,133
 1766 37 1766 37 1690 0 c 1,134,135
 1618 -77 1618 -77 1560 -141 c 128,-1,136
 1502 -205 1502 -205 1464 -250 c 256,137,138
 1426 -295 1426 -295 1387.5 -341 c 128,-1,139
 1349 -387 1349 -387 1313 -429.5 c 128,-1,140
 1277 -472 1277 -472 1245.5 -509 c 128,-1,141
 1214 -546 1214 -546 1190 -572 c 0,142,143
 1112 -657 1112 -657 1025 -704.5 c 128,-1,144
 938 -752 938 -752 850 -752 c 0,145,146
 830 -752 830 -752 811 -747.5 c 128,-1,147
 792 -743 792 -743 777 -732.5 c 128,-1,148
 762 -722 762 -722 753 -705.5 c 128,-1,149
 744 -689 744 -689 744 -666 c 0,150,151
 744 -638 744 -638 765 -598.5 c 128,-1,152
 786 -559 786 -559 827.5 -512.5 c 128,-1,153
 869 -466 869 -466 930.5 -414.5 c 128,-1,154
 992 -363 992 -363 1074 -310 c 1,155,156
 1163 -251 1163 -251 1259.5 -192 c 128,-1,157
 1356 -133 1356 -133 1462 -76 c 2,158,-1
 1534 -38 l 1,0,1
1066 -566 m 0,159,160
 1104 -528 1104 -528 1154.5 -473.5 c 128,-1,161
 1205 -419 1205 -419 1261.5 -356 c 128,-1,162
 1318 -293 1318 -293 1376.5 -224.5 c 128,-1,163
 1435 -156 1435 -156 1490 -88 c 1,164,165
 1398 -138 1398 -138 1299.5 -199 c 128,-1,166
 1201 -260 1201 -260 1111.5 -322.5 c 128,-1,167
 1022 -385 1022 -385 949.5 -444.5 c 128,-1,168
 877 -504 877 -504 838 -552 c 0,169,170
 821 -572 821 -572 808.5 -596.5 c 128,-1,171
 796 -621 796 -621 796 -644 c 0,172,173
 796 -664 796 -664 809.5 -677 c 128,-1,174
 823 -690 823 -690 858 -690 c 0,175,176
 886 -690 886 -690 915.5 -677.5 c 128,-1,177
 945 -665 945 -665 972 -646.5 c 128,-1,178
 999 -628 999 -628 1023 -606.5 c 128,-1,179
 1047 -585 1047 -585 1066 -566 c 0,159,160
EndSplineSet
EndChar

StartChar: Z
Encoding: 90 90 61
Width: 2042
Flags: W
LayerCount: 2
Fore
SplineSet
2526 1428 m 1,0,1
 2421 1359 2421 1359 2326 1279.5 c 128,-1,2
 2231 1200 2231 1200 2142 1113 c 128,-1,3
 2053 1026 2053 1026 1968.5 934 c 128,-1,4
 1884 842 1884 842 1800 748 c 0,5,6
 1729 668 1729 668 1657.5 584 c 128,-1,7
 1586 500 1586 500 1510 419 c 128,-1,8
 1434 338 1434 338 1350.5 261.5 c 128,-1,9
 1267 185 1267 185 1172 120 c 1,10,11
 1230 106 1230 106 1288.5 92.5 c 128,-1,12
 1347 79 1347 79 1402 68.5 c 128,-1,13
 1457 58 1457 58 1507 52 c 128,-1,14
 1557 46 1557 46 1598 46 c 0,15,16
 1614 46 1614 46 1644 49.5 c 128,-1,17
 1674 53 1674 53 1725 66.5 c 128,-1,18
 1776 80 1776 80 1851.5 107.5 c 128,-1,19
 1927 135 1927 135 2034 182 c 1,20,21
 2036 176 2036 176 2039 172 c 0,22,23
 2041 168 2041 168 2042.5 164 c 128,-1,24
 2044 160 2044 160 2044 158 c 1,25,26
 1991 134 1991 134 1933.5 106 c 128,-1,27
 1876 78 1876 78 1815 54 c 128,-1,28
 1754 30 1754 30 1690.5 14 c 128,-1,29
 1627 -2 1627 -2 1562 -2 c 0,30,31
 1515 -2 1515 -2 1460.5 6 c 128,-1,32
 1406 14 1406 14 1347.5 26 c 128,-1,33
 1289 38 1289 38 1228.5 53 c 128,-1,34
 1168 68 1168 68 1108 82 c 1,35,36
 1033 41 1033 41 953 19.5 c 128,-1,37
 873 -2 873 -2 784 -2 c 0,38,39
 744 -2 744 -2 709.5 6.5 c 128,-1,40
 675 15 675 15 649.5 28.5 c 128,-1,41
 624 42 624 42 609 60 c 128,-1,42
 594 78 594 78 594 98 c 0,43,44
 594 129 594 129 609 148.5 c 128,-1,45
 624 168 624 168 648 178.5 c 128,-1,46
 672 189 672 189 702.5 192.5 c 128,-1,47
 733 196 733 196 764 196 c 0,48,49
 817 196 817 196 892.5 182 c 128,-1,50
 968 168 968 168 1056 148 c 1,51,52
 1111 189 1111 189 1166 242.5 c 128,-1,53
 1221 296 1221 296 1275 355 c 128,-1,54
 1329 414 1329 414 1380.5 475 c 128,-1,55
 1432 536 1432 536 1482 592 c 0,56,57
 1512 626 1512 626 1549.5 668.5 c 128,-1,58
 1587 711 1587 711 1629 759.5 c 128,-1,59
 1671 808 1671 808 1717.5 860.5 c 128,-1,60
 1764 913 1764 913 1812 966 c 0,61,62
 1856 1016 1856 1016 1901 1064 c 128,-1,63
 1946 1112 1946 1112 2002 1166 c 1,64,65
 1994 1162 1994 1162 1979 1154 c 128,-1,66
 1964 1146 1964 1146 1943 1137.5 c 128,-1,67
 1922 1129 1922 1129 1897 1122.5 c 128,-1,68
 1872 1116 1872 1116 1846 1116 c 0,69,70
 1810 1116 1810 1116 1786 1133 c 128,-1,71
 1762 1150 1762 1150 1762 1194 c 2,72,-1
 1762 1292 l 2,73,74
 1762 1301 1762 1301 1755.5 1306.5 c 128,-1,75
 1749 1312 1749 1312 1740 1312 c 0,76,77
 1728 1312 1728 1312 1710.5 1301.5 c 128,-1,78
 1693 1291 1693 1291 1664 1262 c 1,79,-1
 1640 1282 l 1,80,81
 1679 1327 1679 1327 1713.5 1343.5 c 128,-1,82
 1748 1360 1748 1360 1796 1360 c 0,83,84
 1849 1360 1849 1360 1872.5 1342 c 128,-1,85
 1896 1324 1896 1324 1896 1292 c 0,86,87
 1896 1270 1896 1270 1900.5 1257 c 128,-1,88
 1905 1244 1905 1244 1912 1237 c 128,-1,89
 1919 1230 1919 1230 1928 1228 c 128,-1,90
 1937 1226 1937 1226 1946 1226 c 0,91,92
 1983 1226 1983 1226 2030 1237.5 c 128,-1,93
 2077 1249 2077 1249 2128 1267.5 c 128,-1,94
 2179 1286 2179 1286 2232 1310 c 128,-1,95
 2285 1334 2285 1334 2334.5 1358.5 c 128,-1,96
 2384 1383 2384 1383 2427 1406.5 c 128,-1,97
 2470 1430 2470 1430 2502 1448 c 1,98,-1
 2526 1428 l 1,0,1
774 136 m 0,99,100
 762 136 762 136 748 135 c 128,-1,101
 734 134 734 134 722 130.5 c 128,-1,102
 710 127 710 127 702 120 c 128,-1,103
 694 113 694 113 694 102 c 256,104,105
 694 91 694 91 705 81.5 c 128,-1,106
 716 72 716 72 733 64.5 c 128,-1,107
 750 57 750 57 771.5 52.5 c 128,-1,108
 793 48 793 48 814 48 c 0,109,110
 859 48 859 48 904 63.5 c 128,-1,111
 949 79 949 79 996 106 c 1,112,113
 936 120 936 120 879 128 c 128,-1,114
 822 136 822 136 774 136 c 0,99,100
EndSplineSet
EndChar

StartChar: bracketleft
Encoding: 91 91 62
Width: 1334
Flags: W
LayerCount: 2
Fore
SplineSet
1290 1400 m 1,0,-1
 1870 1366 l 1,1,-1
 1826 1300 l 1,2,-1
 1368 1300 l 1,3,-1
 316 100 l 1,4,-1
 826 100 l 1,5,-1
 782 34 l 1,6,-1
 172 0 l 1,7,-1
 1290 1400 l 1,0,-1
EndSplineSet
EndChar

StartChar: backslash
Encoding: 92 92 63
Width: 1666
Flags: W
LayerCount: 2
Fore
SplineSet
1466 2 m 1,0,-1
 1398 14 l 1,1,-1
 190 1392 l 1,2,-1
 348 1402 l 1,3,-1
 1466 2 l 1,0,-1
EndSplineSet
EndChar

StartChar: bracketright
Encoding: 93 93 64
Width: 1666
Flags: W
LayerCount: 2
Fore
SplineSet
1810 1396 m 1,0,-1
 602 18 l 1,1,-1
 -6 52 l 1,2,-1
 38 118 l 1,3,-1
 622 118 l 1,4,-1
 1564 1296 l 1,5,-1
 1186 1296 l 1,6,-1
 1230 1362 l 1,7,-1
 1810 1396 l 1,0,-1
EndSplineSet
EndChar

StartChar: asciicircum
Encoding: 94 94 65
Width: 1666
Flags: W
LayerCount: 2
Fore
SplineSet
600 1168 m 1,0,-1
 622 1228 l 1,1,-1
 738 1396 l 1,2,-1
 996 1256 l 1,3,-1
 1018 1196 l 1,4,-1
 752 1286 l 1,5,-1
 600 1168 l 1,0,-1
EndSplineSet
EndChar

StartChar: underscore
Encoding: 95 95 66
Width: 1666
Flags: W
LayerCount: 2
Fore
SplineSet
1066 4 m 1,0,-1
 90 4 l 1,1,-1
 178 104 l 1,2,-1
 1108 52 l 1,3,-1
 1066 4 l 1,0,-1
EndSplineSet
EndChar

StartChar: grave
Encoding: 96 96 67
Width: 538
Flags: W
LayerCount: 2
Fore
SplineSet
102 1268 m 1,0,-1
 142 1360 l 1,1,-1
 404 1218 l 1,2,-1
 426 1158 l 1,3,-1
 102 1268 l 1,0,-1
EndSplineSet
EndChar

StartChar: a
Encoding: 97 97 68
Width: 1016
Flags: W
LayerCount: 2
Fore
SplineSet
726 282 m 2,0,1
 678 228 678 228 645 179.5 c 128,-1,2
 612 131 612 131 612 96 c 0,3,4
 612 69 612 69 631.5 57.5 c 128,-1,5
 651 46 651 46 680 46 c 0,6,7
 707 46 707 46 743.5 52 c 128,-1,8
 780 58 780 58 829.5 73.5 c 128,-1,9
 879 89 879 89 944.5 115 c 128,-1,10
 1010 141 1010 141 1096 182 c 1,11,-1
 1106 158 l 1,12,13
 1016 115 1016 115 944 85 c 128,-1,14
 872 55 872 55 813.5 35.5 c 128,-1,15
 755 16 755 16 707.5 7 c 128,-1,16
 660 -2 660 -2 620 -2 c 0,17,18
 595 -2 595 -2 569 4.5 c 128,-1,19
 543 11 543 11 521.5 24.5 c 128,-1,20
 500 38 500 38 486 57 c 128,-1,21
 472 76 472 76 472 102 c 0,22,23
 472 114 472 114 475 127 c 128,-1,24
 478 140 478 140 486 154 c 1,25,26
 403 73 403 73 327 35.5 c 128,-1,27
 251 -2 251 -2 186 -2 c 0,28,29
 136 -2 136 -2 105.5 11.5 c 128,-1,30
 75 25 75 25 57.5 46.5 c 128,-1,31
 40 68 40 68 34 95 c 128,-1,32
 28 122 28 122 28 150 c 0,33,34
 28 197 28 197 50 248 c 128,-1,35
 72 299 72 299 109.5 349 c 128,-1,36
 147 399 147 399 196.5 444.5 c 128,-1,37
 246 490 246 490 301 524.5 c 128,-1,38
 356 559 356 559 412 579.5 c 128,-1,39
 468 600 468 600 520 600 c 0,40,41
 553 600 553 600 582 594 c 128,-1,42
 611 588 611 588 632 575.5 c 128,-1,43
 653 563 653 563 665.5 542.5 c 128,-1,44
 678 522 678 522 678 494 c 0,45,46
 678 462 678 462 660 420 c 1,47,-1
 626 404 l 1,48,49
 632 428 632 428 632 450 c 0,50,51
 632 466 632 466 628.5 481.5 c 128,-1,52
 625 497 625 497 617 509 c 128,-1,53
 609 521 609 521 595.5 528.5 c 128,-1,54
 582 536 582 536 562 536 c 0,55,56
 519 536 519 536 474 515.5 c 128,-1,57
 429 495 429 495 386.5 461.5 c 128,-1,58
 344 428 344 428 306.5 386.5 c 128,-1,59
 269 345 269 345 241 302 c 128,-1,60
 213 259 213 259 196.5 219 c 128,-1,61
 180 179 180 179 180 150 c 0,62,63
 180 109 180 109 199 96.5 c 128,-1,64
 218 84 218 84 260 84 c 0,65,66
 310 84 310 84 364 115 c 128,-1,67
 418 146 418 146 478 200 c 1,68,69
 505 226 505 226 530.5 250 c 128,-1,70
 556 274 556 274 586 310 c 0,71,72
 604 332 604 332 629.5 362 c 128,-1,73
 655 392 655 392 683.5 424.5 c 128,-1,74
 712 457 712 457 741.5 488 c 128,-1,75
 771 519 771 519 797.5 544 c 128,-1,76
 824 569 824 569 845 584.5 c 128,-1,77
 866 600 866 600 878 600 c 0,78,79
 886 600 886 600 900 597 c 128,-1,80
 914 594 914 594 927.5 588.5 c 128,-1,81
 941 583 941 583 950.5 574.5 c 128,-1,82
 960 566 960 566 960 556 c 0,83,84
 960 545 960 545 945.5 528 c 128,-1,85
 931 511 931 511 910 488 c 2,86,-1
 726 282 l 2,0,1
EndSplineSet
EndChar

StartChar: b
Encoding: 98 98 69
Width: 906
Flags: W
LayerCount: 2
Fore
SplineSet
736 490 m 0,0,1
 751 547 751 547 783 581.5 c 128,-1,2
 815 616 815 616 850 616 c 0,3,4
 873 616 873 616 886.5 602 c 128,-1,5
 900 588 900 588 900 564 c 0,6,7
 900 522 900 522 875 474.5 c 128,-1,8
 850 427 850 427 808 370 c 1,9,10
 809 347 809 347 821.5 328.5 c 128,-1,11
 834 310 834 310 852.5 297.5 c 128,-1,12
 871 285 871 285 894 278.5 c 128,-1,13
 917 272 917 272 940 272 c 0,14,15
 961 272 961 272 981.5 276 c 128,-1,16
 1002 280 1002 280 1022 288 c 1,17,-1
 1034 270 l 1,18,19
 1014 255 1014 255 988.5 247.5 c 128,-1,20
 963 240 963 240 934 240 c 0,21,22
 883 240 883 240 839 261.5 c 128,-1,23
 795 283 795 283 768 322 c 1,24,25
 706 251 706 251 630 192.5 c 128,-1,26
 554 134 554 134 474.5 91.5 c 128,-1,27
 395 49 395 49 317 25.5 c 128,-1,28
 239 2 239 2 174 2 c 0,29,30
 133 2 133 2 106.5 10 c 128,-1,31
 80 18 80 18 64.5 31.5 c 128,-1,32
 49 45 49 45 42.5 64 c 128,-1,33
 36 83 36 83 36 106 c 0,34,35
 36 153 36 153 65.5 221 c 128,-1,36
 95 289 95 289 144.5 369 c 128,-1,37
 194 449 194 449 259 537.5 c 128,-1,38
 324 626 324 626 395.5 714 c 128,-1,39
 467 802 467 802 540.5 886 c 128,-1,40
 614 970 614 970 680 1042 c 0,41,42
 700 1064 700 1064 733 1096 c 128,-1,43
 766 1128 766 1128 806 1163.5 c 128,-1,44
 846 1199 846 1199 890.5 1234 c 128,-1,45
 935 1269 935 1269 978.5 1297 c 128,-1,46
 1022 1325 1022 1325 1061.5 1342.5 c 128,-1,47
 1101 1360 1101 1360 1132 1360 c 0,48,49
 1173 1360 1173 1360 1189.5 1340 c 128,-1,50
 1206 1320 1206 1320 1206 1288 c 0,51,52
 1206 1263 1206 1263 1190 1230 c 128,-1,53
 1174 1197 1174 1197 1149 1160 c 128,-1,54
 1124 1123 1124 1123 1093.5 1085 c 128,-1,55
 1063 1047 1063 1047 1034 1014 c 128,-1,56
 1005 981 1005 981 980.5 955 c 128,-1,57
 956 929 956 929 944 916 c 0,58,59
 884 853 884 853 836 803 c 128,-1,60
 788 753 788 753 741 706.5 c 128,-1,61
 694 660 694 660 643 611.5 c 128,-1,62
 592 563 592 563 526 503.5 c 128,-1,63
 460 444 460 444 373.5 368 c 128,-1,64
 287 292 287 292 170 190 c 1,65,66
 159 163 159 163 153.5 140.5 c 128,-1,67
 148 118 148 118 148 100 c 0,68,69
 148 73 148 73 170.5 60.5 c 128,-1,70
 193 48 193 48 222 48 c 0,71,72
 282 48 282 48 351.5 75 c 128,-1,73
 421 102 421 102 491 146.5 c 128,-1,74
 561 191 561 191 626.5 247 c 128,-1,75
 692 303 692 303 744 362 c 1,76,77
 730 396 730 396 730 440 c 0,78,79
 730 466 730 466 736 490 c 0,0,1
850 1046 m 0,80,81
 797 992 797 992 738 930.5 c 128,-1,82
 679 869 679 869 619.5 802.5 c 128,-1,83
 560 736 560 736 501.5 667 c 128,-1,84
 443 598 443 598 390.5 530.5 c 128,-1,85
 338 463 338 463 293 399.5 c 128,-1,86
 248 336 248 336 216 280 c 1,87,88
 271 327 271 327 339 387.5 c 128,-1,89
 407 448 407 448 481.5 515.5 c 128,-1,90
 556 583 556 583 632.5 655 c 128,-1,91
 709 727 709 727 780.5 798.5 c 128,-1,92
 852 870 852 870 915 937.5 c 128,-1,93
 978 1005 978 1005 1025 1063 c 128,-1,94
 1072 1121 1072 1121 1099 1167 c 128,-1,95
 1126 1213 1126 1213 1126 1242 c 0,96,97
 1126 1256 1126 1256 1112 1256 c 0,98,99
 1092 1256 1092 1256 1062 1236.5 c 128,-1,100
 1032 1217 1032 1217 996.5 1186.5 c 128,-1,101
 961 1156 961 1156 923 1118.5 c 128,-1,102
 885 1081 885 1081 850 1046 c 0,80,81
EndSplineSet
EndChar

StartChar: c
Encoding: 99 99 70
Width: 656
Flags: W
LayerCount: 2
Fore
SplineSet
102 156 m 0,0,1
 102 128 102 128 113 108.5 c 128,-1,2
 124 89 124 89 144 77 c 128,-1,3
 164 65 164 65 192 59.5 c 128,-1,4
 220 54 220 54 254 54 c 0,5,6
 339 54 339 54 441.5 87.5 c 128,-1,7
 544 121 544 121 682 190 c 1,8,-1
 692 166 l 1,9,10
 642 134 642 134 577 103.5 c 128,-1,11
 512 73 512 73 441.5 49.5 c 128,-1,12
 371 26 371 26 299 12 c 128,-1,13
 227 -2 227 -2 164 -2 c 0,14,15
 118 -2 118 -2 79 6.5 c 128,-1,16
 40 15 40 15 11.5 34 c 128,-1,17
 -17 53 -17 53 -33.5 83 c 128,-1,18
 -50 113 -50 113 -50 156 c 0,19,20
 -50 202 -50 202 -28 253.5 c 128,-1,21
 -6 305 -6 305 31.5 355 c 128,-1,22
 69 405 69 405 118.5 450.5 c 128,-1,23
 168 496 168 496 223 530.5 c 128,-1,24
 278 565 278 565 334 585.5 c 128,-1,25
 390 606 390 606 442 606 c 0,26,27
 475 606 475 606 504 600 c 128,-1,28
 533 594 533 594 554 581.5 c 128,-1,29
 575 569 575 569 587.5 548.5 c 128,-1,30
 600 528 600 528 600 500 c 0,31,32
 600 477 600 477 589.5 455 c 128,-1,33
 579 433 579 433 561 416 c 128,-1,34
 543 399 543 399 520 388.5 c 128,-1,35
 497 378 497 378 472 378 c 0,36,37
 440 378 440 378 426 393 c 128,-1,38
 412 408 412 408 412 422 c 0,39,40
 412 447 412 447 427.5 461 c 128,-1,41
 443 475 443 475 462 484.5 c 128,-1,42
 481 494 481 494 496.5 501.5 c 128,-1,43
 512 509 512 509 512 520 c 0,44,45
 512 532 512 532 504 537 c 128,-1,46
 496 542 496 542 484 542 c 0,47,48
 441 542 441 542 396 521.5 c 128,-1,49
 351 501 351 501 308.5 467.5 c 128,-1,50
 266 434 266 434 228.5 392.5 c 128,-1,51
 191 351 191 351 163 308 c 128,-1,52
 135 265 135 265 118.5 225 c 128,-1,53
 102 185 102 185 102 156 c 0,0,1
EndSplineSet
EndChar

StartChar: d
Encoding: 100 100 71
Width: 972
Flags: W
LayerCount: 2
Fore
SplineSet
1052 682 m 2,0,1
 989 611 989 611 930.5 544.5 c 128,-1,2
 872 478 872 478 824 423.5 c 128,-1,3
 776 369 776 369 741 330.5 c 128,-1,4
 706 292 706 292 690 276 c 1,5,6
 667 250 667 250 646.5 225.5 c 128,-1,7
 626 201 626 201 611 178 c 128,-1,8
 596 155 596 155 587 134.5 c 128,-1,9
 578 114 578 114 578 98 c 0,10,11
 578 71 578 71 597.5 59.5 c 128,-1,12
 617 48 617 48 646 48 c 0,13,14
 673 48 673 48 709.5 54 c 128,-1,15
 746 60 746 60 795.5 75.5 c 128,-1,16
 845 91 845 91 910.5 117 c 128,-1,17
 976 143 976 143 1062 184 c 1,18,-1
 1072 160 l 1,19,20
 982 117 982 117 910 87 c 128,-1,21
 838 57 838 57 779.5 37.5 c 128,-1,22
 721 18 721 18 673.5 9 c 128,-1,23
 626 0 626 0 586 0 c 0,24,25
 561 0 561 0 535 6.5 c 128,-1,26
 509 13 509 13 487.5 26.5 c 128,-1,27
 466 40 466 40 452 59 c 128,-1,28
 438 78 438 78 438 104 c 0,29,30
 438 116 438 116 441 129 c 128,-1,31
 444 142 444 142 452 156 c 1,32,33
 369 75 369 75 293 37.5 c 128,-1,34
 217 0 217 0 152 0 c 0,35,36
 102 0 102 0 71.5 13.5 c 128,-1,37
 41 27 41 27 23.5 48.5 c 128,-1,38
 6 70 6 70 0 97 c 128,-1,39
 -6 124 -6 124 -6 152 c 0,40,41
 -6 198 -6 198 16 249.5 c 128,-1,42
 38 301 38 301 75.5 351 c 128,-1,43
 113 401 113 401 162.5 446.5 c 128,-1,44
 212 492 212 492 267 526.5 c 128,-1,45
 322 561 322 561 378 581.5 c 128,-1,46
 434 602 434 602 486 602 c 0,47,48
 519 602 519 602 548 596 c 128,-1,49
 577 590 577 590 598 577.5 c 128,-1,50
 619 565 619 565 631.5 544.5 c 128,-1,51
 644 524 644 524 644 496 c 0,52,53
 644 464 644 464 626 422 c 1,54,-1
 592 406 l 1,55,56
 598 430 598 430 598 452 c 0,57,58
 598 468 598 468 594.5 483.5 c 128,-1,59
 591 499 591 499 583 511 c 128,-1,60
 575 523 575 523 561.5 530.5 c 128,-1,61
 548 538 548 538 528 538 c 0,62,63
 485 538 485 538 440 517.5 c 128,-1,64
 395 497 395 497 352.5 463.5 c 128,-1,65
 310 430 310 430 272.5 388.5 c 128,-1,66
 235 347 235 347 207 304 c 128,-1,67
 179 261 179 261 162.5 221 c 128,-1,68
 146 181 146 181 146 152 c 0,69,70
 146 111 146 111 165 98.5 c 128,-1,71
 184 86 184 86 226 86 c 0,72,73
 276 86 276 86 329 117.5 c 128,-1,74
 382 149 382 149 444 202 c 1,75,76
 477 232 477 232 518 275 c 128,-1,77
 559 318 559 318 598 362 c 2,78,-1
 1344 1196 l 2,79,80
 1382 1238 1382 1238 1415.5 1266 c 128,-1,81
 1449 1294 1449 1294 1466 1294 c 0,82,83
 1474 1294 1474 1294 1488 1291 c 128,-1,84
 1502 1288 1502 1288 1515.5 1282.5 c 128,-1,85
 1529 1277 1529 1277 1538.5 1268.5 c 128,-1,86
 1548 1260 1548 1260 1548 1250 c 0,87,88
 1548 1239 1548 1239 1533.5 1222 c 128,-1,89
 1519 1205 1519 1205 1498 1182 c 2,90,-1
 1052 682 l 2,0,1
EndSplineSet
EndChar

StartChar: e
Encoding: 101 101 72
Width: 680
Flags: W
LayerCount: 2
Fore
SplineSet
716 160 m 1,0,1
 588 101 588 101 502 68 c 128,-1,2
 416 35 416 35 355.5 18.5 c 128,-1,3
 295 2 295 2 251 -2 c 128,-1,4
 207 -6 207 -6 162 -6 c 0,5,6
 127 -6 127 -6 95.5 3 c 128,-1,7
 64 12 64 12 40 31 c 128,-1,8
 16 50 16 50 2 80 c 128,-1,9
 -12 110 -12 110 -12 152 c 0,10,11
 -12 200 -12 200 8.5 251.5 c 128,-1,12
 29 303 29 303 65 352.5 c 128,-1,13
 101 402 101 402 149.5 446 c 128,-1,14
 198 490 198 490 255 523.5 c 128,-1,15
 312 557 312 557 374.5 576.5 c 128,-1,16
 437 596 437 596 500 596 c 0,17,18
 522 596 522 596 552 592 c 128,-1,19
 582 588 582 588 609 576.5 c 128,-1,20
 636 565 636 565 655 545 c 128,-1,21
 674 525 674 525 674 494 c 0,22,23
 674 466 674 466 648 436 c 128,-1,24
 622 406 622 406 578.5 375.5 c 128,-1,25
 535 345 535 345 478 315 c 128,-1,26
 421 285 421 285 360.5 257.5 c 128,-1,27
 300 230 300 230 239 206 c 128,-1,28
 178 182 178 182 126 164 c 1,29,30
 124 156 124 156 124 148 c 128,-1,31
 124 140 124 140 124 132 c 0,32,33
 124 94 124 94 149 69 c 128,-1,34
 174 44 174 44 218 44 c 0,35,36
 257 44 257 44 295 47 c 128,-1,37
 333 50 333 50 386 63.5 c 128,-1,38
 439 77 439 77 515 105.5 c 128,-1,39
 591 134 591 134 706 184 c 1,40,-1
 716 160 l 1,0,1
486 534 m 0,41,42
 460 534 460 534 428 519.5 c 128,-1,43
 396 505 396 505 361 480.5 c 128,-1,44
 326 456 326 456 291.5 423 c 128,-1,45
 257 390 257 390 226.5 352.5 c 128,-1,46
 196 315 196 315 172 275.5 c 128,-1,47
 148 236 148 236 136 198 c 1,48,49
 180 214 180 214 227.5 233 c 128,-1,50
 275 252 275 252 320.5 273 c 128,-1,51
 366 294 366 294 407 317.5 c 128,-1,52
 448 341 448 341 479 367 c 128,-1,53
 510 393 510 393 528 420.5 c 128,-1,54
 546 448 546 448 546 478 c 0,55,56
 546 502 546 502 533.5 518 c 128,-1,57
 521 534 521 534 486 534 c 0,41,42
EndSplineSet
EndChar

StartChar: f
Encoding: 102 102 73
Width: 682
Flags: W
LayerCount: 2
Fore
SplineSet
1024 908 m 0,0,1
 940 819 940 819 853 748 c 128,-1,2
 766 677 766 677 674.5 609.5 c 128,-1,3
 583 542 583 542 487 470.5 c 128,-1,4
 391 399 391 399 288 310 c 1,5,6
 301 291 301 291 316.5 258 c 128,-1,7
 332 225 332 225 356 193 c 128,-1,8
 380 161 380 161 414 137.5 c 128,-1,9
 448 114 448 114 498 114 c 0,10,11
 540 114 540 114 596.5 129.5 c 128,-1,12
 653 145 653 145 730 184 c 1,13,-1
 740 160 l 1,14,15
 645 112 645 112 580.5 93 c 128,-1,16
 516 74 516 74 472 74 c 0,17,18
 435 74 435 74 407.5 88 c 128,-1,19
 380 102 380 102 359.5 123.5 c 128,-1,20
 339 145 339 145 324 170 c 128,-1,21
 309 195 309 195 297.5 216.5 c 128,-1,22
 286 238 286 238 276 252 c 128,-1,23
 266 266 266 266 256 266 c 0,24,25
 251 266 251 266 248 265 c 128,-1,26
 245 264 245 264 240 262 c 1,27,28
 227 246 227 246 213.5 229.5 c 128,-1,29
 200 213 200 213 184.5 193.5 c 128,-1,30
 169 174 169 174 150 151 c 128,-1,31
 131 128 131 128 108 100 c 1,32,33
 81 50 81 50 55 -7.5 c 128,-1,34
 29 -65 29 -65 5.5 -124.5 c 128,-1,35
 -18 -184 -18 -184 -38 -241 c 128,-1,36
 -58 -298 -58 -298 -72 -346 c 256,37,38
 -86 -394 -86 -394 -104 -446.5 c 128,-1,39
 -122 -499 -122 -499 -144 -548.5 c 128,-1,40
 -166 -598 -166 -598 -192 -642.5 c 128,-1,41
 -218 -687 -218 -687 -248 -718 c 0,42,43
 -274 -744 -274 -744 -308.5 -758 c 128,-1,44
 -343 -772 -343 -772 -378 -772 c 0,45,46
 -400 -772 -400 -772 -419.5 -765.5 c 128,-1,47
 -439 -759 -439 -759 -454 -745.5 c 128,-1,48
 -469 -732 -469 -732 -477.5 -710.5 c 128,-1,49
 -486 -689 -486 -689 -486 -658 c 0,50,51
 -486 -601 -486 -601 -451.5 -521 c 128,-1,52
 -417 -441 -417 -441 -360 -348 c 128,-1,53
 -303 -255 -303 -255 -229.5 -154.5 c 128,-1,54
 -156 -54 -156 -54 -78 44.5 c 128,-1,55
 0 143 0 143 76.5 234.5 c 128,-1,56
 153 326 153 326 216 400 c 2,57,-1
 416 636 l 2,58,59
 496 731 496 731 582 832.5 c 128,-1,60
 668 934 668 934 760 1034 c 0,61,62
 780 1056 780 1056 813 1088 c 128,-1,63
 846 1120 846 1120 886 1155.5 c 128,-1,64
 926 1191 926 1191 970.5 1226 c 128,-1,65
 1015 1261 1015 1261 1058.5 1289 c 128,-1,66
 1102 1317 1102 1317 1141.5 1334.5 c 128,-1,67
 1181 1352 1181 1352 1212 1352 c 0,68,69
 1253 1352 1253 1352 1270.5 1337 c 128,-1,70
 1288 1322 1288 1322 1288 1296 c 0,71,72
 1288 1267 1288 1267 1270 1229 c 128,-1,73
 1252 1191 1252 1191 1224.5 1149.5 c 128,-1,74
 1197 1108 1197 1108 1164.5 1067.5 c 128,-1,75
 1132 1027 1132 1027 1102.5 993 c 128,-1,76
 1073 959 1073 959 1051 936 c 128,-1,77
 1029 913 1029 913 1024 908 c 0,0,1
930 1038 m 0,78,79
 803 911 803 911 686 777.5 c 128,-1,80
 569 644 569 644 456 502 c 1,81,82
 514 549 514 549 572.5 593.5 c 128,-1,83
 631 638 631 638 689.5 683 c 128,-1,84
 748 728 748 728 806.5 774.5 c 128,-1,85
 865 821 865 821 924 872 c 0,86,87
 957 901 957 901 990.5 934 c 128,-1,88
 1024 967 1024 967 1055.5 1001.5 c 128,-1,89
 1087 1036 1087 1036 1114.5 1070 c 128,-1,90
 1142 1104 1142 1104 1162.5 1134.5 c 128,-1,91
 1183 1165 1183 1165 1194.5 1190.5 c 128,-1,92
 1206 1216 1206 1216 1206 1234 c 0,93,94
 1206 1248 1206 1248 1192 1248 c 0,95,96
 1172 1248 1172 1248 1142 1228.5 c 128,-1,97
 1112 1209 1112 1209 1076.5 1178.5 c 128,-1,98
 1041 1148 1041 1148 1003 1110.5 c 128,-1,99
 965 1073 965 1073 930 1038 c 0,78,79
-76 -240 m 0,100,101
 -55 -178 -55 -178 -32 -122 c 128,-1,102
 -9 -66 -9 -66 18 -12 c 1,103,104
 1 -33 1 -33 -17 -55.5 c 128,-1,105
 -35 -78 -35 -78 -56 -104 c 0,106,107
 -116 -178 -116 -178 -175 -258 c 128,-1,108
 -234 -338 -234 -338 -281 -413 c 128,-1,109
 -328 -488 -328 -488 -357 -551 c 128,-1,110
 -386 -614 -386 -614 -386 -654 c 0,111,112
 -386 -693 -386 -693 -372.5 -706.5 c 128,-1,113
 -359 -720 -359 -720 -342 -720 c 0,114,115
 -326 -720 -326 -720 -308 -708.5 c 128,-1,116
 -290 -697 -290 -697 -273 -680 c 128,-1,117
 -256 -663 -256 -663 -241.5 -642.5 c 128,-1,118
 -227 -622 -227 -622 -218 -604 c 0,119,120
 -189 -550 -189 -550 -156 -462 c 128,-1,121
 -123 -374 -123 -374 -76 -240 c 0,100,101
EndSplineSet
EndChar

StartChar: g
Encoding: 103 103 74
Width: 914
Flags: W
LayerCount: 2
Fore
SplineSet
588 156 m 1,0,1
 558 121 558 121 529.5 89.5 c 128,-1,2
 501 58 501 58 472 28 c 1,3,4
 594 84 594 84 724 132.5 c 128,-1,5
 854 181 854 181 994 220 c 1,6,-1
 1004 196 l 1,7,8
 951 182 951 182 884 159 c 128,-1,9
 817 136 817 136 741.5 106 c 128,-1,10
 666 76 666 76 583.5 40 c 128,-1,11
 501 4 501 4 416 -36 c 1,12,13
 233 -238 233 -238 104 -388 c 128,-1,14
 -25 -538 -25 -538 -106 -624 c 0,15,16
 -135 -654 -135 -654 -167.5 -682 c 128,-1,17
 -200 -710 -200 -710 -237 -731 c 128,-1,18
 -274 -752 -274 -752 -314.5 -765 c 128,-1,19
 -355 -778 -355 -778 -398 -778 c 0,20,21
 -418 -778 -418 -778 -437 -773.5 c 128,-1,22
 -456 -769 -456 -769 -471 -758.5 c 128,-1,23
 -486 -748 -486 -748 -495 -731.5 c 128,-1,24
 -504 -715 -504 -715 -504 -692 c 0,25,26
 -504 -664 -504 -664 -483 -624.5 c 128,-1,27
 -462 -585 -462 -585 -420.5 -538.5 c 128,-1,28
 -379 -492 -379 -492 -317.5 -440.5 c 128,-1,29
 -256 -389 -256 -389 -174 -336 c 1,30,31
 -85 -277 -85 -277 11.5 -218 c 128,-1,32
 108 -159 108 -159 214 -102 c 1,33,34
 250 -57 250 -57 285.5 -13.5 c 128,-1,35
 321 30 321 30 356 72 c 1,36,37
 302 34 302 34 251.5 17 c 128,-1,38
 201 0 201 0 156 0 c 0,39,40
 106 0 106 0 75.5 13.5 c 128,-1,41
 45 27 45 27 27.5 48.5 c 128,-1,42
 10 70 10 70 4 97 c 128,-1,43
 -2 124 -2 124 -2 152 c 0,44,45
 -2 198 -2 198 20 249.5 c 128,-1,46
 42 301 42 301 79.5 351 c 128,-1,47
 117 401 117 401 166.5 446.5 c 128,-1,48
 216 492 216 492 271 526.5 c 128,-1,49
 326 561 326 561 382 581.5 c 128,-1,50
 438 602 438 602 490 602 c 0,51,52
 523 602 523 602 552 596 c 128,-1,53
 581 590 581 590 602 577.5 c 128,-1,54
 623 565 623 565 635.5 544.5 c 128,-1,55
 648 524 648 524 648 496 c 0,56,57
 648 464 648 464 630 422 c 1,58,-1
 596 406 l 1,59,60
 602 430 602 430 602 452 c 0,61,62
 602 468 602 468 598.5 483.5 c 128,-1,63
 595 499 595 499 587 511 c 128,-1,64
 579 523 579 523 565.5 530.5 c 128,-1,65
 552 538 552 538 532 538 c 0,66,67
 489 538 489 538 444 517.5 c 128,-1,68
 399 497 399 497 356.5 463.5 c 128,-1,69
 314 430 314 430 276.5 388.5 c 128,-1,70
 239 347 239 347 211 304 c 128,-1,71
 183 261 183 261 166.5 221 c 128,-1,72
 150 181 150 181 150 152 c 0,73,74
 150 111 150 111 169 98.5 c 128,-1,75
 188 86 188 86 230 86 c 0,76,77
 280 86 280 86 333 117.5 c 128,-1,78
 386 149 386 149 448 202 c 0,79,80
 462 214 462 214 477.5 228.5 c 128,-1,81
 493 243 493 243 510 260 c 1,82,83
 521 274 521 274 532 287 c 128,-1,84
 543 300 543 300 554 312 c 0,85,86
 572 334 572 334 597.5 364 c 128,-1,87
 623 394 623 394 651.5 426.5 c 128,-1,88
 680 459 680 459 709.5 490 c 128,-1,89
 739 521 739 521 765.5 546 c 128,-1,90
 792 571 792 571 813 586.5 c 128,-1,91
 834 602 834 602 846 602 c 0,92,93
 854 602 854 602 868 599 c 128,-1,94
 882 596 882 596 895.5 590.5 c 128,-1,95
 909 585 909 585 918.5 576.5 c 128,-1,96
 928 568 928 568 928 558 c 0,97,98
 928 547 928 547 913.5 530 c 128,-1,99
 899 513 899 513 878 490 c 2,100,-1
 712 302 l 2,101,102
 705 295 705 295 691 279.5 c 128,-1,103
 677 264 677 264 659.5 244 c 128,-1,104
 642 224 642 224 623 201 c 128,-1,105
 604 178 604 178 588 156 c 1,0,1
-230 -618 m 0,106,107
 -192 -580 -192 -580 -146.5 -530 c 128,-1,108
 -101 -480 -101 -480 -50.5 -421.5 c 128,-1,109
 0 -363 0 -363 53.5 -298.5 c 128,-1,110
 107 -234 107 -234 162 -166 c 1,111,112
 70 -216 70 -216 -16 -269 c 128,-1,113
 -102 -322 -102 -322 -176.5 -374.5 c 128,-1,114
 -251 -427 -251 -427 -311 -478.5 c 128,-1,115
 -371 -530 -371 -530 -410 -578 c 0,116,117
 -427 -598 -427 -598 -439.5 -622.5 c 128,-1,118
 -452 -647 -452 -647 -452 -670 c 0,119,120
 -452 -690 -452 -690 -438.5 -703 c 128,-1,121
 -425 -716 -425 -716 -390 -716 c 0,122,123
 -374 -716 -374 -716 -353.5 -707.5 c 128,-1,124
 -333 -699 -333 -699 -312 -685.5 c 128,-1,125
 -291 -672 -291 -672 -270 -654.5 c 128,-1,126
 -249 -637 -249 -637 -230 -618 c 0,106,107
EndSplineSet
EndChar

StartChar: h
Encoding: 104 104 75
Width: 1042
Flags: W
LayerCount: 2
Fore
SplineSet
504 440 m 0,0,1
 424 383 424 383 352.5 319 c 128,-1,2
 281 255 281 255 212 186 c 1,3,4
 195 166 195 166 175 144 c 128,-1,5
 155 122 155 122 135.5 101 c 128,-1,6
 116 80 116 80 97 60.5 c 128,-1,7
 78 41 78 41 62 28 c 1,8,9
 50 16 50 16 40 9 c 128,-1,10
 30 2 30 2 16 2 c 0,11,12
 11 2 11 2 5.5 2.5 c 128,-1,13
 0 3 0 3 -8 6 c 0,14,15
 -26 12 -26 12 -39 22.5 c 128,-1,16
 -52 33 -52 33 -52 48 c 0,17,18
 -52 54 -52 54 -49 62 c 128,-1,19
 -46 70 -46 70 -40 78 c 2,20,-1
 364 540 l 2,21,22
 413 596 413 596 469.5 657 c 128,-1,23
 526 718 526 718 586 782 c 128,-1,24
 646 846 646 846 707.5 911.5 c 128,-1,25
 769 977 769 977 830 1042 c 0,26,27
 850 1064 850 1064 883 1096 c 128,-1,28
 916 1128 916 1128 956 1163.5 c 128,-1,29
 996 1199 996 1199 1040.5 1234 c 128,-1,30
 1085 1269 1085 1269 1128.5 1297 c 128,-1,31
 1172 1325 1172 1325 1211.5 1342.5 c 128,-1,32
 1251 1360 1251 1360 1282 1360 c 0,33,34
 1323 1360 1323 1360 1339.5 1340 c 128,-1,35
 1356 1320 1356 1320 1356 1288 c 0,36,37
 1355 1256 1355 1256 1327.5 1209.5 c 128,-1,38
 1300 1163 1300 1163 1257 1110.5 c 128,-1,39
 1214 1058 1214 1058 1161 1004 c 128,-1,40
 1108 950 1108 950 1056.5 903 c 128,-1,41
 1005 856 1005 856 961 819 c 128,-1,42
 917 782 917 782 892 764 c 0,43,44
 850 733 850 733 807.5 706 c 128,-1,45
 765 679 765 679 721.5 652 c 128,-1,46
 678 625 678 625 631.5 595 c 128,-1,47
 585 565 585 565 536 528 c 1,48,49
 524 511 524 511 513 496 c 128,-1,50
 502 481 502 481 490 466 c 1,51,52
 505 479 505 479 535.5 501 c 128,-1,53
 566 523 566 523 606.5 544.5 c 128,-1,54
 647 566 647 566 694 582 c 128,-1,55
 741 598 741 598 788 598 c 0,56,57
 852 598 852 598 875 579.5 c 128,-1,58
 898 561 898 561 898 528 c 0,59,60
 898 490 898 490 876 449.5 c 128,-1,61
 854 409 854 409 821.5 369 c 128,-1,62
 789 329 789 329 751.5 290.5 c 128,-1,63
 714 252 714 252 681.5 217 c 128,-1,64
 649 182 649 182 627.5 151.5 c 128,-1,65
 606 121 606 121 606 98 c 0,66,67
 606 84 606 84 611 75.5 c 128,-1,68
 616 67 616 67 623.5 62.5 c 128,-1,69
 631 58 631 58 640.5 57 c 128,-1,70
 650 56 650 56 660 56 c 0,71,72
 717 56 717 56 773 67 c 128,-1,73
 829 78 829 78 883.5 96 c 128,-1,74
 938 114 938 114 991 137.5 c 128,-1,75
 1044 161 1044 161 1094 186 c 1,76,-1
 1104 162 l 1,77,78
 1071 140 1071 140 1013 112 c 128,-1,79
 955 84 955 84 883 59 c 128,-1,80
 811 34 811 34 729.5 17 c 128,-1,81
 648 0 648 0 568 0 c 0,82,83
 521 0 521 0 492.5 23 c 128,-1,84
 464 46 464 46 464 96 c 0,85,86
 464 120 464 120 480 152 c 128,-1,87
 496 184 496 184 521.5 218.5 c 128,-1,88
 547 253 547 253 578.5 289 c 128,-1,89
 610 325 610 325 640.5 358 c 128,-1,90
 671 391 671 391 698 419.5 c 128,-1,91
 725 448 725 448 742 468 c 1,92,93
 748 477 748 477 759 491.5 c 128,-1,94
 770 506 770 506 770 518 c 0,95,96
 770 526 770 526 763.5 531 c 128,-1,97
 757 536 757 536 742 536 c 0,98,99
 711 536 711 536 682.5 529.5 c 128,-1,100
 654 523 654 523 625.5 511 c 128,-1,101
 597 499 597 499 567 481 c 128,-1,102
 537 463 537 463 504 440 c 0,0,1
1000 1046 m 0,103,104
 906 952 906 952 809.5 849.5 c 128,-1,105
 713 747 713 747 622 638 c 1,106,107
 665 666 665 666 709 693 c 128,-1,108
 753 720 753 720 798 750 c 128,-1,109
 843 780 843 780 890.5 815 c 128,-1,110
 938 850 938 850 990 896 c 0,111,112
 1039 939 1039 939 1090 989 c 128,-1,113
 1141 1039 1141 1039 1182.5 1086.5 c 128,-1,114
 1224 1134 1224 1134 1250 1175 c 128,-1,115
 1276 1216 1276 1216 1276 1242 c 0,116,117
 1276 1256 1276 1256 1262 1256 c 0,118,119
 1242 1256 1242 1256 1212 1236.5 c 128,-1,120
 1182 1217 1182 1217 1146.5 1186.5 c 128,-1,121
 1111 1156 1111 1156 1073 1118.5 c 128,-1,122
 1035 1081 1035 1081 1000 1046 c 0,103,104
EndSplineSet
EndChar

StartChar: i
Encoding: 105 105 76
Width: 546
Flags: W
LayerCount: 2
Fore
SplineSet
752 856 m 1,0,1
 752 839 752 839 743 824 c 128,-1,2
 734 809 734 809 719.5 798 c 128,-1,3
 705 787 705 787 686 780.5 c 128,-1,4
 667 774 667 774 648 774 c 0,5,6
 634 774 634 774 620.5 777 c 128,-1,7
 607 780 607 780 595.5 788 c 128,-1,8
 584 796 584 796 577 809.5 c 128,-1,9
 570 823 570 823 570 844 c 0,10,11
 570 862 570 862 580 875 c 128,-1,12
 590 888 590 888 605 896 c 128,-1,13
 620 904 620 904 639 908 c 128,-1,14
 658 912 658 912 676 912 c 0,15,16
 706 912 706 912 726.5 898.5 c 128,-1,17
 747 885 747 885 752 856 c 1,0,1
160 160 m 0,18,19
 145 142 145 142 136.5 123.5 c 128,-1,20
 128 105 128 105 128 94 c 0,21,22
 128 68 128 68 144.5 61 c 128,-1,23
 161 54 161 54 190 54 c 0,24,25
 217 54 217 54 256.5 58.5 c 128,-1,26
 296 63 296 63 348.5 77 c 128,-1,27
 401 91 401 91 467.5 116.5 c 128,-1,28
 534 142 534 142 616 184 c 1,29,-1
 626 160 l 1,30,31
 549 114 549 114 473.5 83 c 128,-1,32
 398 52 398 52 328.5 33 c 128,-1,33
 259 14 259 14 198 6 c 128,-1,34
 137 -2 137 -2 90 -2 c 0,35,36
 36 -2 36 -2 11 24.5 c 128,-1,37
 -14 51 -14 51 -14 96 c 0,38,39
 -14 120 -14 120 2 150.5 c 128,-1,40
 18 181 18 181 54 228 c 0,41,42
 92 276 92 276 134 322 c 128,-1,43
 176 368 176 368 218 418 c 0,44,45
 246 451 246 451 276 483.5 c 128,-1,46
 306 516 306 516 333 542 c 128,-1,47
 360 568 360 568 382 584 c 128,-1,48
 404 600 404 600 416 600 c 0,49,50
 424 600 424 600 438 597 c 128,-1,51
 452 594 452 594 465.5 588.5 c 128,-1,52
 479 583 479 583 488.5 574.5 c 128,-1,53
 498 566 498 566 498 556 c 0,54,55
 498 545 498 545 483.5 528 c 128,-1,56
 469 511 469 511 448 488 c 2,57,-1
 282 300 l 2,58,59
 275 293 275 293 261.5 278.5 c 128,-1,60
 248 264 248 264 231.5 244.5 c 128,-1,61
 215 225 215 225 196 203 c 128,-1,62
 177 181 177 181 160 160 c 0,18,19
EndSplineSet
EndChar

StartChar: j
Encoding: 106 106 77
Width: 526
Flags: W
LayerCount: 2
Fore
SplineSet
730 862 m 1,0,1
 730 845 730 845 721 830 c 128,-1,2
 712 815 712 815 697.5 804 c 128,-1,3
 683 793 683 793 664 786.5 c 128,-1,4
 645 780 645 780 626 780 c 0,5,6
 612 780 612 780 598.5 783 c 128,-1,7
 585 786 585 786 573.5 794 c 128,-1,8
 562 802 562 802 555 815.5 c 128,-1,9
 548 829 548 829 548 850 c 0,10,11
 548 868 548 868 558 881 c 128,-1,12
 568 894 568 894 583 902 c 128,-1,13
 598 910 598 910 617 914 c 128,-1,14
 636 918 636 918 654 918 c 0,15,16
 684 918 684 918 704.5 904.5 c 128,-1,17
 725 891 725 891 730 862 c 1,0,1
178 154 m 1,18,19
 148 119 148 119 119.5 87.5 c 128,-1,20
 91 56 91 56 62 26 c 1,21,22
 184 82 184 82 314 130.5 c 128,-1,23
 444 179 444 179 584 218 c 1,24,-1
 594 194 l 1,25,26
 541 180 541 180 474 157 c 128,-1,27
 407 134 407 134 331.5 104 c 128,-1,28
 256 74 256 74 173.5 38 c 128,-1,29
 91 2 91 2 6 -38 c 1,30,31
 -177 -240 -177 -240 -306 -390 c 128,-1,32
 -435 -540 -435 -540 -516 -626 c 0,33,34
 -545 -656 -545 -656 -577.5 -684 c 128,-1,35
 -610 -712 -610 -712 -647 -733 c 128,-1,36
 -684 -754 -684 -754 -724.5 -767 c 128,-1,37
 -765 -780 -765 -780 -808 -780 c 0,38,39
 -828 -780 -828 -780 -847 -775.5 c 128,-1,40
 -866 -771 -866 -771 -881 -760.5 c 128,-1,41
 -896 -750 -896 -750 -905 -733.5 c 128,-1,42
 -914 -717 -914 -717 -914 -694 c 0,43,44
 -914 -666 -914 -666 -893 -626.5 c 128,-1,45
 -872 -587 -872 -587 -830.5 -540.5 c 128,-1,46
 -789 -494 -789 -494 -727.5 -442.5 c 128,-1,47
 -666 -391 -666 -391 -584 -338 c 1,48,49
 -495 -279 -495 -279 -398.5 -220 c 128,-1,50
 -302 -161 -302 -161 -196 -104 c 1,51,-1
 144 310 l 2,52,53
 163 332 163 332 188 362 c 128,-1,54
 213 392 213 392 241.5 424.5 c 128,-1,55
 270 457 270 457 299.5 488 c 128,-1,56
 329 519 329 519 355.5 544 c 128,-1,57
 382 569 382 569 403 584.5 c 128,-1,58
 424 600 424 600 436 600 c 0,59,60
 444 600 444 600 458 597 c 128,-1,61
 472 594 472 594 485.5 588.5 c 128,-1,62
 499 583 499 583 508.5 574.5 c 128,-1,63
 518 566 518 566 518 556 c 0,64,65
 518 545 518 545 503.5 528 c 128,-1,66
 489 511 489 511 468 488 c 2,67,-1
 302 300 l 2,68,69
 295 293 295 293 281 277.5 c 128,-1,70
 267 262 267 262 249.5 242 c 128,-1,71
 232 222 232 222 213 199 c 128,-1,72
 194 176 194 176 178 154 c 1,18,19
-640 -620 m 0,73,74
 -602 -582 -602 -582 -556.5 -532 c 128,-1,75
 -511 -482 -511 -482 -460.5 -423.5 c 128,-1,76
 -410 -365 -410 -365 -356.5 -300.5 c 128,-1,77
 -303 -236 -303 -236 -248 -168 c 1,78,79
 -340 -218 -340 -218 -426 -271 c 128,-1,80
 -512 -324 -512 -324 -586.5 -376.5 c 128,-1,81
 -661 -429 -661 -429 -721 -480.5 c 128,-1,82
 -781 -532 -781 -532 -820 -580 c 0,83,84
 -837 -600 -837 -600 -849.5 -624.5 c 128,-1,85
 -862 -649 -862 -649 -862 -672 c 0,86,87
 -862 -692 -862 -692 -848.5 -705 c 128,-1,88
 -835 -718 -835 -718 -800 -718 c 0,89,90
 -784 -718 -784 -718 -763.5 -709.5 c 128,-1,91
 -743 -701 -743 -701 -722 -687.5 c 128,-1,92
 -701 -674 -701 -674 -680 -656.5 c 128,-1,93
 -659 -639 -659 -639 -640 -620 c 0,73,74
EndSplineSet
EndChar

StartChar: k
Encoding: 107 107 78
Width: 960
Flags: W
LayerCount: 2
Fore
SplineSet
230 398 m 2,0,1
 260 433 260 433 292.5 469.5 c 128,-1,2
 325 506 325 506 354.5 535.5 c 128,-1,3
 384 565 384 565 408 583.5 c 128,-1,4
 432 602 432 602 446 602 c 0,5,6
 454 602 454 602 468 599 c 128,-1,7
 482 596 482 596 495.5 590.5 c 128,-1,8
 509 585 509 585 518.5 576.5 c 128,-1,9
 528 568 528 568 528 558 c 0,10,11
 528 547 528 547 513.5 530 c 128,-1,12
 499 513 499 513 478 490 c 0,13,14
 461 472 461 472 446.5 457 c 128,-1,15
 432 442 432 442 420 428 c 1,16,17
 457 455 457 455 505 483.5 c 128,-1,18
 553 512 553 512 602 536 c 128,-1,19
 651 560 651 560 696.5 575 c 128,-1,20
 742 590 742 590 776 590 c 0,21,22
 796 590 796 590 816 585.5 c 128,-1,23
 836 581 836 581 851.5 572 c 128,-1,24
 867 563 867 563 876.5 548.5 c 128,-1,25
 886 534 886 534 886 514 c 0,26,27
 886 491 886 491 875.5 469 c 128,-1,28
 865 447 865 447 847.5 430 c 128,-1,29
 830 413 830 413 807.5 402.5 c 128,-1,30
 785 392 785 392 760 392 c 0,31,32
 728 392 728 392 714 406.5 c 128,-1,33
 700 421 700 421 700 436 c 0,34,35
 700 460 700 460 713 472.5 c 128,-1,36
 726 485 726 485 744 496 c 0,37,38
 749 499 749 499 758.5 503 c 128,-1,39
 768 507 768 507 777 512 c 128,-1,40
 786 517 786 517 793 522.5 c 128,-1,41
 800 528 800 528 800 534 c 0,42,43
 800 542 800 542 794 549 c 128,-1,44
 788 556 788 556 776 556 c 0,45,46
 746 556 746 556 708.5 544.5 c 128,-1,47
 671 533 671 533 631 514.5 c 128,-1,48
 591 496 591 496 551 473 c 128,-1,49
 511 450 511 450 475 426 c 128,-1,50
 439 402 439 402 408.5 380 c 128,-1,51
 378 358 378 358 358 342 c 1,52,53
 395 358 395 358 423.5 367.5 c 128,-1,54
 452 377 452 377 475 382.5 c 128,-1,55
 498 388 498 388 517 390 c 128,-1,56
 536 392 536 392 556 392 c 0,57,58
 607 392 607 392 629.5 373.5 c 128,-1,59
 652 355 652 355 652 326 c 0,60,61
 652 291 652 291 632.5 260.5 c 128,-1,62
 613 230 613 230 590 202 c 128,-1,63
 567 174 567 174 547.5 148.5 c 128,-1,64
 528 123 528 123 528 100 c 0,65,66
 528 76 528 76 540 66 c 128,-1,67
 552 56 552 56 584 56 c 0,68,69
 670 56 670 56 780.5 88 c 128,-1,70
 891 120 891 120 1016 186 c 1,71,-1
 1026 162 l 1,72,73
 980 134 980 134 919.5 105.5 c 128,-1,74
 859 77 859 77 789.5 53.5 c 128,-1,75
 720 30 720 30 643.5 15 c 128,-1,76
 567 0 567 0 490 0 c 0,77,78
 445 0 445 0 420.5 20 c 128,-1,79
 396 40 396 40 396 76 c 0,80,81
 396 87 396 87 397.5 98.5 c 128,-1,82
 399 110 399 110 404 122 c 0,83,84
 416 154 416 154 436 180 c 128,-1,85
 456 206 456 206 475.5 228.5 c 128,-1,86
 495 251 495 251 509.5 272.5 c 128,-1,87
 524 294 524 294 524 318 c 0,88,89
 524 339 524 339 516.5 344.5 c 128,-1,90
 509 350 509 350 486 350 c 0,91,92
 462 350 462 350 431 341 c 128,-1,93
 400 332 400 332 368 317.5 c 128,-1,94
 336 303 336 303 306.5 285 c 128,-1,95
 277 267 277 267 256 248 c 1,96,97
 223 212 223 212 179 163.5 c 128,-1,98
 135 115 135 115 68 42 c 0,99,100
 47 19 47 19 33.5 10.5 c 128,-1,101
 20 2 20 2 6 2 c 0,102,103
 -6 2 -6 2 -18 6 c 128,-1,104
 -30 10 -30 10 -40 16 c 128,-1,105
 -50 22 -50 22 -56 30 c 128,-1,106
 -62 38 -62 38 -62 46 c 0,107,108
 -62 63 -62 63 -51.5 76 c 128,-1,109
 -41 89 -41 89 -36 94 c 2,110,-1
 230 398 l 2,0,1
EndSplineSet
EndChar

